<?xml version="1.0" encoding="UTF-8"?>
<svg width="171px" height="56px" viewBox="0 0 171 56" version="1.1" xmlns="http://www.w3.org/2000/svg" xmlns:xlink="http://www.w3.org/1999/xlink">
    <!-- Generator: Sketch 61 (89581) - https://sketch.com -->
    <title>🧬 Logos/Product MH/DiagnosticCapitalHumain</title>
    <desc>Created with Sketch.</desc>
    <defs>
        <path d="M32.6680763,11.6225034 C32.6680763,10.028692 31.631863,8.89028801 30.1813011,8.89028801 C28.7307391,8.89028801 27.6756193,10.028692 27.6756193,11.6225034 C27.6756193,13.1972726 28.7307391,14.335906 30.1813011,14.335906 C31.631863,14.335906 32.6680763,13.1972726 32.6680763,11.6225034 L32.6680763,11.6225034 Z M41.7842248,48.6744783 C42.8190714,48.6744783 43.6839872,49.1599404 44.2509546,49.9454896 L44.2509546,48.8174097 L46.1081204,48.8174097 L46.1081204,55.8710635 L44.2509546,55.8710635 L44.2509546,54.7289887 C43.6839872,55.5283034 42.8190714,56 41.7842248,56 C39.941182,56 38.594492,54.4715745 38.594492,52.3443513 C38.594492,50.2168987 39.941182,48.6744783 41.7842248,48.6744783 Z M71.2162132,48.6744783 C73.3993453,48.6744783 74.9870364,50.2168987 74.9870364,52.3443513 C74.9870364,54.4715745 73.3993453,56 71.2162132,56 C69.0187303,56 67.4310392,54.4715745 67.4310392,52.3443513 C67.4310392,50.2168987 69.0187303,48.6744783 71.2162132,48.6744783 Z M54.1042064,48.6744783 C55.1390529,48.6744783 56.0037409,49.1599404 56.5709362,49.9454896 L56.5709362,48.8174097 L58.4281019,48.8174097 L58.4281019,55.8710635 L56.5709362,55.8710635 L56.5709362,54.7289887 C56.0037409,55.5283034 55.1390529,56 54.1042064,56 C52.2611636,56 50.9142457,54.4715745 50.9142457,52.3443513 C50.9142457,50.2168987 52.2611636,48.6744783 54.1042064,48.6744783 Z M120.440035,48.6744783 C121.475109,48.6744783 122.339797,49.1599404 122.906992,49.9454896 L122.906992,48.8174097 L124.763703,48.8174097 L124.763703,55.8710635 L122.906992,55.8710635 L122.906992,54.7289887 C122.339797,55.5283034 121.475109,56 120.440035,56 C118.59722,56 117.250302,54.4715745 117.250302,52.3443513 C117.250302,50.2168987 118.59722,48.6744783 120.440035,48.6744783 Z M99.1884596,48.817685 L99.1884596,52.9438832 C99.1884596,53.8576807 99.7697778,54.4716204 100.648361,54.4716204 C101.527172,54.4716204 102.108718,53.8576807 102.108718,52.9438832 L102.108718,48.817685 L103.951533,48.817685 L103.951533,52.9438832 C103.951533,54.7432589 102.604843,55.999587 100.662712,55.999587 C98.7064576,55.999587 97.3454168,54.7432589 97.3454168,52.9438832 L97.3454168,48.817685 L99.1884596,48.817685 Z M140.997172,48.6747765 C142.697846,48.6747765 143.888956,49.6027983 143.888956,50.9164825 L142.202177,50.9164825 C142.159125,50.3592106 141.691701,49.9742365 141.010839,49.9742365 C140.38738,49.9742365 139.947747,50.2885479 139.947747,50.7448731 C139.947747,51.302145 140.642504,51.4875199 141.634754,51.7015729 C142.655933,51.9158553 144.101939,52.3446496 144.101939,53.8005769 C144.101939,55.0998074 142.854338,55.99961 141.082365,55.99961 C139.267568,55.99961 137.991265,55.0571345 137.991265,53.7147722 L139.777588,53.7147722 C139.820413,54.2862684 140.330888,54.671472 141.067559,54.671472 C141.748649,54.671472 142.230651,54.3289414 142.230651,53.8577036 C142.230651,53.2439933 141.37963,53.1008324 140.373029,52.8725551 C139.337955,52.630283 138.133178,52.1299083 138.133178,50.8306778 C138.133178,49.5601254 139.295814,48.6747765 140.997172,48.6747765 Z M83.4368558,45.8188555 C83.6070144,45.8188555 83.8336647,45.8330798 84.0320691,45.8762116 L84.0320691,47.489983 C83.8482432,47.4328563 83.6211373,47.3897245 83.4651017,47.3897245 C82.9972226,47.3897245 82.6712562,47.6753579 82.6712562,48.1179176 L82.6712562,48.8176621 L84.0320691,48.8176621 L84.0320691,50.3596236 L82.6712562,50.3596236 L82.6712562,55.8710864 L80.8140904,55.8710864 L80.8140904,50.3596236 L78.6024846,50.3596236 L78.6024846,55.8710864 L76.7594418,55.8710864 L76.7594418,50.3596236 L75.7813147,50.3596236 L75.7813147,48.8176621 L76.7594418,48.8176621 L76.7594418,48.1179176 C76.7594418,46.7755553 77.8512356,45.8188555 79.3822072,45.8188555 C79.5523658,45.8188555 79.7792438,45.8330798 79.9632976,45.8762116 L79.9632976,47.489983 C79.7792438,47.4328563 79.5664887,47.3897245 79.3965579,47.3897245 C78.9428017,47.3897245 78.6024846,47.6753579 78.6024846,48.1179176 L78.6024846,48.8176621 L80.8140904,48.8176621 L80.8140904,48.1179176 C80.8140904,46.7755553 81.9056565,45.8188555 83.4368558,45.8188555 Z M35.0213898,48.6744783 C36.4391501,48.6744783 37.3888035,49.7027585 37.3888035,51.2162714 L37.3888035,55.8710635 L35.5318655,55.8710635 L35.5318655,51.4879099 C35.5318655,50.6739121 35.0637586,50.1600014 34.2983867,50.1600014 C33.5471378,50.1600014 33.0649079,50.6739121 33.0649079,51.4879099 L33.0649079,55.8710635 L31.20797,55.8710635 L31.20797,51.4879099 C31.20797,50.6739121 30.7400909,50.1600014 29.9886141,50.1600014 C29.2230145,50.1600014 28.7410124,50.6739121 28.7410124,51.4879099 L28.7410124,55.8710635 L26.8981974,55.8710635 L26.8981974,48.8174097 L28.7410124,48.8174097 L28.7410124,49.9454896 C29.1239261,49.1461749 29.8469292,48.6744783 30.7968104,48.6744783 C31.7608145,48.6744783 32.4979405,49.1886184 32.8382576,50.0312943 C33.2209436,49.2030722 34.0147891,48.6744783 35.0213898,48.6744783 Z M61.9443023,45.9619704 L61.9443023,51.8873149 L64.552717,48.8173868 L66.736077,48.8173868 L63.7871174,52.1729483 L66.736077,55.8710405 L64.552717,55.8710405 L61.9443023,52.4870304 L61.9443023,55.8710405 L60.1012595,55.8710405 L60.1012595,45.9619704 L61.9443023,45.9619704 Z M113.676972,48.6744783 C115.094505,48.6744783 116.044614,49.7027585 116.044614,51.2162714 L116.044614,55.8710635 L114.187448,55.8710635 L114.187448,51.4879099 C114.187448,50.6739121 113.719796,50.1600014 112.953969,50.1600014 C112.202948,50.1600014 111.720946,50.6739121 111.720946,51.4879099 L111.720946,55.8710635 L109.863324,55.8710635 L109.863324,51.4879099 C109.863324,50.6739121 109.395901,50.1600014 108.644424,50.1600014 C107.878369,50.1600014 107.396595,50.6739121 107.396595,51.4879099 L107.396595,55.8710635 L105.55378,55.8710635 L105.55378,48.8174097 L107.396595,48.8174097 L107.396595,49.9454896 C107.779508,49.1461749 108.502511,48.6744783 109.452393,48.6744783 C110.416397,48.6744783 111.153523,49.1886184 111.493612,50.0312943 C111.876526,49.2030722 112.670371,48.6744783 113.676972,48.6744783 Z M49.6242297,45.9618787 L49.6242297,55.8711782 L47.7811868,55.8711782 L47.7811868,45.9618787 L49.6242297,45.9618787 Z M136.573892,48.8175244 L136.573892,55.8711782 L134.716726,55.8711782 L134.716726,48.8175244 L136.573892,48.8175244 Z M130.505928,48.6743865 C132.037127,48.6743865 133.086097,49.8171496 133.086097,51.4589107 L133.086097,55.8709717 L131.242598,55.8709717 L131.242598,51.7305492 C131.242598,50.7878443 130.661508,50.1596802 129.782925,50.1596802 C128.903886,50.1596802 128.308217,50.7878443 128.308217,51.7305492 L128.308217,55.8709717 L126.451279,55.8709717 L126.451279,48.8173179 L128.308217,48.8173179 L128.308217,49.8742762 C128.762201,49.1316294 129.556047,48.6743865 130.505928,48.6743865 Z M91.0363152,45.9616722 L91.0363152,49.9167198 C91.4902992,49.1458537 92.2554433,48.6743865 93.2196752,48.6743865 C94.7647696,48.6743865 95.8278621,49.8171496 95.8278621,51.4589107 L95.8278621,55.8709717 L93.9711519,55.8709717 L93.9711519,51.7305492 C93.9711519,50.7878443 93.3896059,50.1596802 92.5249179,50.1596802 C91.6319841,50.1596802 91.0363152,50.7878443 91.0363152,51.7305492 L91.0363152,55.8709717 L89.193728,55.8709717 L89.193728,45.9616722 L91.0363152,45.9616722 Z M54.6996475,50.2882497 C53.6080814,50.2882497 52.8142359,51.1449204 52.8142359,52.3443513 C52.8142359,53.5293284 53.6080814,54.3859992 54.6996475,54.3859992 C55.7912136,54.3859992 56.5709362,53.5293284 56.5709362,52.3443513 C56.5709362,51.1449204 55.7912136,50.2882497 54.6996475,50.2882497 Z M71.2020902,50.2882497 C70.1102964,50.2882497 69.3308015,51.1449204 69.3308015,52.3443513 C69.3308015,53.5293284 70.1102964,54.3859992 71.2020902,54.3859992 C72.3077792,54.3859992 73.0875018,53.5293284 73.0875018,52.3443513 C73.0875018,51.1449204 72.3077792,50.2882497 71.2020902,50.2882497 Z M121.035704,50.2882497 C119.943682,50.2882497 119.150064,51.1449204 119.150064,52.3443513 C119.150064,53.5293284 119.943682,54.3859992 121.035704,54.3859992 C122.127042,54.3859992 122.906992,53.5293284 122.906992,52.3443513 C122.906992,51.1449204 122.127042,50.2882497 121.035704,50.2882497 Z M42.3796659,50.2882497 C41.2880999,50.2882497 40.4942543,51.1449204 40.4942543,52.3443513 C40.4942543,53.5293284 41.2880999,54.3859992 42.3796659,54.3859992 C43.471232,54.3859992 44.2509546,53.5293284 44.2509546,52.3443513 C44.2509546,51.1449204 43.471232,50.2882497 42.3796659,50.2882497 Z M135.638134,45.8189473 C136.303962,45.8189473 136.772296,46.2472827 136.772296,46.8614518 C136.772296,47.4609378 136.303962,47.8892732 135.638134,47.8892732 C134.985517,47.8892732 134.518322,47.4609378 134.518322,46.8614518 C134.518322,46.2472827 134.985517,45.8189473 135.638134,45.8189473 Z M16.5097092,6.88273258e-05 C16.5097092,6.88273258e-05 8.51271204,7.01793239 8.51271204,21.1635538 C8.51271204,35.4768845 16.5097092,42.3272682 16.5097092,42.3272682 C16.5097092,42.3272682 0,38.5234113 0,21.1635538 C0,4.36899804 16.5097092,6.88273258e-05 16.5097092,6.88273258e-05 Z M154.490063,0 C154.490063,0 171,3.80385687 171,21.163485 C171,37.9578113 154.490063,42.3269699 154.490063,42.3269699 C154.490063,42.3269699 162.486832,35.308877 162.486832,21.163485 C162.486832,6.85015431 154.490063,0 154.490063,0 Z M48.8971492,26.0178533 C51.3461114,26.0178533 53.1171728,28.0675311 53.1171728,30.8942693 C53.1171728,33.7214665 51.3461114,35.7516431 48.8971492,35.7516431 C47.5219855,35.7516431 46.3538822,35.1253145 45.6003554,34.0633088 L45.6003554,39.3758607 L43.1513931,39.3758607 L43.1513931,26.2075873 L45.6003554,26.2075873 L45.6003554,27.7066465 C46.3538822,26.6634536 47.5219855,26.0178533 48.8971492,26.0178533 Z M35.1826874,26.0178533 C36.5580789,26.0178533 37.7072756,26.6634536 38.4608025,27.7066465 L38.4608025,26.2075873 L40.9286712,26.2075873 L40.9286712,35.5811808 L38.4608025,35.5811808 L38.4608025,34.0633088 C37.7072756,35.1253145 36.5580789,35.7516431 35.1826874,35.7516431 C32.7337252,35.7516431 30.943985,33.7214665 30.943985,30.8942693 C30.943985,28.0675311 32.7337252,26.0178533 35.1826874,26.0178533 Z M101.380703,26.2079773 L101.380703,31.691221 C101.380703,32.9055644 102.153137,33.7218565 103.320557,33.7218565 C104.48866,33.7218565 105.261321,32.9055644 105.261321,31.691221 L105.261321,26.2079773 L107.710283,26.2079773 L107.710283,31.691221 C107.710283,34.0820528 105.920771,35.7515743 103.339691,35.7515743 C100.739704,35.7515743 98.9315134,34.0820528 98.9315134,31.691221 L98.9315134,26.2079773 L101.380703,26.2079773 Z M129.619122,26.0178533 C130.994285,26.0178533 132.143482,26.6634536 132.897237,27.7066465 L132.897237,26.2075873 L135.365105,26.2075873 L135.365105,35.5811808 L132.897237,35.5811808 L132.897237,34.0633088 C132.143482,35.1253145 130.994285,35.7516431 129.619122,35.7516431 C127.169932,35.7516431 125.380647,33.7214665 125.380647,30.8942693 C125.380647,28.0675311 127.169932,26.0178533 129.619122,26.0178533 Z M24.8781851,26.0178304 C27.4779438,26.0178304 29.5314639,27.7449374 29.7763373,30.1545821 L27.2895621,30.1545821 C27.0446887,29.0161781 26.0838736,28.162031 24.8970916,28.162031 C23.4276232,28.162031 22.3725034,29.300435 22.3725034,30.8942464 C22.3725034,32.4690156 23.4276232,33.607649 24.8970916,33.607649 C26.1025523,33.607649 27.0635952,32.773003 27.3082408,31.634599 L29.7763373,31.634599 C29.5314639,34.0254309 27.4779438,35.7516202 24.8781851,35.7516202 C21.9581547,35.7516202 19.8481429,33.7214435 19.8481429,30.8942464 C19.8481429,28.0672787 21.9581547,26.0178304 24.8781851,26.0178304 Z M70.127745,26.0178533 C71.5031365,26.0178533 72.6523333,26.6634536 73.4058601,27.7066465 L73.4058601,26.2075873 L75.8737288,26.2075873 L75.8737288,35.5811808 L73.4058601,35.5811808 L73.4058601,34.0633088 C72.6523333,35.1253145 71.5031365,35.7516431 70.127745,35.7516431 C67.6787828,35.7516431 65.8890427,33.7214665 65.8890427,30.8942693 C65.8890427,28.0675311 67.6787828,26.0178533 70.127745,26.0178533 Z M147.722832,26.0178763 C149.757673,26.0178763 151.151743,27.5359776 151.151743,29.7180333 L151.151743,35.5812037 L148.702781,35.5812037 L148.702781,30.0784591 C148.702781,28.8260312 147.929892,27.9916145 146.762017,27.9916145 C145.594369,27.9916145 144.803029,28.8260312 144.803029,30.0784591 L144.803029,35.5812037 L142.33516,35.5812037 L142.33516,26.2076103 L144.803029,26.2076103 L144.803029,27.6116877 C145.405532,26.6253921 146.460651,26.0178763 147.722832,26.0178763 Z M90.6049735,22.4129304 L90.6049735,27.668585 C91.207476,26.6444343 92.2247828,26.0178763 93.5058696,26.0178763 C95.5596174,26.0178763 96.9723664,27.5359776 96.9723664,29.7180333 L96.9723664,35.5812037 L94.5044976,35.5812037 L94.5044976,30.0784591 C94.5044976,28.8260312 93.7318365,27.9916145 92.5826397,27.9916145 C91.3963133,27.9916145 90.6049735,28.8260312 90.6049735,30.0784591 L90.6049735,35.5812037 L88.1560113,35.5812037 L88.1560113,22.4129304 L90.6049735,22.4129304 Z M57.3367181,26.2079773 L57.3367181,35.5808826 L54.8688493,35.5808826 L54.8688493,26.2079773 L57.3367181,26.2079773 Z M80.5454813,22.4128386 L80.5454813,35.5808826 L78.0965191,35.5808826 L78.0965191,22.4128386 L80.5454813,22.4128386 Z M63.025709,23.7600647 L63.025709,26.2075644 L65.0979078,26.2075644 L65.0979078,28.2570127 L63.025709,28.2570127 L63.025709,35.5809284 L60.5578403,35.5809284 L60.5578403,28.2570127 L58.8245919,28.2570127 L58.8245919,26.2075644 L60.5578403,26.2075644 L60.5578403,23.7600647 L63.025709,23.7600647 Z M140.074557,26.2079773 L140.074557,35.5808826 L137.606688,35.5808826 L137.606688,26.2079773 L140.074557,26.2079773 Z M120.633428,26.0178074 C122.517473,26.0178074 123.779653,27.3840298 123.779653,29.3953937 L123.779653,35.5809055 L121.311784,35.5809055 L121.311784,29.7558195 C121.311784,28.6743128 120.690147,27.9913163 119.672841,27.9913163 C118.67444,27.9913163 118.033669,28.6743128 118.033669,29.7558195 L118.033669,35.5809055 L115.565801,35.5809055 L115.565801,29.7558195 C115.565801,28.6743128 114.944391,27.9913163 113.945763,27.9913163 C112.928229,27.9913163 112.288141,28.6743128 112.288141,29.7558195 L112.288141,35.5809055 L109.839179,35.5809055 L109.839179,26.2075414 L112.288141,26.2075414 L112.288141,27.7070594 C112.796794,26.6443655 113.757609,26.0178074 115.01979,26.0178074 C116.300649,26.0178074 117.28037,26.7010334 117.732532,27.8208539 C118.241185,26.7200756 119.295849,26.0178074 120.633428,26.0178074 Z M70.9190849,28.1622834 C69.4685229,28.1622834 68.4134031,29.3006873 68.4134031,30.8942693 C68.4134031,32.4690386 69.4685229,33.607672 70.9190849,33.607672 C72.3696468,33.607672 73.4058601,32.4690386 73.4058601,30.8942693 C73.4058601,29.3006873 72.3696468,28.1622834 70.9190849,28.1622834 Z M130.410689,28.1622834 C128.960127,28.1622834 127.905007,29.3006873 127.905007,30.8942693 C127.905007,32.4690386 128.960127,33.607672 130.410689,33.607672 C131.861023,33.607672 132.897237,32.4690386 132.897237,30.8942693 C132.897237,29.3006873 131.861023,28.1622834 130.410689,28.1622834 Z M48.1247158,28.1622834 C46.6552474,28.1622834 45.6003554,29.3006873 45.6003554,30.8942693 C45.6003554,32.4690386 46.6552474,33.607672 48.1247158,33.607672 C49.556599,33.607672 50.611491,32.4690386 50.611491,30.8942693 C50.611491,29.3006873 49.556599,28.1622834 48.1247158,28.1622834 Z M35.9740272,28.1622834 C34.5234653,28.1622834 33.4683455,29.3006873 33.4683455,30.8942693 C33.4683455,32.4690386 34.5234653,33.607672 35.9740272,33.607672 C37.4245892,33.607672 38.4608025,32.4690386 38.4608025,30.8942693 C38.4608025,29.3006873 37.4245892,28.1622834 35.9740272,28.1622834 Z M56.0932166,22.2231046 C56.9786334,22.2231046 57.600498,22.7923066 57.600498,23.6081398 C57.600498,24.4051602 56.9786334,24.9748211 56.0932166,24.9748211 C55.2267063,24.9748211 54.6050694,24.4051602 54.6050694,23.6081398 C54.6050694,22.7923066 55.2267063,22.2231046 56.0932166,22.2231046 Z M138.831283,22.2231046 C139.716472,22.2231046 140.338337,22.7923066 140.338337,23.6081398 C140.338337,24.4051602 139.716472,24.9748211 138.831283,24.9748211 C137.964545,24.9748211 137.342908,24.4051602 137.342908,23.6081398 C137.342908,22.7923066 137.964545,22.2231046 138.831283,22.2231046 Z M57.5154871,6.74604151 C58.8908786,6.74604151 60.0400753,7.35332794 60.7936022,8.34008237 L60.7936022,6.9357755 L63.2614709,6.9357755 L63.2614709,15.6828109 C63.2614709,18.3395457 61.2268573,20.2747407 58.4198104,20.2747407 C56.0273399,20.2747407 54.0681246,18.813766 53.7102677,16.7833598 L56.0084334,16.7833598 C56.2722133,17.6751326 57.2330284,18.3014612 58.3257334,18.3014612 C59.7573889,18.3014612 60.7936022,17.2578095 60.7936022,15.8349193 L60.7936022,14.3546729 C60.0400753,15.3604696 58.8908786,15.9487138 57.5154871,15.9487138 C55.0665249,15.9487138 53.2767847,14.0132894 53.2767847,11.3379713 C53.2767847,8.68169533 55.0665249,6.74604151 57.5154871,6.74604151 Z M113.52203,6.74606445 C116.121561,6.74606445 118.175081,8.47294205 118.419954,10.8825867 L115.933407,10.8825867 C115.688533,9.74418276 114.727718,8.89026507 113.540709,8.89026507 C112.071468,8.89026507 111.016348,10.028669 111.016348,11.6224805 C111.016348,13.1972497 112.071468,14.3358831 113.540709,14.3358831 C114.746397,14.3358831 115.707212,13.5010076 115.952086,12.3626037 L118.419954,12.3626037 C118.175081,14.7534355 116.121561,16.4798543 113.52203,16.4798543 C110.601999,16.4798543 108.491988,14.4496776 108.491988,11.6224805 C108.491988,8.79551279 110.601999,6.74606445 113.52203,6.74606445 Z M91.3492976,6.7462021 C93.6101059,6.7462021 95.1925578,7.97958778 95.1925578,9.72504876 L92.9504283,9.72504876 C92.8939365,8.98515501 92.2725275,8.47285028 91.3682041,8.47285028 C90.5390513,8.47285028 89.9552274,8.8901733 89.9552274,9.49745974 C89.9552274,10.2373535 90.8784573,10.4842142 92.1971292,10.7687004 C93.5536142,11.0534162 95.4747887,11.6226181 95.4747887,13.5578131 C95.4747887,15.2844613 93.8171664,16.4797625 91.4622811,16.4797625 C89.0509041,16.4797625 87.3556965,15.227564 87.3556965,13.4440186 L89.7292605,13.4440186 C89.7857522,14.203184 90.463653,14.7152593 91.4436024,14.7152593 C92.3479257,14.7152593 92.9880135,14.2600813 92.9880135,13.6337526 C92.9880135,12.8176899 91.8577232,12.6281854 90.5201448,12.3246569 C89.1452089,12.0020861 87.5438504,11.3379024 87.5438504,9.61125425 C87.5438504,7.92269053 89.0887171,6.7462021 91.3492976,6.7462021 Z M139.537612,6.93598198 L139.537612,12.419455 C139.537612,13.6337985 140.310273,14.4498611 141.477921,14.4498611 C142.645797,14.4498611 143.418458,13.6337985 143.418458,12.419455 L143.418458,6.93598198 L145.867648,6.93598198 L145.867648,12.419455 C145.867648,14.8102869 144.077908,16.4798084 141.497055,16.4798084 C138.896841,16.4798084 137.08865,14.8102869 137.08865,12.419455 L137.08865,6.93598198 L139.537612,6.93598198 Z M45.8169146,6.74608739 C47.1923061,6.74608739 48.3415028,7.39145828 49.0950297,8.43488054 L49.0950297,6.93582139 L51.5628984,6.93582139 L51.5628984,16.3091855 L49.0950297,16.3091855 L49.0950297,14.7913135 C48.3415028,15.8535486 47.1923061,16.4798772 45.8169146,16.4798772 C43.3679524,16.4798772 41.5782122,14.4497005 41.5782122,11.6225034 C41.5782122,8.79553573 43.3679524,6.74608739 45.8169146,6.74608739 Z M134.960028,3.14114149 L134.960028,16.3091855 L132.492159,16.3091855 L132.492159,14.7913135 C131.738404,15.8535486 130.589208,16.4798772 129.214044,16.4798772 C126.764854,16.4798772 124.975569,14.4497005 124.975569,11.6225034 C124.975569,8.79553573 126.764854,6.74608739 129.214044,6.74608739 C130.589208,6.74608739 131.738404,7.39145828 132.492159,8.43488054 L132.492159,3.14114149 L134.960028,3.14114149 Z M35.135945,3.14114149 L35.135945,16.3091855 L32.6680763,16.3091855 L32.6680763,14.7913135 C31.9145495,15.8535486 30.7653527,16.4798772 29.3899612,16.4798772 C26.940999,16.4798772 25.1512589,14.4497005 25.1512589,11.6225034 C25.1512589,8.79553573 26.940999,6.74608739 29.3899612,6.74608739 C30.7653527,6.74608739 31.9145495,7.39145828 32.6680763,8.43488054 L32.6680763,3.14114149 L35.135945,3.14114149 Z M80.9883036,6.74608739 C83.8894275,6.74608739 85.9992115,8.79553573 85.9992115,11.6225034 C85.9992115,14.4497005 83.8894275,16.4798772 80.9883036,16.4798772 C78.0682732,16.4798772 75.9582614,14.4497005 75.9582614,11.6225034 C75.9582614,8.79553573 78.0682732,6.74608739 80.9883036,6.74608739 Z M106.758785,6.9360967 L106.758785,16.3092313 L104.290916,16.3092313 L104.290916,6.9360967 L106.758785,6.9360967 Z M70.8907934,6.74611033 C72.925407,6.74611033 74.3194772,8.26421172 74.3194772,10.4462674 L74.3194772,16.3092084 L71.870515,16.3092084 L71.870515,10.8066931 C71.870515,9.55426523 71.0980817,8.71961919 69.9299784,8.71961919 C68.7621029,8.71961919 67.9707631,9.55426523 67.9707631,10.8066931 L67.9707631,16.3092084 L65.5028943,16.3092084 L65.5028943,6.93584433 L67.9707631,6.93584433 L67.9707631,8.33992177 C68.5737212,7.35339677 69.6286132,6.74611033 70.8907934,6.74611033 Z M39.845465,6.9360967 L39.845465,16.3092313 L37.3775962,16.3092313 L37.3775962,6.9360967 L39.845465,6.9360967 Z M100.768178,4.48829874 L100.768178,6.93579844 L102.840832,6.93579844 L102.840832,8.98524678 L100.768178,8.98524678 L100.768178,16.3091625 L98.3003094,16.3091625 L98.3003094,8.98524678 L96.5675165,8.98524678 L96.5675165,6.93579844 L98.3003094,6.93579844 L98.3003094,4.48829874 L100.768178,4.48829874 Z M130.005612,8.89028801 C128.55505,8.89028801 127.49993,10.028692 127.49993,11.6225034 C127.49993,13.1972726 128.55505,14.335906 130.005612,14.335906 C131.455718,14.335906 132.492159,13.1972726 132.492159,11.6225034 C132.492159,10.028692 131.455718,8.89028801 130.005612,8.89028801 Z M80.9693971,8.89028801 C79.5188352,8.89028801 78.4826219,10.028692 78.4826219,11.6225034 C78.4826219,13.1972726 79.5188352,14.335906 80.9693971,14.335906 C82.4388656,14.335906 83.4750789,13.1972726 83.4750789,11.6225034 C83.4750789,10.028692 82.4388656,8.89028801 80.9693971,8.89028801 Z M46.6082544,8.89028801 C45.1576925,8.89028801 44.1025727,10.028692 44.1025727,11.6225034 C44.1025727,13.1972726 45.1576925,14.335906 46.6082544,14.335906 C48.0588164,14.335906 49.0950297,13.1972726 49.0950297,11.6225034 C49.0950297,10.028692 48.0588164,8.89028801 46.6082544,8.89028801 Z M58.3068269,8.64361088 C56.856265,8.64361088 55.8011452,9.78201485 55.8011452,11.3570135 C55.8011452,12.9317827 56.856265,14.0511444 58.3068269,14.0511444 C59.7573889,14.0511444 60.7936022,12.9317827 60.7936022,11.3570135 C60.7936022,9.78201485 59.7573889,8.64361088 58.3068269,8.64361088 Z M38.6019635,2.95145338 C39.4873803,2.95145338 40.1090171,3.52065537 40.1090171,4.3364886 C40.1090171,5.13350903 39.4873803,5.70271102 38.6019635,5.70271102 C37.7354532,5.70271102 37.1138163,5.13350903 37.1138163,4.3364886 C37.1138163,3.52065537 37.7354532,2.95145338 38.6019635,2.95145338 Z M105.515511,2.95145338 C106.4007,2.95145338 107.022793,3.52065537 107.022793,4.3364886 C107.022793,5.13350903 106.4007,5.70271102 105.515511,5.70271102 C104.649001,5.70271102 104.027136,5.13350903 104.027136,4.3364886 C104.027136,3.52065537 104.649001,2.95145338 105.515511,2.95145338 Z" id="path-1"></path>
    </defs>
    <g id="🧬-Logos/Product-MH/DiagnosticCapitalHumain" stroke="none" stroke-width="1" fill="none" fill-rule="evenodd">
        <mask id="mask-2" fill="white">
            <use xlink:href="#path-1"></use>
        </mask>
        <use id="DCH" fill="#FF4B33" xlink:href="#path-1"></use>
        <g id="🎨Couleurs/Primaires/Corail-MH-brand" mask="url(#mask-2)" fill="#FF4B33">
            <rect id="bgcolor" x="0" y="0" width="171" height="56"></rect>
        </g>
    </g>
</svg>