<?xml version="1.0" encoding="UTF-8"?>
<svg width="156px" height="56px" viewBox="0 0 156 56" version="1.1" xmlns="http://www.w3.org/2000/svg" xmlns:xlink="http://www.w3.org/1999/xlink">
    <!-- Generator: Sketch 55.2 (78181) - https://sketchapp.com -->
    <title>🧬 Logos/Product MH/Fondation handicap@3x</title>
    <desc>Created with Sketch.</desc>
    <defs>
        <path d="M12.6725486,6.06995556 C12.6725486,6.06995556 6.53417143,11.4032889 6.53417143,22.1535111 C6.53417143,33.0308444 12.6725486,38.2370667 12.6725486,38.2370667 C12.6725486,38.2370667 -4.54747351e-13,35.3464 -4.54747351e-13,22.1535111 C-4.54747351e-13,9.38995556 12.6725486,6.06995556 12.6725486,6.06995556 Z M142.626075,38.0699556 C142.626075,38.0699556 148.764453,32.7366222 148.764453,21.9864 C148.764453,11.1090667 142.626075,5.90284444 142.626075,5.90284444 C142.626075,5.90284444 155.298624,8.79351111 155.298624,21.9864 C155.298624,34.7499556 142.626075,38.0699556 142.626075,38.0699556 Z M35.7116983,51.0574222 L35.7116983,55.1632 L34.0572069,55.1632 L34.0572069,51.2974222 C34.0572069,50.5783111 33.6275383,50.1249778 32.9580754,50.1249778 C32.289504,50.1249778 31.8598354,50.5783111 31.8598354,51.2974222 L31.8598354,55.1632 L30.205344,55.1632 L30.205344,51.2974222 C30.205344,50.5783111 29.7881554,50.1249778 29.1186926,50.1249778 C28.4492297,50.1249778 28.0070811,50.5783111 28.0070811,51.2974222 L28.0070811,55.1632 L26.3659611,55.1632 L26.3659611,48.9418667 L28.0070811,48.9418667 L28.0070811,49.9365333 C28.3734583,49.1943111 28.9805211,48.8156444 29.8380754,48.8156444 C30.6974126,48.8156444 31.3543954,49.2565333 31.6574811,50.0120889 C32.0113783,49.2698667 32.7058011,48.8156444 33.6025783,48.8156444 C34.8657326,48.8156444 35.7116983,49.7098667 35.7116983,51.0574222 Z M40.1527063,53.8529778 C40.6447749,53.8529778 41.0370034,53.6769778 41.3525691,53.3374222 C41.6690263,52.9960889 41.8205691,52.5694222 41.8205691,52.0520889 C41.8205691,50.9952 41.1252549,50.2387556 40.1527063,50.2387556 C39.1801577,50.2387556 38.4732549,50.9952 38.4732549,52.0520889 C38.4732549,52.5694222 38.6363863,52.9960889 38.9528434,53.3374222 C39.2684091,53.6769778 39.6606377,53.8529778 40.1527063,53.8529778 Z M41.8205691,48.9418667 L43.4750606,48.9418667 L43.4750606,55.1632 L41.8205691,55.1632 L41.8205691,54.1552 C41.2767977,54.8983111 40.5440434,55.2760889 39.6223063,55.2760889 C38.8013006,55.2760889 38.1193577,54.9738667 37.5898491,54.3703111 C37.0460777,53.7640889 36.7795406,52.9960889 36.7795406,52.0520889 C36.7795406,51.1080889 37.0460777,50.3400889 37.5898491,49.7232 C38.1193577,49.1187556 38.8013006,48.8156444 39.6223063,48.8156444 C40.5440434,48.8156444 41.2767977,49.1943111 41.8205691,49.9365333 L41.8205691,48.9418667 Z M44.96232,55.1631111 L44.96232,46.4235556 L46.60344,46.4235556 L46.60344,55.1631111 L44.96232,55.1631111 Z M51.1241417,53.8529778 C51.6162103,53.8529778 52.0084389,53.6769778 52.3240046,53.3374222 C52.6404617,52.9960889 52.7920046,52.5694222 52.7920046,52.0520889 C52.7920046,50.9952 52.0966903,50.2387556 51.1241417,50.2387556 C50.1515931,50.2387556 49.4446903,50.9952 49.4446903,52.0520889 C49.4446903,52.5694222 49.6078217,52.9960889 49.9242789,53.3374222 C50.2398446,53.6769778 50.6320731,53.8529778 51.1241417,53.8529778 Z M52.7920046,48.9418667 L54.446496,48.9418667 L54.446496,55.1632 L52.7920046,55.1632 L52.7920046,54.1552 C52.2482331,54.8983111 51.5154789,55.2760889 50.5937417,55.2760889 C49.772736,55.2760889 49.0907931,54.9738667 48.5612846,54.3703111 C48.0175131,53.7640889 47.750976,52.9960889 47.750976,52.0520889 C47.750976,51.1080889 48.0175131,50.3400889 48.5612846,49.7232 C49.0907931,49.1187556 49.772736,48.8156444 50.5937417,48.8156444 C51.5154789,48.8156444 52.2482331,49.1943111 52.7920046,49.9365333 L52.7920046,48.9418667 Z M61.8434811,48.9415111 L59.2164411,51.9015111 L61.8434811,55.1628444 L59.8992754,55.1628444 L57.5744297,52.1788444 L57.5744297,55.1628444 L55.9333097,55.1628444 L55.9333097,46.4232889 L57.5744297,46.4232889 L57.5744297,51.6499556 L59.8992754,48.9415111 L61.8434811,48.9415111 Z M65.818272,50.2384 C65.3262034,50.2384 64.9339749,50.4028444 64.6184091,50.7424 C64.3037349,51.0819556 64.152192,51.5237333 64.152192,52.0526222 C64.152192,53.0979556 64.8457234,53.8526222 65.818272,53.8526222 C66.7908206,53.8526222 67.4986149,53.0979556 67.4986149,52.0526222 C67.4986149,51.5237333 67.347072,51.0819556 67.0315063,50.7424 C66.7150491,50.4028444 66.3103406,50.2384 65.818272,50.2384 Z M65.8316434,48.8152889 C66.804192,48.8152889 67.6127177,49.1184 68.2429577,49.7228444 C68.8749806,50.3397333 69.1914377,51.1086222 69.1914377,52.0526222 C69.1914377,52.9966222 68.8749806,53.7646222 68.2429577,54.3699556 C67.6127177,54.9744 66.804192,55.2757333 65.8316434,55.2757333 C64.8582034,55.2757333 64.0505691,54.9744 63.4194377,54.3699556 C62.7740434,53.7646222 62.4593691,52.9966222 62.4593691,52.0526222 C62.4593691,51.1086222 62.7740434,50.3397333 63.4194377,49.7228444 C64.0505691,49.1184 64.8582034,48.8152889 65.8316434,48.8152889 Z M76.0335977,48.3243556 L76.0335977,48.9412444 L77.2450491,48.9412444 L77.2450491,50.3021333 L76.0335977,50.3021333 L76.0335977,55.1625778 L74.3791063,55.1625778 L74.3791063,50.3021333 L73.6205006,50.3021333 L72.4090491,50.3021333 L72.4090491,55.1625778 L70.7661463,55.1625778 L70.7661463,50.3021333 L69.8952206,50.3021333 L69.8952206,48.9412444 L70.7661463,48.9412444 L70.7661463,48.3243556 C70.7661463,47.7332444 70.981872,47.2541333 71.4231291,46.8630222 C71.8652777,46.4861333 72.4206377,46.2968 73.103472,46.2968 C73.3058263,46.2968 73.4823291,46.3101333 73.6205006,46.3474667 L73.6205006,47.7705778 C73.4315177,47.7074667 73.2550149,47.6825778 73.1150606,47.6825778 C72.7112434,47.6825778 72.4090491,47.9341333 72.4090491,48.3243556 L72.4090491,48.9412444 L73.6205006,48.9412444 L74.3791063,48.9412444 L74.3791063,48.3243556 C74.3791063,47.7332444 74.5930491,47.2541333 75.0360891,46.8630222 C75.4773463,46.4861333 76.0335977,46.2968 76.7155406,46.2968 C76.9045234,46.2968 77.0810263,46.3101333 77.2450491,46.3474667 L77.2450491,47.7705778 C77.0560663,47.7074667 76.8795634,47.6825778 76.7396091,47.6825778 C76.323312,47.6825778 76.0335977,47.9341333 76.0335977,48.3243556 Z M87.1054971,49.4961778 C87.5351657,49.9619556 87.7491086,50.5530667 87.7491086,51.2712889 L87.7491086,55.1628444 L86.0946171,55.1628444 L86.0946171,51.5104 C86.0946171,50.6917333 85.5775886,50.1255111 84.8073943,50.1255111 C84.0104571,50.1255111 83.4809486,50.6668444 83.4809486,51.5104 L83.4809486,55.1628444 L81.8389371,55.1628444 L81.8389371,46.4232889 L83.4809486,46.4232889 L83.4809486,49.9112889 C83.9222057,49.1815111 84.5667086,48.8152889 85.4251543,48.8152889 C86.1195771,48.8152889 86.6758286,49.0419556 87.1054971,49.4961778 Z M94.983408,48.9415111 L94.983408,52.5806222 C94.983408,53.3752889 94.7186537,54.0304 94.1748823,54.5210667 C93.6320023,55.0250667 92.9250994,55.2757333 92.0541737,55.2757333 C91.1823566,55.2757333 90.4754537,55.0250667 89.9325737,54.5210667 C89.3763223,54.0304 89.0981966,53.3752889 89.0981966,52.5806222 L89.0981966,48.9415111 L90.7410994,48.9415111 L90.7410994,52.5806222 C90.7410994,53.3868444 91.270608,53.9281778 92.0416937,53.9281778 C92.811888,53.9281778 93.342288,53.3868444 93.342288,52.5806222 L93.342288,48.9415111 L94.983408,48.9415111 Z M105.753737,51.0574222 L105.753737,55.1632 L104.100137,55.1632 L104.100137,51.2974222 C104.100137,50.5783111 103.669577,50.1249778 103.000114,50.1249778 C102.331543,50.1249778 101.901874,50.5783111 101.901874,51.2974222 L101.901874,55.1632 L100.247383,55.1632 L100.247383,51.2974222 C100.247383,50.5783111 99.8301943,50.1249778 99.1607314,50.1249778 C98.49216,50.1249778 98.04912,50.5783111 98.04912,51.2974222 L98.04912,55.1632 L96.4088914,55.1632 L96.4088914,48.9418667 L98.04912,48.9418667 L98.04912,49.9365333 C98.4154971,49.1943111 99.02256,48.8156444 99.8801143,48.8156444 C100.739451,48.8156444 101.396434,49.2565333 101.69952,50.0120889 C102.053417,49.2698667 102.74784,48.8156444 103.645509,48.8156444 C104.907771,48.8156444 105.753737,49.7098667 105.753737,51.0574222 Z M110.196082,53.8529778 C110.689042,53.8529778 111.080379,53.6769778 111.396837,53.3374222 C111.712402,52.9960889 111.863945,52.5694222 111.863945,52.0520889 C111.863945,50.9952 111.169522,50.2387556 110.196082,50.2387556 C109.223534,50.2387556 108.516631,50.9952 108.516631,52.0520889 C108.516631,52.5694222 108.680654,52.9960889 108.996219,53.3374222 C109.312677,53.6769778 109.704014,53.8529778 110.196082,53.8529778 Z M111.863945,48.9418667 L113.518437,48.9418667 L113.518437,55.1632 L111.863945,55.1632 L111.863945,54.1552 C111.321065,54.8983111 110.587419,55.2760889 109.665682,55.2760889 C108.844677,55.2760889 108.163625,54.9738667 107.633225,54.3703111 C107.090345,53.7640889 106.823808,52.9960889 106.823808,52.0520889 C106.823808,51.1080889 107.090345,50.3400889 107.633225,49.7232 C108.163625,49.1187556 108.844677,48.8156444 109.665682,48.8156444 C110.587419,48.8156444 111.321065,49.1943111 111.863945,49.9365333 L111.863945,48.9418667 Z M120.295166,49.4961778 C120.712354,49.9619556 120.927189,50.5530667 120.927189,51.2712889 L120.927189,55.1628444 L119.284286,55.1628444 L119.284286,51.5104 C119.284286,50.6668444 118.753886,50.1255111 117.983691,50.1255111 C117.189429,50.1255111 116.670617,50.6917333 116.670617,51.5104 L116.670617,55.1628444 L115.016126,55.1628444 L115.016126,48.9415111 L116.670617,48.9415111 L116.670617,49.8739556 C117.113657,49.1681778 117.756377,48.8152889 118.628194,48.8152889 C119.311029,48.8152889 119.866389,49.0419556 120.295166,49.4961778 Z M122.376651,55.1631111 L122.376651,48.9417778 L124.031143,48.9417778 L124.031143,55.1631111 L122.376651,55.1631111 Z M123.198549,48.1222222 C122.603966,48.1222222 122.20104,47.7328889 122.20104,47.2164444 C122.20104,46.6742222 122.603966,46.2973333 123.198549,46.2973333 C123.488263,46.2973333 123.741429,46.3853333 123.930411,46.548 C124.536583,47.0902222 124.106914,48.1977778 123.198549,48.1222222 Z M127.970633,48.8152 C128.73013,48.8152 129.348782,49.0036444 129.827479,49.3698667 C130.307959,49.7343111 130.547753,50.2134222 130.547753,50.7929778 L129.043913,50.7929778 C129.006473,50.3023111 128.589285,49.9627556 127.984005,49.9627556 C127.427753,49.9627556 127.037307,50.2383111 127.037307,50.6418667 C127.037307,51.0952 127.491936,51.2712 128.540256,51.4854222 C129.108096,51.5858667 129.727639,51.7876444 130.232187,52.1787556 C130.521902,52.4294222 130.736736,52.8454222 130.736736,53.3369778 C130.736736,53.9040889 130.484462,54.3698667 129.992393,54.7343111 C129.486953,55.1005333 128.843342,55.2765333 128.046405,55.2765333 C127.23877,55.2765333 126.580896,55.0872 126.063867,54.7094222 C125.545947,54.3325333 125.293673,53.8525333 125.293673,53.2614222 L126.885765,53.2614222 C126.923205,53.7645333 127.377833,54.1058667 128.034816,54.1058667 C128.640987,54.1058667 129.069765,53.8018667 129.069765,53.3867556 C129.069765,52.9334222 128.616027,52.7698667 127.605147,52.5556444 C127.516005,52.5432 127.453605,52.5316444 127.416165,52.5183111 C126.089719,52.2036444 125.421147,51.6116444 125.421147,50.7174222 C125.421147,50.1512 125.659159,49.6969778 126.127159,49.3449778 C126.594267,48.9920889 127.212919,48.8152 127.970633,48.8152 Z" id="path-1"></path>
        <path d="M131.231657,32.9181333 C131.231657,30.7892444 129.808046,29.2683556 127.875429,29.2683556 C125.86704,29.2683556 124.468389,30.7892444 124.468389,32.9181333 C124.468389,35.0221333 125.917851,36.5430222 127.875429,36.5430222 C129.808046,36.5430222 131.231657,35.0221333 131.231657,32.9181333 M133.010949,28.2283556 C134.07888,29.4701333 134.611954,31.0168 134.611954,32.9181333 C134.611954,34.8194667 134.07888,36.3661333 133.010949,37.5821333 C131.943017,38.7999111 130.571109,39.4079111 128.917509,39.4079111 C127.037486,39.4079111 125.562171,38.6470222 124.468389,37.1528 L124.468389,44.2505778 L121.163863,44.2505778 L121.163863,26.6568 L124.468389,26.6568 L124.468389,28.6585778 C125.562171,27.1643556 127.061554,26.4034667 128.917509,26.4034667 C130.571109,26.4034667 131.918949,27.0114667 133.010949,28.2283556 Z M26.1292869,4.08088889 L26.1292869,5.32266667 L28.5700183,5.32266667 L28.5700183,8.06133333 L26.1292869,8.06133333 L26.1292869,17.8462222 L22.8238697,17.8462222 L22.8238697,8.06133333 L21.0695383,8.06133333 L21.0695383,5.32266667 L22.8238697,5.32266667 L22.8238697,4.08088889 C22.8238697,2.88977778 23.2562126,1.92711111 24.1458583,1.14044444 C25.0363954,0.380444444 26.1542469,0 27.5279383,0 C27.9344297,0 28.2901097,0.0248888889 28.5700183,0.101333333 L28.5700183,2.96622222 C28.1884869,2.84 27.8328069,2.78933333 27.5528983,2.78933333 C26.7399154,2.78933333 26.1292869,3.296 26.1292869,4.08088889 Z M36.651888,7.93502222 C35.6606194,7.93502222 34.8725966,8.2648 34.237008,8.94835556 C33.6014194,9.6328 33.2965509,10.5208 33.2965509,11.5848 C33.2965509,13.6888 34.6943109,15.2096889 36.651888,15.2096889 C38.6103566,15.2096889 40.0330766,13.6888 40.0330766,11.5848 C40.0330766,10.5208 39.728208,9.6328 39.0926194,8.94835556 C38.4570309,8.2648 37.644048,7.93502222 36.651888,7.93502222 Z M36.6777394,5.07013333 C38.6353166,5.07013333 40.2621737,5.67813333 41.5333509,6.89502222 C42.804528,8.1368 43.4401166,9.68346667 43.4401166,11.5848 C43.4401166,13.4861333 42.804528,15.0328 41.5333509,16.2488 C40.2621737,17.4665778 38.6353166,18.0745778 36.6777394,18.0745778 C34.7201623,18.0745778 33.0933051,17.4665778 31.822128,16.2488 C30.5250994,15.0328 29.8904023,13.4861333 29.8904023,11.5848 C29.8904023,9.68346667 30.5250994,8.1368 31.822128,6.89502222 C33.0933051,5.67813333 34.7201623,5.07013333 36.6777394,5.07013333 Z M56.4022011,6.43893333 C57.2410354,7.37671111 57.6733783,8.56782222 57.6733783,10.0131556 L57.6733783,17.8460444 L54.3688526,17.8460444 L54.3688526,10.4949333 C54.3688526,8.79715556 53.3009211,7.70737778 51.7507269,7.70737778 C50.1488297,7.70737778 49.1058583,8.84782222 49.1058583,10.4949333 L49.1058583,17.8460444 L45.7754811,17.8460444 L45.7754811,5.32337778 L49.1058583,5.32337778 L49.1058583,7.19893333 C49.995504,5.78026667 51.2925326,5.07004444 53.0459726,5.07004444 C54.419664,5.07004444 55.5375154,5.52604444 56.4022011,6.43893333 Z M66.6696754,15.2097778 C67.6618354,15.2097778 68.4498583,14.856 69.0845554,14.1706667 C69.7210354,13.4862222 70.025904,12.624 70.025904,11.5848889 C70.025904,9.456 68.6272526,7.93511111 66.6696754,7.93511111 C64.7120983,7.93511111 63.2893783,9.456 63.2893783,11.5848889 C63.2893783,12.624 63.6192069,13.4862222 64.2547954,14.1706667 C64.890384,14.856 65.6784069,15.2097778 66.6696754,15.2097778 Z M70.025904,0.254222222 L73.3562811,0.254222222 L73.3562811,17.8462222 L70.025904,17.8462222 L70.025904,15.8195556 C68.9330126,17.3137778 67.4576983,18.0746667 65.6026354,18.0746667 C63.9499269,18.0746667 62.5771269,17.4666667 61.5091954,16.2488889 C60.416304,15.0328889 59.8823383,13.4862222 59.8823383,11.5848889 C59.8823383,9.68355556 60.416304,8.13688889 61.5091954,6.89511111 C62.5771269,5.67822222 63.9499269,5.07022222 65.6026354,5.07022222 C67.4576983,5.07022222 68.9330126,5.83111111 70.025904,7.32533333 L70.025904,0.254222222 Z M82.4542903,15.2097778 C83.4464503,15.2097778 84.2344731,14.856 84.8691703,14.1706667 C85.5056503,13.4862222 85.8105189,12.624 85.8105189,11.5848889 C85.8105189,9.456 84.4118674,7.93511111 82.4542903,7.93511111 C80.4967131,7.93511111 79.0739931,9.456 79.0739931,11.5848889 C79.0739931,12.624 79.4038217,13.4862222 80.0394103,14.1706667 C80.6749989,14.856 81.4630217,15.2097778 82.4542903,15.2097778 Z M85.8105189,5.32266667 L89.140896,5.32266667 L89.140896,17.8462222 L85.8105189,17.8462222 L85.8105189,15.8195556 C84.7176274,17.3137778 83.2423131,18.0746667 81.3872503,18.0746667 C79.7345417,18.0746667 78.3617417,17.4666667 77.2938103,16.2488889 C76.2009189,15.0328889 75.6669531,13.4862222 75.6669531,11.5848889 C75.6669531,9.68355556 76.2009189,8.13688889 77.2938103,6.89511111 C78.3617417,5.67822222 79.7345417,5.07022222 81.3872503,5.07022222 C83.2423131,5.07022222 84.7176274,5.83111111 85.8105189,7.32533333 L85.8105189,5.32266667 Z M99.5868343,5.32302222 L99.5868343,8.06168889 L96.7895314,8.06168889 L96.7895314,17.8465778 L93.4591543,17.8465778 L93.4591543,8.06168889 L91.1209371,8.06168889 L91.1209371,5.32302222 L93.4591543,5.32302222 L93.4591543,2.05368889 L96.7895314,2.05368889 L96.7895314,5.32302222 L99.5868343,5.32302222 Z M101.541291,17.8466667 L101.541291,5.32311111 L104.87256,5.32311111 L104.87256,17.8466667 L101.541291,17.8466667 Z M103.194,3.676 C102.000377,3.676 101.185611,2.88933333 101.185611,1.85022222 C101.185611,0.760444444 102.000377,0.000444444444 103.194,0.000444444444 C103.779669,0.000444444444 104.287783,0.177333333 104.669314,0.506222222 C105.88968,1.59777778 105.024994,3.828 103.194,3.676 Z M113.972441,7.93502222 C112.982064,7.93502222 112.19315,8.2648 111.55667,8.94835556 C110.921973,9.6328 110.616213,10.5208 110.616213,11.5848 C110.616213,13.6888 112.015755,15.2096889 113.972441,15.2096889 C115.930018,15.2096889 117.35363,13.6888 117.35363,11.5848 C117.35363,10.5208 117.048761,9.6328 116.413173,8.94835556 C115.776693,8.2648 114.96371,7.93502222 113.972441,7.93502222 Z M113.997401,5.07013333 C115.954978,5.07013333 117.581835,5.67813333 118.853904,6.89502222 C120.12419,8.1368 120.759778,9.68346667 120.759778,11.5848 C120.759778,13.4861333 120.12419,15.0328 118.853904,16.2488 C117.581835,17.4665778 115.954978,18.0745778 113.997401,18.0745778 C112.039824,18.0745778 110.412967,17.4665778 109.142681,16.2488 C107.845653,15.0328 107.210064,13.4861333 107.210064,11.5848 C107.210064,9.68346667 107.845653,8.1368 109.142681,6.89502222 C110.412967,5.67813333 112.039824,5.07013333 113.997401,5.07013333 Z M133.723111,6.43893333 C134.561054,7.37671111 134.993397,8.56782222 134.993397,10.0131556 L134.993397,17.8460444 L131.688871,17.8460444 L131.688871,10.4949333 C131.688871,8.79715556 130.621831,7.70737778 129.069854,7.70737778 C127.467957,7.70737778 126.425877,8.84782222 126.425877,10.4949333 L126.425877,17.8460444 L123.096391,17.8460444 L123.096391,5.32337778 L126.425877,5.32337778 L126.425877,7.19893333 C127.316414,5.78026667 128.613442,5.07004444 130.366882,5.07004444 C131.738791,5.07004444 132.858425,5.52604444 133.723111,6.43893333 Z M33.5009554,27.7722667 C34.3656411,28.7100444 34.797984,29.9011556 34.797984,31.3464889 L34.797984,39.1793778 L31.4676069,39.1793778 L31.4676069,31.8282667 C31.4676069,30.1811556 30.4255269,29.0407111 28.8744411,29.0407111 C27.2734354,29.0407111 26.2046126,30.1304889 26.2046126,31.8282667 L26.2046126,39.1793778 L22.9000869,39.1793778 L22.9000869,21.5873778 L26.2046126,21.5873778 L26.2046126,28.6096 C27.0942583,27.1384889 28.3912869,26.4033778 30.1206583,26.4033778 C31.5184183,26.4033778 32.6362697,26.8593778 33.5009554,27.7722667 Z M43.7432914,36.5431111 C44.73456,36.5431111 45.5234743,36.1893333 46.1581714,35.504 C46.79376,34.8195556 47.09952,33.9573333 47.09952,32.9182222 C47.09952,30.7893333 45.7008686,29.2684444 43.7432914,29.2684444 C41.7857143,29.2684444 40.3629943,30.7893333 40.3629943,32.9182222 C40.3629943,33.9573333 40.6928229,34.8195556 41.3284114,35.504 C41.964,36.1893333 42.7520229,36.5431111 43.7432914,36.5431111 Z M47.09952,26.656 L50.4290057,26.656 L50.4290057,39.1795556 L47.09952,39.1795556 L47.09952,37.1528889 C46.0066286,38.6471111 44.5313143,39.408 42.67536,39.408 C41.0235429,39.408 39.6498514,38.8 38.5828114,37.5822222 C37.48992,36.3662222 36.9559543,34.8195556 36.9559543,32.9182222 C36.9559543,31.0168889 37.48992,29.4702222 38.5828114,28.2284444 C39.6498514,27.0115556 41.0235429,26.4035556 42.67536,26.4035556 C44.5313143,26.4035556 46.0066286,27.1644444 47.09952,28.6586667 L47.09952,26.656 Z M64.07856,27.7722667 C64.9173943,28.7100444 65.3497371,29.9011556 65.3497371,31.3464889 L65.3497371,39.1793778 L62.04432,39.1793778 L62.04432,31.8282667 C62.04432,30.1304889 60.97728,29.0407111 59.4261943,29.0407111 C57.8242971,29.0407111 56.7822171,30.1811556 56.7822171,31.8282667 L56.7822171,39.1793778 L53.45184,39.1793778 L53.45184,26.6567111 L56.7822171,26.6567111 L56.7822171,28.5322667 C57.6718629,27.1136 58.9688914,26.4033778 60.7223314,26.4033778 C62.0951314,26.4033778 63.2138743,26.8593778 64.07856,27.7722667 Z M74.3461234,36.5431111 C75.337392,36.5431111 76.1263063,36.1893333 76.7610034,35.504 C77.396592,34.8195556 77.702352,33.9573333 77.702352,32.9182222 C77.702352,30.7893333 76.3037006,29.2684444 74.3461234,29.2684444 C72.3885463,29.2684444 70.9658263,30.7893333 70.9658263,32.9182222 C70.9658263,33.9573333 71.2956549,34.8195556 71.9312434,35.504 C72.566832,36.1893333 73.3548549,36.5431111 74.3461234,36.5431111 Z M77.702352,21.5875556 L81.0318377,21.5875556 L81.0318377,39.1795556 L77.702352,39.1795556 L77.702352,37.1528889 C76.6094606,38.6471111 75.1341463,39.408 73.278192,39.408 C71.6263749,39.408 70.2526834,38.8 69.1856434,37.5822222 C68.092752,36.3662222 67.5587863,34.8195556 67.5587863,32.9182222 C67.5587863,31.0168889 68.092752,29.4702222 69.1856434,28.2284444 C70.2526834,27.0115556 71.6263749,26.4035556 73.278192,26.4035556 C75.1341463,26.4035556 76.6094606,27.1644444 77.702352,28.6586667 L77.702352,21.5875556 Z M84.0550286,39.18 L84.0550286,26.6564444 L87.3854057,26.6564444 L87.3854057,39.18 L84.0550286,39.18 Z M85.7068457,25.0093333 C84.5123314,25.0093333 83.6984571,24.2226667 83.6984571,23.1835556 C83.6984571,22.0937778 84.5123314,21.3337778 85.7068457,21.3337778 C86.2916229,21.3337778 86.7997371,21.5106667 87.18216,21.8395556 C88.4025257,22.9311111 87.53784,25.1613333 85.7068457,25.0093333 Z M103.120368,33.9076444 C102.942974,35.5040889 102.255682,36.8214222 101.010357,37.8623111 C99.7641394,38.9014222 98.265648,39.4072 96.5104251,39.4072 C94.552848,39.4072 92.9250994,38.7992 91.6548137,37.5823111 C90.3586766,36.3663111 89.7221966,34.8187556 89.7221966,32.9183111 C89.7221966,31.0169778 90.3586766,29.4703111 91.6548137,28.2276444 C92.9250994,27.0116444 94.552848,26.4036444 96.5104251,26.4036444 C98.265648,26.4036444 99.7641394,26.9103111 101.010357,27.9494222 C102.255682,28.9894222 102.942974,30.3325333 103.120368,31.9298667 L99.7641394,31.9298667 C99.4334194,30.3832 98.1372823,29.2685333 96.5362766,29.2685333 C94.527888,29.2685333 93.1292366,30.7894222 93.1292366,32.9183111 C93.1292366,35.0223111 94.5786994,36.5432 96.5362766,36.5432 C98.1372823,36.5432 99.4601623,35.4534222 99.7908823,33.9076444 L103.120368,33.9076444 Z M111.480987,36.5431111 C112.473147,36.5431111 113.26117,36.1893333 113.896759,35.504 C114.533239,34.8195556 114.837216,33.9573333 114.837216,32.9182222 C114.837216,30.7893333 113.438565,29.2684444 111.480987,29.2684444 C109.524302,29.2684444 108.10069,30.7893333 108.10069,32.9182222 C108.10069,33.9573333 108.430519,34.8195556 109.066999,35.504 C109.702587,36.1893333 110.49061,36.5431111 111.480987,36.5431111 Z M114.837216,26.656 L118.168485,26.656 L118.168485,39.1795556 L114.837216,39.1795556 L114.837216,37.1528889 C113.744325,38.6471111 112.269902,39.408 110.414839,39.408 C108.761239,39.408 107.388439,38.8 106.320507,37.5822222 C105.227616,36.3662222 104.69365,34.8195556 104.69365,32.9182222 C104.69365,31.0168889 105.227616,29.4702222 106.320507,28.2284444 C107.388439,27.0115556 108.761239,26.4035556 110.414839,26.4035556 C112.269902,26.4035556 113.744325,27.1644444 114.837216,28.6586667 L114.837216,26.656 Z" id="path-3"></path>
    </defs>
    <g id="🧬-Logos/Product-MH/Fondation-handicap" stroke="none" stroke-width="1" fill="none" fill-rule="evenodd">
        <mask id="mask-2" fill="white">
            <use xlink:href="#path-1"></use>
        </mask>
        <use id="Mask" fill="#FF4B33" xlink:href="#path-1"></use>
        <mask id="mask-4" fill="white">
            <use xlink:href="#path-3"></use>
        </mask>
        <use id="Mask" fill="#1A283E" xlink:href="#path-3"></use>
    </g>
</svg>