<?xml version="1.0" encoding="UTF-8"?>
<svg width="261px" height="40px" viewBox="0 0 261 40" version="1.1" xmlns="http://www.w3.org/2000/svg" xmlns:xlink="http://www.w3.org/1999/xlink">
    <!-- Generator: Sketch 58 (84663) - https://sketch.com -->
    <title>🧬 Logos/Product MH/Fondation handicap 1ligne@3x</title>
    <desc>Created with Sketch.</desc>
    <defs>
        <path d="M195.839384,31.4123659 C196.847958,31.4123659 197.669495,31.6628238 198.30518,32.1495627 C198.943233,32.6339388 199.261668,33.2707162 199.261668,34.0409924 L197.264645,34.0409924 C197.214927,33.3888567 196.660922,32.9375599 195.857141,32.9375599 C195.118467,32.9375599 194.599975,33.3037955 194.599975,33.8401535 C194.599975,34.4426701 195.203699,34.6765883 196.595814,34.961307 C197.349877,35.0948058 198.172598,35.3629847 198.842613,35.882803 C199.227339,36.2159593 199.512627,36.7688569 199.512627,37.4221739 C199.512627,38.1759104 199.17762,38.7949667 198.524178,39.2793429 C197.85298,39.7660818 196.998297,40 195.940005,40 C194.867508,40 193.993884,39.7483607 193.307297,39.2462635 C192.619525,38.7453477 192.284518,38.1073889 192.284518,37.3217545 L194.398734,37.3217545 C194.448452,37.9904298 195.052176,38.4440894 195.924616,38.4440894 C196.72958,38.4440894 197.298975,38.0400488 197.298975,37.4883326 C197.298975,36.885816 196.696435,36.6684374 195.354038,36.3837188 C195.235661,36.3671791 195.152797,36.3518209 195.103078,36.3340998 C193.341626,35.9158824 192.453797,35.1290665 192.453797,33.9405729 C192.453797,33.1880178 192.769864,32.5843198 193.391344,32.1164834 C194.011641,31.6474655 194.833178,31.4123659 195.839384,31.4123659 Z M171.531344,31.4129566 C172.755364,31.4129566 173.729608,31.9162352 174.450525,32.9027085 L174.450525,31.5807161 L176.647605,31.5807161 L176.647605,39.8493708 L174.450525,39.8493708 L174.450525,38.5096574 C173.729608,39.4973121 172.755364,39.9994093 171.531344,39.9994093 C170.44109,39.9994093 169.536689,39.5977315 168.832345,38.7955574 C168.111428,37.9898391 167.75748,36.9691051 167.75748,35.7144528 C167.75748,34.4598005 168.111428,33.4390664 168.832345,32.6191713 C169.536689,31.8158157 170.44109,31.4129566 171.531344,31.4129566 Z M93.086823,31.4129566 C94.3108429,31.4129566 95.2839031,31.9162352 96.0060038,32.9027085 L96.0060038,31.5807161 L98.203084,31.5807161 L98.203084,39.8493708 L96.0060038,39.8493708 L96.0060038,38.5096574 C95.2839031,39.4973121 94.3108429,39.9994093 93.086823,39.9994093 C91.9965693,39.9994093 91.090984,39.5977315 90.3878237,38.7955574 C89.665723,37.9898391 89.3117753,36.9691051 89.3117753,35.7144528 C89.3117753,34.4598005 89.665723,33.4390664 90.3878237,32.6191713 C91.090984,31.8158157 91.9965693,31.4129566 93.086823,31.4129566 Z M78.5173169,31.4129566 C79.7413368,31.4129566 80.7143971,31.9162352 81.4364978,32.9027085 L81.4364978,31.5807161 L83.6335779,31.5807161 L83.6335779,39.8493708 L81.4364978,39.8493708 L81.4364978,38.5096574 C80.7143971,39.4973121 79.7413368,39.9994093 78.5173169,39.9994093 C77.4270633,39.9994093 76.521478,39.5977315 75.8183176,38.7955574 C75.0962169,37.9898391 74.7422692,36.9691051 74.7422692,35.7144528 C74.7422692,34.4598005 75.0962169,33.4390664 75.8183176,32.6191713 C76.521478,31.8158157 77.4270633,31.4129566 78.5173169,31.4129566 Z M113.321978,31.412484 C114.613473,31.412484 115.687154,31.8153432 116.524081,32.6186987 C117.363375,33.4385939 117.783614,34.4605093 117.783614,35.7151616 C117.783614,36.9698139 117.363375,37.990548 116.524081,38.7950849 C115.687154,39.5984404 114.613473,39.9989367 113.321978,39.9989367 C112.0293,39.9989367 110.956803,39.5984404 110.118692,38.7950849 C109.261642,37.990548 108.84377,36.9698139 108.84377,35.7151616 C108.84377,34.4605093 109.261642,33.4385939 110.118692,32.6186987 C110.956803,31.8153432 112.0293,31.412484 113.321978,31.412484 Z M146.400464,31.5802436 L146.400464,36.4169163 C146.400464,37.4884508 147.103625,38.2079265 148.127587,38.2079265 C149.150366,38.2079265 149.85471,37.4884508 149.85471,36.4169163 L149.85471,31.5802436 L152.034033,31.5802436 L152.034033,36.4169163 C152.034033,37.4730925 151.682453,38.3437881 150.960353,38.9959238 C150.239436,39.6657805 149.300705,39.9989367 148.14416,39.9989367 C146.986431,39.9989367 146.0477,39.6657805 145.326783,38.9959238 C144.58811,38.3437881 144.218773,37.4730925 144.218773,36.4169163 L144.218773,31.5802436 L146.400464,31.5802436 Z M163.536861,31.4129566 C165.213081,31.4129566 166.336481,32.6014502 166.336481,34.3924604 L166.336481,39.8493708 L164.140584,39.8493708 L164.140584,34.7114398 C164.140584,33.755683 163.568823,33.1531664 162.67981,33.1531664 C161.791981,33.1531664 161.221403,33.755683 161.221403,34.7114398 L161.221403,39.8493708 L159.024323,39.8493708 L159.024323,34.7114398 C159.024323,33.755683 158.470318,33.1531664 157.581306,33.1531664 C156.693477,33.1531664 156.105142,33.755683 156.105142,34.7114398 L156.105142,39.8493708 L153.927003,39.8493708 L153.927003,31.5807161 L156.105142,31.5807161 L156.105142,32.9027085 C156.591673,31.9162352 157.397821,31.4129566 158.536609,31.4129566 C159.677765,31.4129566 160.550205,31.9989335 160.952687,33.0031279 C161.422645,32.0166546 162.344803,31.4129566 163.536861,31.4129566 Z M70.5234255,31.4129566 C72.2008299,31.4129566 73.3242292,32.6014502 73.3242292,34.3924604 L73.3242292,39.8493708 L71.127149,39.8493708 L71.127149,34.7114398 C71.127149,33.755683 70.5565711,33.1531664 69.6675586,33.1531664 C68.7797299,33.1531664 68.209152,33.755683 68.209152,34.7114398 L68.209152,39.8493708 L66.0120718,39.8493708 L66.0120718,34.7114398 C66.0120718,33.755683 65.4580667,33.1531664 64.5690542,33.1531664 C63.6800417,33.1531664 63.092891,33.755683 63.092891,34.7114398 L63.092891,39.8493708 L60.9135674,39.8493708 L60.9135674,31.5807161 L63.092891,31.5807161 L63.092891,32.9027085 C63.5794211,31.9162352 64.3855696,31.4129566 65.5243579,31.4129566 C66.6655138,31.4129566 67.5379534,31.9989335 67.9404358,33.0031279 C68.4103931,32.0166546 69.3325512,31.4129566 70.5234255,31.4129566 Z M87.7879061,28.2336771 L87.7879061,39.8492527 L85.6085825,39.8492527 L85.6085825,28.2336771 L87.7879061,28.2336771 Z M190.607942,31.580598 L190.607942,39.8492527 L188.410862,39.8492527 L188.410862,31.580598 L190.607942,31.580598 Z M127.775238,28.0652088 C128.026198,28.0652088 128.260585,28.0829298 128.478399,28.1325489 L128.478399,30.0239785 C128.227439,29.9400988 127.993052,29.9070194 127.8072,29.9070194 C127.254379,29.9070194 126.869653,30.2413571 126.869653,30.7599939 L126.869653,31.5798891 L128.478399,31.5798891 L128.478399,33.3886204 L126.869653,33.3886204 L126.869653,39.8485439 L124.672573,39.8485439 L124.672573,33.3886204 L122.056437,33.3886204 L122.056437,39.8485439 L119.874746,39.8485439 L119.874746,33.3886204 L118.718201,33.3886204 L118.718201,31.5798891 L119.874746,31.5798891 L119.874746,30.7599939 C119.874746,29.9743595 120.161219,29.3375821 120.747186,28.8177639 C121.334337,28.3168481 122.071826,28.0652088 122.978596,28.0652088 C123.247312,28.0652088 123.481698,28.0829298 123.665183,28.1325489 L123.665183,30.0239785 C123.414223,29.9400988 123.179837,29.9070194 122.993985,29.9070194 C122.457736,29.9070194 122.056437,30.2413571 122.056437,30.7599939 L122.056437,31.5798891 L124.672573,31.5798891 L124.672573,30.7599939 C124.672573,29.9743595 124.956678,29.3375821 125.545012,28.8177639 C126.130979,28.3168481 126.869653,28.0652088 127.775238,28.0652088 Z M102.35682,28.2333227 L102.35682,35.1799851 L105.444097,31.5802436 L108.025903,31.5802436 L104.537328,35.5143227 L108.025903,39.8488983 L105.444097,39.8488983 L102.35682,35.8829212 L102.35682,39.8488983 L100.177497,39.8488983 L100.177497,28.2333227 L102.35682,28.2333227 Z M183.433102,31.412484 C184.339871,31.412484 185.077361,31.7137423 185.646755,32.3174404 C186.20076,32.9364967 186.486049,33.7221311 186.486049,34.6767065 L186.486049,39.8488983 L184.304358,39.8488983 L184.304358,34.9945045 C184.304358,33.873351 183.600014,33.1538752 182.577235,33.1538752 C181.522495,33.1538752 180.83354,33.9064303 180.83354,34.9945045 L180.83354,39.8488983 L178.63646,39.8488983 L178.63646,31.5802436 L180.83354,31.5802436 L180.83354,32.8195376 C181.421874,31.8815019 182.275374,31.412484 183.433102,31.412484 Z M136.759355,28.2333227 L136.759355,32.8691566 C137.345322,31.8992229 138.201188,31.412484 139.34116,31.412484 C140.263319,31.412484 141.001992,31.7137423 141.57257,32.3174404 C142.143148,32.9364967 142.427253,33.7221311 142.427253,34.6767065 L142.427253,39.8488983 L140.230173,39.8488983 L140.230173,34.9945045 C140.230173,33.9064303 139.543585,33.1538752 138.520807,33.1538752 C137.462515,33.1538752 136.759355,33.873351 136.759355,34.9945045 L136.759355,39.8488983 L134.578847,39.8488983 L134.578847,28.2333227 L136.759355,28.2333227 Z M79.221661,33.3043862 C77.9301662,33.3043862 76.9914353,34.309762 76.9914353,35.7144528 C76.9914353,36.4020306 77.2080655,36.9691051 77.6283044,37.4227646 C78.0473596,37.8740614 78.5682191,38.1079796 79.221661,38.1079796 C79.875103,38.1079796 80.3959625,37.8740614 80.8150177,37.4227646 C81.2352566,36.9691051 81.4364978,36.4020306 81.4364978,35.7144528 C81.4364978,34.309762 80.5131559,33.3043862 79.221661,33.3043862 Z M113.304222,33.3039137 C112.65078,33.3039137 112.12992,33.5224736 111.710865,33.9737704 C111.292994,34.4250672 111.091753,35.0122255 111.091753,35.7151616 C111.091753,37.1044941 112.012727,38.1075071 113.304222,38.1075071 C114.595717,38.1075071 115.535631,37.1044941 115.535631,35.7151616 C115.535631,35.0122255 115.33439,34.4250672 114.915335,33.9737704 C114.495096,33.5224736 113.957664,33.3039137 113.304222,33.3039137 Z M93.7911671,33.3043862 C92.4996723,33.3043862 91.5609414,34.309762 91.5609414,35.7144528 C91.5609414,36.4020306 91.7775716,36.9691051 92.1978105,37.4227646 C92.6168657,37.8740614 93.1377252,38.1079796 93.7911671,38.1079796 C94.4446091,38.1079796 94.9654686,37.8740614 95.3845237,37.4227646 C95.8047627,36.9691051 96.0060038,36.4020306 96.0060038,35.7144528 C96.0060038,34.309762 95.082662,33.3043862 93.7911671,33.3043862 Z M172.235688,33.3043862 C170.944193,33.3043862 170.005462,34.309762 170.005462,35.7144528 C170.005462,36.4020306 170.223276,36.9691051 170.642332,37.4227646 C171.06257,37.8740614 171.582246,38.1079796 172.235688,38.1079796 C172.890314,38.1079796 173.40999,37.8740614 173.830229,37.4227646 C174.249284,36.9691051 174.450525,36.4020306 174.450525,35.7144528 C174.450525,34.309762 173.528367,33.3043862 172.235688,33.3043862 Z M189.502299,28.0659176 C189.887025,28.0659176 190.223216,28.1828767 190.474176,28.3990739 C191.279141,29.119731 190.708563,30.5917619 189.502299,30.4913424 C188.712724,30.4913424 188.177659,29.973887 188.177659,29.2874906 C188.177659,28.5668334 188.712724,28.0659176 189.502299,28.0659176 Z M251.642934,0 C251.642934,0 261,2.13393122 261,11.8731093 C261,21.2953475 251.642934,23.7462187 251.642934,23.7462187 C251.642934,23.7462187 256.175345,19.8090762 256.175345,11.8731093 C256.175345,3.84330725 251.642934,0 251.642934,0 Z M9.35706577,0 C9.35706577,0 4.82465476,3.93714248 4.82465476,11.8731093 C4.82465476,19.9029114 9.35706577,23.7462187 9.35706577,23.7462187 C9.35706577,23.7462187 0,21.6122874 0,11.8731093 C0,2.45087119 9.35706577,0 9.35706577,0 Z" id="path-1"></path>
        <path d="M242.298534,7.08809452 C243.954173,7.08809452 245.303674,7.69830188 246.39702,8.91960871 C247.466269,10.1658948 248,11.7181767 248,13.6264128 C248,15.534649 247.466269,17.0869309 246.39702,18.3073456 C245.327772,19.5295446 243.954173,20.1397519 242.298534,20.1397519 C240.416193,20.1397519 238.93906,19.3761006 237.843929,17.8764536 L237.843929,25 L234.535329,25 L234.535329,7.34234758 L237.843929,7.34234758 L237.843929,9.35139286 C238.93906,7.85174583 240.440291,7.08809452 242.298534,7.08809452 Z M74.3920749,7.08862979 C76.2494248,7.08862979 77.7265579,7.8522811 78.8207967,9.35192813 L78.8207967,7.34199074 L82.1552797,7.34199074 L82.1552797,19.9110134 L78.8207967,19.9110134 L78.8207967,17.8769888 C77.7265579,19.3766359 76.2494248,20.1402872 74.3920749,20.1402872 C72.7373288,20.1402872 71.3628363,19.5300798 70.2935883,18.3078809 C69.1993495,17.0874662 68.6647255,15.5351843 68.6647255,13.6269481 C68.6647255,11.7187119 69.1993495,10.1664301 70.2935883,8.92014398 C71.3628363,7.69883715 72.7373288,7.08862979 74.3920749,7.08862979 Z M107.042429,7.08854058 C109.00242,7.08854058 110.631283,7.69874793 111.90492,8.92005477 C113.176771,10.1663409 113.813143,11.7186227 113.813143,13.6268589 C113.813143,15.5350951 113.176771,17.0873769 111.90492,18.3077917 C110.631283,19.5299906 109.00242,20.140198 107.042429,20.140198 C105.082439,20.140198 103.453576,19.5299906 102.181724,18.3077917 C100.883097,17.0873769 100.246724,15.5350951 100.246724,13.6268589 C100.246724,11.7186227 100.883097,10.1663409 102.181724,8.92005477 C103.453576,7.69874793 105.082439,7.08854058 107.042429,7.08854058 Z M66.3512048,2.25514518 L66.3512048,19.9110134 L63.0167218,19.9110134 L63.0167218,17.8769888 C61.922483,19.3766359 60.4453498,20.1402872 58.5879999,20.1402872 C56.9332538,20.1402872 55.5587614,19.5300798 54.4895133,18.3078809 C53.3952745,17.0874662 52.8606505,15.5351843 52.8606505,13.6269481 C52.8606505,11.7187119 53.3952745,10.1664301 54.4895133,8.92014398 C55.5587614,7.69883715 56.9332538,7.08862979 58.5879999,7.08862979 C60.4453498,7.08862979 61.922483,7.8522811 63.0167218,9.35192813 L63.0167218,2.25514518 L66.3512048,2.25514518 Z M29.6274438,7.08854058 C31.5874343,7.08854058 33.2162971,7.69874793 34.4890415,8.92005477 C35.7617858,10.1663409 36.3981579,11.7186227 36.3981579,13.6268589 C36.3981579,15.5350951 35.7617858,17.0873769 34.4890415,18.3077917 C33.2162971,19.5299906 31.5874343,20.140198 29.6274438,20.140198 C27.6674532,20.140198 26.0385904,19.5299906 24.7658461,18.3077917 C23.4672185,17.0873769 22.8317388,15.5350951 22.8317388,13.6268589 C22.8317388,11.7186227 23.4672185,10.1663409 24.7658461,8.92005477 C26.0385904,7.69874793 27.6674532,7.08854058 29.6274438,7.08854058 Z M223.773053,7.08818373 C225.630403,7.08818373 227.106644,7.85183504 228.200882,9.35148208 L228.200882,7.34154468 L231.536258,7.34154468 L231.536258,19.9105673 L228.200882,19.9105673 L228.200882,17.8765428 C227.106644,19.3761898 225.630403,20.1398411 223.773053,20.1398411 C222.117414,20.1398411 220.742922,19.5296338 219.673674,18.3074348 C218.579435,17.0870201 218.044811,15.5347382 218.044811,13.6265021 C218.044811,11.7182659 218.579435,10.165984 219.673674,8.91969792 C220.742922,7.69839109 222.117414,7.08818373 223.773053,7.08818373 Z M194.353827,2.25469912 L194.353827,19.9105673 L191.020236,19.9105673 L191.020236,17.8765428 C189.925998,19.3761898 188.448865,20.1398411 186.590622,20.1398411 C184.936769,20.1398411 183.561384,19.5296338 182.493028,18.3074348 C181.398789,17.0870201 180.864165,15.5347382 180.864165,13.6265021 C180.864165,11.7182659 181.398789,10.165984 182.493028,8.91969792 C183.561384,7.69839109 184.936769,7.08818373 186.590622,7.08818373 C188.448865,7.08818373 189.925998,7.85183504 191.020236,9.35148208 L191.020236,2.25469912 L194.353827,2.25469912 Z M209.851497,7.08827294 C211.608884,7.08827294 213.109223,7.59677907 214.356976,8.6396627 C215.603837,9.68343845 216.291976,11.0314258 216.469589,12.6345582 L213.109223,12.6345582 C212.778095,11.0822764 211.48036,9.96356288 209.877381,9.96356288 C207.866516,9.96356288 206.46614,11.4899734 206.46614,13.6265913 C206.46614,15.7382299 207.91739,17.2646404 209.877381,17.2646404 C211.48036,17.2646404 212.804871,16.1709062 213.135999,14.6195164 L216.469589,14.6195164 C216.291976,16.2217568 215.603837,17.5438727 214.356976,18.5885406 C213.109223,19.6314242 211.608884,20.1390382 209.851497,20.1390382 C207.891507,20.1390382 206.261751,19.5288309 204.9899,18.307524 C203.692164,17.0871093 203.0549,15.5339353 203.0549,13.6265913 C203.0549,11.7183551 203.692164,10.1660732 204.9899,8.91889502 C206.261751,7.6984803 207.891507,7.08827294 209.851497,7.08827294 Z M155.950061,7.08818373 C157.808304,7.08818373 159.285437,7.85183504 160.379676,9.35148208 L160.379676,7.34154468 L163.713266,7.34154468 L163.713266,19.9105673 L160.379676,19.9105673 L160.379676,17.8765428 C159.285437,19.3761898 157.808304,20.1398411 155.950061,20.1398411 C154.296208,20.1398411 152.920823,19.5296338 151.852467,18.3074348 C150.758228,17.0870201 150.223604,15.5347382 150.223604,13.6265021 C150.223604,11.7182659 150.758228,10.165984 151.852467,8.91969792 C152.920823,7.69839109 154.296208,7.08818373 155.950061,7.08818373 Z M200.715228,7.34199074 L200.715228,19.9110134 L197.380745,19.9110134 L197.380745,7.34199074 L200.715228,7.34199074 Z M97.9063386,7.3424368 L97.9063386,19.9114594 L94.5709631,19.9114594 L94.5709631,7.3424368 L97.9063386,7.3424368 Z M89.8133448,4.06114486 L89.8133448,7.34234758 L92.6140963,7.34234758 L92.6140963,10.090957 L89.8133448,10.090957 L89.8133448,19.9113702 L86.4788618,19.9113702 L86.4788618,10.090957 L84.137762,10.090957 L84.137762,7.34234758 L86.4788618,7.34234758 L86.4788618,4.06114486 L89.8133448,4.06114486 Z M20.4663623,2 C20.8733548,2 21.2294733,2.02497925 21.509727,2.10170123 L21.509727,4.97699116 C21.1277252,4.85031069 20.7716067,4.79946008 20.491353,4.79946008 C19.6773679,4.79946008 19.0659865,5.30796621 19.0659865,6.09570466 L19.0659865,7.34199074 L21.509727,7.34199074 L21.509727,10.0906002 L19.0659865,10.0906002 L19.0659865,19.9110134 L15.7564943,19.9110134 L15.7564943,10.0906002 L14,10.0906002 L14,7.34199074 L15.7564943,7.34199074 L15.7564943,6.09570466 C15.7564943,4.90026919 16.1893701,3.93410753 17.0801127,3.14458486 C17.9717477,2.38182566 19.0909773,2 20.4663623,2 Z M123.432092,7.08845136 C124.805692,7.08845136 125.926706,7.54610688 126.792458,8.46231004 C127.631434,9.40349244 128.06431,10.5989279 128.06431,12.0495086 L128.06431,19.9108349 L124.75571,19.9108349 L124.75571,12.5330354 C124.75571,10.8290938 123.687355,9.7353596 122.133464,9.7353596 C120.529592,9.7353596 119.486227,10.8799445 119.486227,12.5330354 L119.486227,19.9108349 L116.152637,19.9108349 L116.152637,7.34270443 L119.486227,7.34270443 L119.486227,9.22506924 C120.377862,7.80125207 121.67649,7.08845136 123.432092,7.08845136 Z M46.0158566,7.08845136 C47.3912415,7.08845136 48.5104711,7.54610688 49.3762229,8.46231004 C50.2160913,9.40349244 50.6489672,10.5989279 50.6489672,12.0495086 L50.6489672,19.9108349 L47.3403675,19.9108349 L47.3403675,12.5330354 C47.3403675,10.8290938 46.2711194,9.7353596 44.719014,9.7353596 C43.1151419,9.7353596 42.0708847,10.8799445 42.0708847,12.5330354 L42.0708847,19.9108349 L38.7364017,19.9108349 L38.7364017,7.34270443 L42.0708847,7.34270443 L42.0708847,9.22506924 C42.9616272,7.80125207 44.2602548,7.08845136 46.0158566,7.08845136 Z M174.019282,7.08800531 C175.393774,7.08800531 176.513897,7.54566083 177.379648,8.46186398 C178.219517,9.40304638 178.652393,10.5984819 178.652393,12.0490625 L178.652393,19.9103889 L175.3429,19.9103889 L175.3429,12.5325894 C175.3429,10.8286478 174.274545,9.73491354 172.721547,9.73491354 C171.117675,9.73491354 170.07431,10.8794984 170.07431,12.5325894 L170.07431,19.9103889 L166.739827,19.9103889 L166.739827,7.34225837 L170.07431,7.34225837 L170.07431,9.22462318 C170.965053,7.80080601 172.26368,7.08800531 174.019282,7.08800531 Z M139.459008,2.2545207 L139.459008,9.30223727 C140.34975,7.82578526 141.648378,7.08800531 143.379882,7.08800531 C144.779365,7.08800531 145.898594,7.54566083 146.764346,8.46186398 C147.630098,9.40304638 148.062974,10.5984819 148.062974,12.0490625 L148.062974,19.9103889 L144.728491,19.9103889 L144.728491,12.5325894 C144.728491,10.8794984 143.685126,9.73491354 142.132128,9.73491354 C140.529148,9.73491354 139.459008,10.8286478 139.459008,12.5325894 L139.459008,19.9103889 L136.150408,19.9103889 L136.150408,2.2545207 L139.459008,2.2545207 Z M224.840516,9.96347367 C222.881418,9.96347367 221.456051,11.4898842 221.456051,13.6265021 C221.456051,14.6693857 221.786287,15.5347382 222.423551,16.2216676 C223.059924,16.909489 223.848918,17.2645512 224.840516,17.2645512 C225.833899,17.2645512 226.622894,16.909489 227.259266,16.2216676 C227.89653,15.5347382 228.200882,14.6693857 228.200882,13.6265021 C228.200882,11.4898842 226.800507,9.96347367 224.840516,9.96347367 Z M75.4604304,9.96391973 C73.5004399,9.96391973 72.0759659,11.4903302 72.0759659,13.6269481 C72.0759659,14.6698317 72.4062011,15.5351843 73.0425732,16.2221136 C73.6789454,16.9099351 74.4679398,17.2649972 75.4604304,17.2649972 C76.4538136,17.2649972 77.242808,16.9099351 77.8782876,16.2221136 C78.5155523,15.5351843 78.8207967,14.6698317 78.8207967,13.6269481 C78.8207967,11.4903302 77.420421,9.96391973 75.4604304,9.96391973 Z M59.6563554,9.96391973 C57.6963649,9.96391973 56.2718909,11.4903302 56.2718909,13.6269481 C56.2718909,14.6698317 56.6021261,15.5351843 57.2384983,16.2221136 C57.8748704,16.9099351 58.6638648,17.2649972 59.6563554,17.2649972 C60.6497386,17.2649972 61.438733,16.9099351 62.0742126,16.2221136 C62.7114773,15.5351843 63.0167218,14.6698317 63.0167218,13.6269481 C63.0167218,11.4903302 61.616346,9.96391973 59.6563554,9.96391973 Z M29.6015605,9.96383051 C28.6090698,9.96383051 27.8200754,10.2948056 27.1837033,10.9808428 C26.5473311,11.6677721 26.2420867,12.558996 26.2420867,13.6268589 C26.2420867,15.7384975 27.6415699,17.264908 29.6015605,17.264908 C31.5624436,17.264908 32.9869176,15.7384975 32.9869176,13.6268589 C32.9869176,12.558996 32.6816731,11.6677721 32.045301,10.9808428 C31.4089288,10.2948056 30.5949437,9.96383051 29.6015605,9.96383051 Z M157.019309,9.96347367 C155.059319,9.96347367 153.634845,11.4898842 153.634845,13.6265021 C153.634845,14.6693857 153.96508,15.5347382 154.601452,16.2216676 C155.237824,16.909489 156.026819,17.2645512 157.019309,17.2645512 C158.0118,17.2645512 158.801687,16.909489 159.437167,16.2216676 C160.073539,15.5347382 160.379676,14.6693857 160.379676,13.6265021 C160.379676,11.4898842 158.9793,9.96347367 157.019309,9.96347367 Z M107.017439,9.96383051 C106.02584,9.96383051 105.235954,10.2948056 104.598689,10.9808428 C103.963209,11.6677721 103.657072,12.558996 103.657072,13.6268589 C103.657072,15.7384975 105.058341,17.264908 107.017439,17.264908 C108.977429,17.264908 110.402796,15.7384975 110.402796,13.6268589 C110.402796,12.558996 110.097551,11.6677721 109.461179,10.9808428 C108.823914,10.2948056 108.009929,9.96383051 107.017439,9.96383051 Z M241.255169,9.96338446 C239.244305,9.96338446 237.843929,11.489795 237.843929,13.6264128 C237.843929,15.7380515 239.295179,17.264462 241.255169,17.264462 C243.190169,17.264462 244.615535,15.7380515 244.615535,13.6264128 C244.615535,11.489795 243.190169,9.96338446 241.255169,9.96338446 Z M187.65987,9.96347367 C185.69988,9.96347367 184.275406,11.4898842 184.275406,13.6265021 C184.275406,14.6693857 184.605641,15.5347382 185.242013,16.2216676 C185.878385,16.909489 186.66738,17.2645512 187.65987,17.2645512 C188.652361,17.2645512 189.442248,16.909489 190.077727,16.2216676 C190.7141,15.5347382 191.020236,14.6693857 191.020236,13.6265021 C191.020236,11.4898842 189.619861,9.96347367 187.65987,9.96347367 Z M96.2257092,2.00044606 C96.8120998,2.00044606 97.3208405,2.17797715 97.7028423,2.50806007 C98.9247126,3.60357855 98.0589608,5.84189765 96.2257092,5.68934581 C95.0306148,5.68934581 94.2148446,4.89982313 94.2148446,3.8569395 C94.2148446,2.76320526 95.0306148,2.00044606 96.2257092,2.00044606 Z M199.034599,2 C199.620097,2 200.128837,2.17753109 200.511732,2.50761402 C201.733602,3.60313249 200.86785,5.84145159 199.034599,5.68889975 C197.838612,5.68889975 197.023734,4.89937707 197.023734,3.85649344 C197.023734,2.7627592 197.838612,2 199.034599,2 Z" id="path-3"></path>
    </defs>
    <g id="🧬-Logos/Product-MH/Fondation-handicap-1ligne" stroke="none" stroke-width="1" fill="none" fill-rule="evenodd">
        <mask id="mask-2" fill="white">
            <use xlink:href="#path-1"></use>
        </mask>
        <use id="Logo-Fondation-Handicap-corail" fill="#FFFFFF" xlink:href="#path-1"></use>
        <mask id="mask-4" fill="white">
            <use xlink:href="#path-3"></use>
        </mask>
        <use id="Logo-Fondation-Handicap-blau-dark" fill="#FFFFFF" xlink:href="#path-3"></use>
    </g>
</svg>