<?xml version="1.0" encoding="UTF-8"?>
<svg width="234px" height="56px" viewBox="0 0 234 56" version="1.1" xmlns="http://www.w3.org/2000/svg" xmlns:xlink="http://www.w3.org/1999/xlink">
    <!-- Generator: Sketch 58 (84663) - https://sketch.com -->
    <title>🧬 Logos/Product MH/Le Comptoir@3x</title>
    <desc>Created with Sketch.</desc>
    <defs>
        <path d="M170.233554,51.0449935 L168.692678,51.0449935 C168.653829,50.5405419 168.226485,50.1905419 167.605346,50.1905419 C167.035253,50.1905419 166.633659,50.4755097 166.633659,50.8896387 C166.633659,51.3945419 167.26835,51.5625419 168.174535,51.7571871 C169.106921,51.9513806 170.427802,52.3397677 170.427802,53.6602839 C170.427802,54.8380903 169.288068,55.6537032 167.669493,55.6537032 C166.012068,55.6537032 164.847037,54.7992516 164.847037,53.5821548 L166.478261,53.5821548 C166.51711,54.1001548 166.983755,54.4497032 167.656844,54.4497032 C168.278435,54.4497032 168.718427,54.1394452 168.718427,53.7117677 C168.718427,53.1553806 167.94189,53.0257677 167.022605,52.818929 C166.077118,52.5985419 164.976234,52.1455742 164.976234,50.9673161 C164.976234,49.8152516 166.038269,49.0127355 167.591794,49.0127355 C169.145771,49.0127355 170.233554,49.8540903 170.233554,51.0449935 L170.233554,51.0449935 Z M161.856083,55.5371871 L163.552358,55.5371871 L163.552358,49.1423484 L161.856083,49.1423484 L161.856083,55.5371871 Z M162.697219,48.3009935 C162.101829,48.3009935 161.674937,47.9121548 161.674937,47.3684129 C161.674937,46.8120258 162.101829,46.4240903 162.697219,46.4240903 C163.306161,46.4240903 163.733504,46.8120258 163.733504,47.3684129 C163.733504,47.9121548 163.306161,48.3009935 162.697219,48.3009935 L162.697219,48.3009935 Z M160.367157,51.5372516 L160.367157,55.5371871 L158.684435,55.5371871 L158.684435,51.782929 C158.684435,50.9284774 158.153192,50.3589935 157.350002,50.3589935 C156.547717,50.3589935 156.003825,50.9284774 156.003825,51.782929 L156.003825,55.5371871 L154.307551,55.5371871 L154.307551,49.1423484 L156.003825,49.1423484 L156.003825,50.1002194 C156.418068,49.4268645 157.143107,49.0127355 158.010442,49.0127355 C159.409022,49.0127355 160.367157,50.0482839 160.367157,51.5372516 L160.367157,51.5372516 Z M151.070852,52.3397677 C151.070852,51.2522839 150.358914,50.4755097 149.361929,50.4755097 C148.364493,50.4755097 147.639454,51.2522839 147.639454,52.3397677 C147.639454,53.4141548 148.364493,54.190929 149.361929,54.190929 C150.358914,54.190929 151.070852,53.4141548 151.070852,52.3397677 L151.070852,52.3397677 Z M152.767126,49.1423484 L152.767126,55.5371871 L151.070852,55.5371871 L151.070852,54.5011871 C150.553161,55.2264774 149.763524,55.6537032 148.818037,55.6537032 C147.134412,55.6537032 145.904782,54.2686065 145.904782,52.3397677 C145.904782,50.410929 147.134412,49.0127355 148.818037,49.0127355 C149.763524,49.0127355 150.553161,49.4530581 151.070852,50.1648 L151.070852,49.1423484 L152.767126,49.1423484 Z M144.80435,51.3173161 L144.80435,55.5371871 L143.108076,55.5371871 L143.108076,51.5625419 C143.108076,50.8250581 142.680732,50.3589935 141.981894,50.3589935 C141.295253,50.3589935 140.855261,50.8250581 140.855261,51.5625419 L140.855261,55.5371871 L139.158987,55.5371871 L139.158987,51.5625419 C139.158987,50.8250581 138.731643,50.3589935 138.045454,50.3589935 C137.345713,50.3589935 136.906172,50.8250581 136.906172,51.5625419 L136.906172,55.5371871 L135.222547,55.5371871 L135.222547,49.1423484 L136.906172,49.1423484 L136.906172,50.1648 C137.255365,49.4399613 137.915805,49.0127355 138.783593,49.0127355 C139.664029,49.0127355 140.337118,49.4788 140.647914,50.242929 C140.997558,49.4918968 141.722597,49.0127355 142.641883,49.0127355 C143.937014,49.0127355 144.80435,49.9444129 144.80435,51.3173161 L144.80435,51.3173161 Z M133.759821,52.8830581 C133.759821,54.5147355 132.52974,55.6537032 130.755315,55.6537032 C128.968693,55.6537032 127.725512,54.5147355 127.725512,52.8830581 L127.725512,49.1423484 L129.409137,49.1423484 L129.409137,52.8830581 C129.409137,53.7117677 129.939929,54.2686065 130.742666,54.2686065 C131.545404,54.2686065 132.076195,53.7117677 132.076195,52.8830581 L132.076195,49.1423484 L133.759821,49.1423484 L133.759821,52.8830581 Z M126.340485,51.5372516 L126.340485,55.5371871 L124.644211,55.5371871 L124.644211,51.782929 C124.644211,50.9284774 124.113419,50.3589935 123.323331,50.3589935 C122.507944,50.3589935 121.964053,50.9284774 121.964053,51.782929 L121.964053,55.5371871 L120.280879,55.5371871 L120.280879,46.5532516 L121.964053,46.5532516 L121.964053,50.1390581 C122.378296,49.4399613 123.077585,49.0127355 123.958473,49.0127355 C125.369701,49.0127355 126.340485,50.0482839 126.340485,51.5372516 L126.340485,51.5372516 Z M114.325172,48.5078323 L114.325172,49.1423484 L115.568354,49.1423484 L115.568354,50.5405419 L114.325172,50.5405419 L114.325172,55.5371871 L112.628898,55.5371871 L112.628898,50.5405419 L111.85191,50.5405419 L110.60918,50.5405419 L110.60918,55.5371871 L108.925554,55.5371871 L108.925554,50.5405419 L108.032018,50.5405419 L108.032018,49.1423484 L108.925554,49.1423484 L108.925554,48.5078323 C108.925554,47.2907355 109.922539,46.4240903 111.321118,46.4240903 C111.476516,46.4240903 111.683863,46.4367355 111.85191,46.4755742 L111.85191,47.9383484 C111.683863,47.8868645 111.489164,47.8475742 111.334219,47.8475742 C110.919524,47.8475742 110.60918,48.1063484 110.60918,48.5078323 L110.60918,49.1423484 L111.85191,49.1423484 L112.628898,49.1423484 L112.628898,48.5078323 C112.628898,47.2907355 113.625883,46.4240903 115.024462,46.4240903 C115.179859,46.4240903 115.386755,46.4367355 115.568354,46.4755742 L115.568354,47.9383484 C115.399856,47.8868645 115.19296,47.8475742 115.050211,47.8475742 C114.622867,47.8475742 114.325172,48.1063484 114.325172,48.5078323 L114.325172,48.5078323 Z M102.141361,52.3397677 C102.141361,53.4141548 102.8533,54.190929 103.850284,54.190929 C104.860369,54.190929 105.572307,53.4141548 105.572307,52.3397677 C105.572307,51.2522839 104.860369,50.4755097 103.850284,50.4755097 C102.8533,50.4755097 102.141361,51.2522839 102.141361,52.3397677 L102.141361,52.3397677 Z M107.307883,52.3397677 C107.307883,54.2686065 105.857354,55.6537032 103.863385,55.6537032 C101.856315,55.6537032 100.405786,54.2686065 100.405786,52.3397677 C100.405786,50.410929 101.856315,49.0127355 103.863385,49.0127355 C105.857354,49.0127355 107.307883,50.410929 107.307883,52.3397677 L107.307883,52.3397677 Z M97.0787398,52.1839613 L99.7719985,55.5371871 L97.7775776,55.5371871 L95.395566,52.468929 L95.395566,55.5371871 L93.7119405,55.5371871 L93.7119405,46.5532516 L95.395566,46.5532516 L95.395566,51.9251871 L97.7775776,49.1423484 L99.7719985,49.1423484 L97.0787398,52.1839613 Z M90.4883421,52.3397677 C90.4883421,51.2522839 89.7764039,50.4755097 88.7789676,50.4755097 C87.781983,50.4755097 87.0569444,51.2522839 87.0569444,52.3397677 C87.0569444,53.4141548 87.781983,54.190929 88.7789676,54.190929 C89.7764039,54.190929 90.4883421,53.4141548 90.4883421,52.3397677 L90.4883421,52.3397677 Z M92.1846162,49.1423484 L92.1846162,55.5371871 L90.4883421,55.5371871 L90.4883421,54.5011871 C89.9701992,55.2264774 89.1805622,55.6537032 88.2350757,55.6537032 C86.5519019,55.6537032 85.3218208,54.2686065 85.3218208,52.3397677 C85.3218208,50.410929 86.5519019,49.0127355 88.2350757,49.0127355 C89.1805622,49.0127355 89.9701992,49.4530581 90.4883421,50.1648 L90.4883421,49.1423484 L92.1846162,49.1423484 Z M82.4605158,55.5371871 L84.1436896,55.5371871 L84.1436896,46.5528 L82.4605158,46.5528 L82.4605158,55.5371871 Z M79.2369174,52.3397677 C79.2369174,51.2522839 78.5245274,50.4755097 77.5275429,50.4755097 C76.5305583,50.4755097 75.805068,51.2522839 75.805068,52.3397677 C75.805068,53.4141548 76.5305583,54.190929 77.5275429,54.190929 C78.5245274,54.190929 79.2369174,53.4141548 79.2369174,52.3397677 L79.2369174,52.3397677 Z M80.9327398,49.1423484 L80.9327398,55.5371871 L79.2369174,55.5371871 L79.2369174,54.5011871 C78.7187745,55.2264774 77.9286857,55.6537032 76.983651,55.6537032 C75.3004772,55.6537032 74.0703961,54.2686065 74.0703961,52.3397677 C74.0703961,50.410929 75.3004772,49.0127355 76.983651,49.0127355 C77.9286857,49.0127355 78.7187745,49.4530581 79.2369174,50.1648 L79.2369174,49.1423484 L80.9327398,49.1423484 Z M70.8079483,49.0127355 C72.1026278,49.0127355 72.9704154,49.9444129 72.9704154,51.3173161 L72.9704154,55.5371871 L71.2741413,55.5371871 L71.2741413,51.5625419 C71.2741413,50.8250581 70.8467977,50.3589935 70.1475081,50.3589935 C69.4613189,50.3589935 69.0208749,50.8250581 69.0208749,51.5625419 L69.0208749,55.5371871 L67.3246008,55.5371871 L67.3246008,51.5625419 C67.3246008,50.8250581 66.8972571,50.3589935 66.211068,50.3589935 C65.5117784,50.3589935 65.0717861,50.8250581 65.0717861,51.5625419 L65.0717861,55.5371871 L63.3886124,55.5371871 L63.3886124,49.1423484 L65.0717861,49.1423484 L65.0717861,50.1648 C65.4214309,49.4399613 66.0814193,49.0127355 66.9492069,49.0127355 C67.8296432,49.0127355 68.5031838,49.4788 68.8139792,50.242929 C69.1636239,49.4918968 69.8886625,49.0127355 70.8079483,49.0127355 Z M12.9969382,18.3469097 C12.9969382,18.3469097 6.7015251,23.8308452 6.7015251,34.8836194 C6.7015251,46.0682645 12.9969382,51.4212323 12.9969382,51.4212323 C12.9969382,51.4212323 0,48.4491677 0,34.8836194 C0,21.7606516 12.9969382,18.3469097 12.9969382,18.3469097 Z M220.557287,18.3468645 C220.557287,18.3468645 233.554225,21.318929 233.554225,34.8840258 C233.554225,48.0065419 220.557287,51.4211871 220.557287,51.4211871 C220.557287,51.4211871 226.853152,45.9368 226.853152,34.8840258 C226.853152,23.6998323 220.557287,18.3468645 220.557287,18.3468645 Z" id="path-1"></path>
        <path d="M184.072396,30.3005613 C186.305334,30.3005613 187.920295,32.1548839 187.920295,34.713271 C187.920295,37.2721097 186.305334,39.109271 184.072396,39.109271 C182.818824,39.109271 181.753627,38.5429484 181.066535,37.5814645 L181.066535,42.3897871 L178.833145,42.3897871 L178.833145,30.4721742 L181.066535,30.4721742 L181.066535,31.8288194 C181.753627,30.8840452 182.818824,30.3005613 184.072396,30.3005613 Z M172.701125,30.300471 C175.3465,30.300471 177.253283,32.1547935 177.270449,34.7303419 C177.270449,34.9538903 177.253283,35.1946 177.201334,35.4005355 L170.348025,35.4005355 C170.622681,36.516471 171.55055,37.2891806 172.718291,37.2891806 C173.714824,37.2891806 174.556411,36.7052452 174.865399,35.9325355 L177.115503,35.9325355 C176.634855,37.7873097 174.796735,39.1096323 172.701125,39.1096323 C170.038585,39.1096323 168.114635,37.2720194 168.114635,34.7131806 C168.114635,32.1547935 170.038585,30.300471 172.701125,30.300471 Z M84.3557803,30.4720387 L84.3557803,35.4348129 C84.3557803,36.5340387 85.060039,37.2719742 86.1247842,37.2719742 C87.1899811,37.2719742 87.8942398,36.5340387 87.8942398,35.4348129 L87.8942398,30.4720387 L90.127178,30.4720387 L90.127178,35.4348129 C90.127178,37.5984903 88.4955023,39.1095871 86.1419502,39.1095871 C83.7716838,39.1095871 82.1223903,37.5984903 82.1223903,35.4348129 L82.1223903,30.4720387 L84.3557803,30.4720387 Z M31.0529745,30.300471 C33.6978973,30.300471 35.6046811,32.1547935 35.6218471,34.7303419 C35.6218471,34.9538903 35.6046811,35.1946 35.553183,35.4005355 L28.6994224,35.4005355 C28.9740788,36.516471 29.9019475,37.2891806 31.0696888,37.2891806 C32.0662216,37.2891806 32.9078085,36.7052452 33.2172486,35.9325355 L35.4673529,35.9325355 C34.9862525,37.7873097 33.1481328,39.1096323 31.0529745,39.1096323 C28.3899822,39.1096323 26.4664842,37.2720194 26.4664842,34.7131806 C26.4664842,32.1547935 28.3899822,30.300471 31.0529745,30.300471 Z M76.0760653,30.3005613 C78.720988,30.3005613 80.6449378,32.1548839 80.6449378,34.713271 C80.6449378,37.2721097 78.720988,39.109271 76.0760653,39.109271 C73.4135247,39.109271 71.4895749,37.2721097 71.4895749,34.713271 C71.4895749,32.1548839 73.4135247,30.3005613 76.0760653,30.3005613 Z M105.656511,30.300471 C108.301434,30.300471 110.208218,32.1547935 110.225384,34.7303419 C110.225384,34.9538903 110.208218,35.1946 110.15672,35.4005355 L103.302959,35.4005355 C103.577615,36.516471 104.505484,37.2891806 105.673677,37.2891806 C106.669758,37.2891806 107.511345,36.7052452 107.820785,35.9325355 L110.07089,35.9325355 C109.589789,37.7873097 107.751669,39.1096323 105.656511,39.1096323 C102.993519,39.1096323 101.070021,37.2720194 101.070021,34.7131806 C101.070021,32.1547935 102.993519,30.300471 105.656511,30.300471 Z M213.189404,30.300471 C215.834779,30.300471 217.741563,32.1547935 217.758729,34.7303419 C217.758729,34.9538903 217.741563,35.1946 217.689613,35.4005355 L210.836304,35.4005355 C211.11096,36.516471 212.038377,37.2891806 213.20657,37.2891806 C214.203103,37.2891806 215.04469,36.7052452 215.353678,35.9325355 L217.603783,35.9325355 C217.123134,37.7873097 215.285014,39.1096323 213.189404,39.1096323 C210.526864,39.1096323 208.602914,37.2720194 208.602914,34.7131806 C208.602914,32.1547935 210.526864,30.300471 213.189404,30.300471 Z M24.9027498,27.0372065 L24.9027498,38.955271 L22.6526456,38.955271 L22.6526456,37.5814645 C21.9655529,38.5429484 20.9179737,39.109271 19.6639506,39.109271 C17.4305606,39.109271 15.7988849,37.2721097 15.7988849,34.713271 C15.7988849,32.1548839 17.4305606,30.3005613 19.6639506,30.3005613 C20.9179737,30.3005613 21.9655529,30.8840452 22.6526456,31.8288194 L22.6526456,27.0372065 L24.9027498,27.0372065 Z M203.621018,30.3006516 C205.682747,30.3006516 207.125597,31.4161355 207.125597,32.996329 L205.081485,32.996329 C205.029535,32.3265871 204.462605,31.8632323 203.638184,31.8632323 C202.882427,31.8632323 202.35028,32.240329 202.35028,32.7899419 C202.35028,33.4596839 203.191867,33.6832323 204.393941,33.9406516 C205.630798,34.198071 207.383087,34.7133613 207.383087,36.4651677 C207.383087,38.0277484 205.871574,39.1093613 203.724466,39.1093613 C201.525859,39.1093613 199.980014,37.9762645 199.980014,36.3617484 L202.144288,36.3617484 C202.195334,37.0491032 202.813763,37.5124581 203.7073,37.5124581 C204.53172,37.5124581 205.115817,37.1005871 205.115817,36.5338129 C205.115817,35.7954258 204.085404,35.6233613 202.865261,35.3487806 C201.61169,35.0565871 200.151674,34.4554903 200.151674,32.8929097 C200.151674,31.3651032 201.560192,30.3006516 203.621018,30.3006516 Z M139.599883,30.300471 C142.244805,30.300471 144.151589,32.1547935 144.168303,34.7303419 C144.168303,34.9538903 144.151589,35.1946 144.099639,35.4005355 L137.246331,35.4005355 C137.520987,36.516471 138.448404,37.2891806 139.616597,37.2891806 C140.612678,37.2891806 141.454265,36.7052452 141.764157,35.9325355 L144.013809,35.9325355 C143.533161,37.7873097 141.695041,39.1096323 139.599883,39.1096323 C136.93689,39.1096323 135.012941,37.2720194 135.012941,34.7131806 C135.012941,32.1547935 136.93689,30.300471 139.599883,30.300471 Z M124.431397,30.300471 C127.07632,30.300471 128.983556,32.1547935 129.000722,34.7303419 C129.000722,34.9538903 128.983556,35.1946 128.931606,35.4005355 L122.078297,35.4005355 C122.352953,36.516471 123.280822,37.2891806 124.448563,37.2891806 C125.445096,37.2891806 126.286683,36.7052452 126.595671,35.9325355 L128.845776,35.9325355 C128.365127,37.7873097 126.526556,39.1096323 124.431397,39.1096323 C121.768857,39.1096323 119.844907,37.2720194 119.844907,34.7131806 C119.844907,32.1547935 121.768857,30.300471 124.431397,30.300471 Z M49.7593772,30.3005613 C51.0134004,30.3005613 52.0609795,30.8840452 52.7480722,31.8288194 L52.7480722,30.4721742 L54.9981764,30.4721742 L54.9981764,38.955271 L52.7480722,38.955271 L52.7480722,37.5814645 C52.0609795,38.5429484 51.0134004,39.109271 49.7593772,39.109271 C47.5259873,39.109271 45.8943116,37.2721097 45.8943116,34.713271 C45.8943116,32.1548839 47.5259873,30.3005613 49.7593772,30.3005613 Z M114.022011,27.0376129 L114.022011,38.9552258 L111.789073,38.9552258 L111.789073,27.0376129 L114.022011,27.0376129 Z M198.261559,30.472129 L198.261559,38.9552258 L196.011455,38.9552258 L196.011455,30.472129 L198.261559,30.472129 Z M158.890111,28.2569226 L158.890111,30.4720839 L160.779729,30.4720839 L160.779729,32.3264065 L158.890111,32.3264065 L158.890111,38.9551806 L156.640007,38.9551806 L156.640007,32.3264065 L155.059829,32.3264065 L155.059829,30.4720839 L156.640007,30.4720839 L156.640007,28.2569226 L158.890111,28.2569226 Z M66.868617,30.3003806 C68.723451,30.3003806 69.9946402,31.6737355 69.9946402,33.6486387 L69.9946402,38.9550903 L67.7617019,38.9550903 L67.7617019,33.9751548 C67.7617019,32.8416065 67.0574432,32.0865097 65.9922463,32.0865097 C64.9275012,32.0865097 64.2060764,32.8416065 64.2060764,33.9751548 L64.2060764,38.9550903 L61.9555205,38.9550903 L61.9555205,30.4719935 L64.2060764,30.4719935 L64.2060764,31.7428323 C64.7553892,30.8499935 65.71759,30.3003806 66.868617,30.3003806 Z M44.3311193,27.0376129 L44.3311193,38.9552258 L42.0981811,38.9552258 L42.0981811,27.0376129 L44.3311193,27.0376129 Z M93.5800784,30.472129 L95.7788849,36.738 L97.9949085,30.472129 L100.382341,30.472129 L97.1185378,38.9552258 L94.4559973,38.9552258 L91.1926459,30.472129 L93.5800784,30.472129 Z M118.281444,27.0376129 L118.281444,38.9552258 L116.048957,38.9552258 L116.048957,27.0376129 L118.281444,27.0376129 Z M167.392984,30.1973677 L167.392984,32.4296903 C165.53815,32.4296903 164.318007,33.3568516 164.318007,34.8679484 L164.318007,38.9550452 L162.085069,38.9550452 L162.085069,30.4719484 L164.318007,30.4719484 L164.318007,32.3610452 C164.902104,31.0044 165.984467,30.1973677 167.392984,30.1973677 Z M150.661939,30.3003806 C152.517225,30.3003806 153.787962,31.6737355 153.787962,33.6486387 L153.787962,38.9550903 L151.555024,38.9550903 L151.555024,33.9751548 C151.555024,32.8416065 150.850765,32.0865097 149.78602,32.0865097 C148.720823,32.0865097 147.999398,32.8416065 147.999398,33.9751548 L147.999398,38.9550903 L145.749294,38.9550903 L145.749294,30.4719935 L147.999398,30.4719935 L147.999398,31.7428323 C148.548711,30.8499935 149.510912,30.3003806 150.661939,30.3003806 Z M194.808704,30.1973677 L194.808704,32.4296903 C192.95387,32.4296903 191.733727,33.3568516 191.733727,34.8679484 L191.733727,38.9550452 L189.500789,38.9550452 L189.500789,30.4719484 L191.733727,30.4719484 L191.733727,32.3610452 C192.317824,31.0044 193.400187,30.1973677 194.808704,30.1973677 Z M183.368137,32.2402387 C182.028736,32.2402387 181.066535,33.271271 181.066535,34.713271 C181.066535,36.1385613 182.028736,37.1686903 183.368137,37.1686903 C184.673658,37.1686903 185.635859,36.1385613 185.635859,34.713271 C185.635859,33.271271 184.673658,32.2402387 183.368137,32.2402387 Z M76.0588992,32.2402387 C74.7357602,32.2402387 73.7911772,33.271271 73.7911772,34.713271 C73.7911772,36.1385613 74.7357602,37.1686903 76.0588992,37.1686903 C77.3983008,37.1686903 78.3433355,36.1385613 78.3433355,34.713271 C78.3433355,33.271271 77.3983008,32.2402387 76.0588992,32.2402387 Z M20.3853753,32.2402387 C19.062688,32.2402387 18.1004873,33.271271 18.1004873,34.713271 C18.1004873,36.1385613 19.062688,37.1686903 20.3853753,37.1686903 C21.7080625,37.1686903 22.6526456,36.1385613 22.6526456,34.713271 C22.6526456,33.271271 21.7080625,32.2402387 20.3853753,32.2402387 Z M50.4808019,32.2402387 C49.1581147,32.2402387 48.1959139,33.271271 48.1959139,34.713271 C48.1959139,36.1385613 49.1581147,37.1686903 50.4808019,37.1686903 C51.8034892,37.1686903 52.7480722,36.1385613 52.7480722,34.713271 C52.7480722,33.271271 51.8034892,32.2402387 50.4808019,32.2402387 Z M172.718291,32.120471 C171.653094,32.120471 170.794341,32.7558903 170.433403,33.7002129 L175.089009,33.7002129 C174.745237,32.7726 173.817368,32.120471 172.718291,32.120471 Z M31.0696888,32.120471 C30.0049436,32.120471 29.145739,32.7558903 28.7852525,33.7002129 L33.4404069,33.7002129 C33.0966347,32.7726 32.1692178,32.120471 31.0696888,32.120471 Z M105.673677,32.120471 C104.60848,32.120471 103.749727,32.7558903 103.388789,33.7002129 L108.043944,33.7002129 C107.700171,32.7726 106.772754,32.120471 105.673677,32.120471 Z M124.448563,32.120471 C123.383366,32.120471 122.524614,32.7558903 122.163675,33.7002129 L126.81883,33.7002129 C126.475509,32.7726 125.547641,32.120471 124.448563,32.120471 Z M139.616597,32.120471 C138.5514,32.120471 137.692647,32.7558903 137.332161,33.7002129 L141.987315,33.7002129 C141.643543,32.7726 140.715674,32.120471 139.616597,32.120471 Z M213.20657,32.120471 C212.141373,32.120471 211.28262,32.7558903 210.922134,33.7002129 L215.577288,33.7002129 C215.233516,32.7726 214.305647,32.120471 213.20657,32.120471 Z M197.127698,26.866 C197.934953,26.866 198.501884,27.3808387 198.501884,28.1192258 C198.501884,28.8409032 197.934953,29.3557419 197.127698,29.3557419 C196.33761,29.3557419 195.770679,28.8409032 195.770679,28.1192258 C195.770679,27.3808387 196.33761,26.866 197.127698,26.866 Z M139.339366,5.21269677 C142.7283,5.21269677 145.178976,8.02714839 145.178976,11.9105677 C145.178976,15.7939871 142.7283,18.5822452 139.339366,18.5822452 C137.436196,18.5822452 135.819879,17.7223742 134.776817,16.2627613 L134.776817,23.5603742 L131.387883,23.5603742 L131.387883,5.47327742 L134.776817,5.47327742 L134.776817,7.53218065 C135.819879,6.09876129 137.436196,5.21269677 139.339366,5.21269677 Z M58.2447232,5.2127871 C62.2593139,5.2127871 65.153144,8.02723871 65.1788931,11.9364 C65.1788931,12.2751097 65.153144,12.6404645 65.0745417,12.9529806 L54.6728351,12.9529806 C55.0902405,14.6469806 56.4978544,15.8198194 58.2704722,15.8198194 C59.7824375,15.8198194 61.059951,14.9337548 61.5293062,13.7609161 L64.9444413,13.7609161 C64.2144336,16.5753677 61.4249548,18.5823355 58.2447232,18.5823355 C54.2039317,18.5823355 51.2839008,15.7936258 51.2839008,11.9106581 C51.2839008,8.02723871 54.2039317,5.2127871 58.2447232,5.2127871 Z M164.754566,5.21269677 C168.769157,5.21269677 171.688736,8.02714839 171.688736,11.9105677 C171.688736,15.7939871 168.769157,18.5822452 164.754566,18.5822452 C160.713775,18.5822452 157.794196,15.7939871 157.794196,11.9105677 C157.794196,8.02714839 160.713775,5.21269677 164.754566,5.21269677 Z M82.5651834,5.21287742 C86.1628205,5.21287742 89.004249,7.58429677 89.3430521,10.8941677 L85.902168,10.8941677 C85.5633649,9.33023226 84.2334498,8.15784516 82.5913842,8.15784516 C80.5581139,8.15784516 79.0980985,9.72132903 79.0980985,11.9107484 C79.0980985,14.0735226 80.5581139,15.6374581 82.5913842,15.6374581 C84.2596506,15.6374581 85.5891139,14.4903613 85.927917,12.9268774 L89.3430521,12.9268774 C89.004249,16.2110065 86.1628205,18.5824258 82.5651834,18.5824258 C78.5243919,18.5824258 75.6048127,15.7937161 75.6048127,11.9107484 C75.6048127,8.02732903 78.5243919,5.21287742 82.5651834,5.21287742 Z M98.5701961,5.21269677 C102.584787,5.21269677 105.504818,8.02714839 105.504818,11.9105677 C105.504818,15.7939871 102.584787,18.5822452 98.5701961,18.5822452 C94.5294046,18.5822452 91.6098255,15.7939871 91.6098255,11.9105677 C91.6098255,8.02714839 94.5294046,5.21269677 98.5701961,5.21269677 Z M152.998144,2.11124516 L152.998144,5.47305161 L155.865774,5.47305161 L155.865774,8.28795484 L152.998144,8.28795484 L152.998144,18.3476323 L149.583461,18.3476323 L149.583461,8.28795484 L147.184735,8.28795484 L147.184735,5.47305161 L149.583461,5.47305161 L149.583461,2.11124516 L152.998144,2.11124516 Z M123.464905,5.21265161 C126.072334,5.21265161 127.818751,7.08910323 127.818751,9.85161935 L127.818751,18.3478129 L124.403615,18.3478129 L124.403615,10.3465871 C124.403615,8.86123226 123.543507,7.92278065 122.135442,7.92278065 C120.753577,7.92278065 119.86772,8.86123226 119.86772,10.3465871 L119.86772,18.3478129 L116.452585,18.3478129 L116.452585,10.3465871 C116.452585,8.86123226 115.592476,7.92278065 114.210612,7.92278065 C112.802998,7.92278065 111.916237,8.86123226 111.916237,10.3465871 L111.916237,18.3478129 L108.527303,18.3478129 L108.527303,5.47323226 L111.916237,5.47323226 L111.916237,7.53213548 C112.620044,6.07252258 113.949959,5.21265161 115.696828,5.21265161 C117.468994,5.21265161 118.82511,6.15065161 119.450766,7.68839355 C120.154573,6.17684516 121.614137,5.21265161 123.464905,5.21265161 Z M48.2607834,0.260580645 L48.2607834,18.3476774 L44.871849,18.3476774 L44.871849,0.260580645 L48.2607834,0.260580645 Z M189.961336,5.05612258 L189.961336,8.44412258 C187.146108,8.44412258 185.295339,9.8518 185.295339,12.1450903 L185.295339,18.3479935 L181.906405,18.3479935 L181.906405,5.47296129 L185.295339,5.47296129 L185.295339,8.3398 C186.181648,6.28089677 187.824166,5.05612258 189.961336,5.05612258 Z M178.152467,5.47309677 L178.152467,18.3476774 L174.737332,18.3476774 L174.737332,5.47309677 L178.152467,5.47309677 Z M138.271007,8.15766452 C136.237285,8.15766452 134.776817,9.72114839 134.776817,11.9105677 C134.776817,14.0737935 136.237285,15.6372774 138.271007,15.6372774 C140.251875,15.6372774 141.711891,14.0737935 141.711891,11.9105677 C141.711891,9.72114839 140.251875,8.15766452 138.271007,8.15766452 Z M98.5444471,8.15766452 C96.5369259,8.15766452 95.1031112,9.72114839 95.1031112,11.9105677 C95.1031112,14.0737935 96.5369259,15.6372774 98.5444471,15.6372774 C100.577717,15.6372774 102.011532,14.0737935 102.011532,11.9105677 C102.011532,9.72114839 100.577717,8.15766452 98.5444471,8.15766452 Z M164.728366,8.15766452 C162.721296,8.15766452 161.287481,9.72114839 161.287481,11.9105677 C161.287481,14.0737935 162.721296,15.6372774 164.728366,15.6372774 C166.761636,15.6372774 168.195902,14.0737935 168.195902,11.9105677 C168.195902,9.72114839 166.761636,8.15766452 164.728366,8.15766452 Z M58.2704722,7.97485161 C56.6546073,7.97485161 55.3508931,8.93949677 54.8033873,10.3729161 L61.8681093,10.3729161 C61.3468042,8.96523871 59.9391903,7.97485161 58.2704722,7.97485161 Z M176.432251,0 C177.657363,0 178.517471,0.782193548 178.517471,1.90264516 C178.517471,2.99735484 177.657363,3.77909677 176.432251,3.77909677 C175.232888,3.77909677 174.372328,2.99735484 174.372328,1.90264516 C174.372328,0.782193548 175.232888,0 176.432251,0 Z" id="path-3"></path>
    </defs>
    <g id="🧬-Logos/Product-MH/Le-Comptoir" stroke="none" stroke-width="1" fill="none" fill-rule="evenodd">
        <mask id="mask-2" fill="white">
            <use xlink:href="#path-1"></use>
        </mask>
        <use id="Mask" fill="#FF4B33" xlink:href="#path-1"></use>
        <g id="🎨Couleurs/Primaires/Corail-MH-brand" mask="url(#mask-2)" fill="#FF4B33">
            <rect id="bgcolor" x="0" y="0" width="234" height="56"></rect>
        </g>
        <mask id="mask-4" fill="white">
            <use xlink:href="#path-3"></use>
        </mask>
        <use id="Mask" fill="#1A283E" xlink:href="#path-3"></use>
        <g id="🎨Couleurs/Secondaires/Bleu-dark" mask="url(#mask-4)" fill="#1A283E">
            <rect id="bgcolor" x="0" y="0" width="234" height="56"></rect>
        </g>
    </g>
</svg>