<?xml version="1.0" encoding="UTF-8"?>
<svg width="266px" height="24px" viewBox="0 0 266 24" version="1.1" xmlns="http://www.w3.org/2000/svg" xmlns:xlink="http://www.w3.org/1999/xlink">
    <!-- Generator: Sketch 58 (84663) - https://sketch.com -->
    <title>🧬 Logos/Product MH/MH Innov 1ligne@3x</title>
    <desc>Created with Sketch.</desc>
    <defs>
        <path d="M36.1573104,7.4884608 C37.766951,7.4884608 39.0461509,8.16097787 39.9949102,9.48553724 L39.9949102,7.71210816 L42.8829768,7.71210816 L42.8829768,18.7976149 L39.9949102,18.7976149 L39.9949102,17.0029236 C39.0461509,18.325908 37.766951,19 36.1573104,19 C34.7241112,19 33.533132,18.4613564 32.6068148,17.3832816 C31.6588294,16.3075693 31.1960578,14.9381229 31.1960578,13.2552553 C31.1960578,11.5723876 31.6588294,10.2029413 32.6068148,9.10360425 C33.533132,8.02710445 34.7241112,7.4884608 36.1573104,7.4884608 Z M55.322248,7.4884608 C56.9318885,7.4884608 58.2118623,8.16097787 59.1598477,9.48553724 L59.1598477,7.71210816 L62.0479143,7.71210816 L62.0479143,18.7976149 L59.1598477,18.7976149 L59.1598477,17.0029236 C58.2118623,18.325908 56.9318885,19 55.322248,19 C53.8890488,19 52.6980696,18.4613564 51.7717524,17.3832816 C50.823767,16.3075693 50.3609953,14.9381229 50.3609953,13.2552553 C50.3609953,11.5723876 50.823767,10.2029413 51.7717524,9.10360425 C52.6980696,8.02710445 53.8890488,7.4884608 55.322248,7.4884608 Z M125.416462,7.71195066 L125.416462,14.1977242 C125.416462,15.6333197 126.342779,16.5995708 127.687758,16.5995708 C129.032736,16.5995708 129.95828,15.6333197 129.95828,14.1977242 L129.95828,7.71195066 L132.825452,7.71195066 L132.825452,14.1977242 C132.825452,15.6120575 132.36268,16.7775437 131.413921,17.6540209 C130.465935,18.5509728 129.23162,18.999055 127.709426,18.999055 C126.188006,18.999055 124.95369,18.5509728 124.004931,17.6540209 C123.034504,16.7775437 122.54929,15.6120575 122.54929,14.1977242 L122.54929,7.71195066 L125.416462,7.71195066 Z M81.9426846,7.4883033 C83.6413197,7.4883033 85.0520767,8.02694695 86.1548353,9.10344675 C87.25682,10.2027838 87.8078123,11.5722301 87.8078123,13.2550978 C87.8078123,14.9379654 87.25682,16.3074118 86.1548353,17.3839116 C85.0520767,18.4611989 83.6413197,18.9998425 81.9426846,18.9998425 C80.2448233,18.9998425 78.8332924,18.4611989 77.7305338,17.3839116 C76.6061071,16.3074118 76.0551147,14.9379654 76.0551147,13.2550978 C76.0551147,11.5722301 76.6061071,10.2027838 77.7305338,9.10344675 C78.8332924,8.02694695 80.2448233,7.4883033 81.9426846,7.4883033 Z M158.476235,7.48806705 C160.085875,7.48806705 161.365849,8.16058412 162.313834,9.4851435 L162.313834,7.71171442 L165.201901,7.71171442 L165.201901,18.7980086 L162.313834,18.7980086 L162.313834,17.0033173 C161.365849,18.3255142 160.085875,18.9996063 158.476235,18.9996063 C157.043035,18.9996063 155.852056,18.4609626 154.925739,17.3836753 C153.977754,16.3071755 153.514982,14.9385167 153.514982,13.2548615 C153.514982,11.5719939 153.977754,10.2025475 154.925739,9.1032105 C155.852056,8.0267107 157.043035,7.48806705 158.476235,7.48806705 Z M190.456542,7.4881458 C191.779079,7.4881458 192.859395,7.82361685 193.698265,8.47565915 C194.535588,9.12612648 194.954249,9.97897892 194.954249,11.0113792 L192.330071,11.0113792 C192.264292,10.1356896 191.536859,9.53010922 190.477436,9.53010922 C189.507009,9.53010922 188.824459,10.0238659 188.824459,10.7412699 C188.824459,11.5500229 189.618446,11.8634442 191.447864,12.2453772 C192.440734,12.4241376 193.521824,12.7840208 194.404031,13.4793751 C194.910139,13.9282448 195.285464,14.6692736 195.285464,15.5433883 C195.285464,16.5537389 194.84436,17.3837541 193.984596,18.0350089 C193.102389,18.6854762 191.977962,18.999685 190.588873,18.999685 C189.178116,18.999685 188.030473,18.662639 187.125824,17.9901219 C186.221175,17.3168174 185.780846,16.4639649 185.780846,15.4095149 L188.559797,15.4095149 C188.625576,16.3072543 189.420336,16.9128346 190.566431,16.9128346 C191.625079,16.9128346 192.374955,16.374191 192.374955,15.6331622 C192.374955,14.8259842 191.580969,14.5346127 189.817329,14.1518922 C189.66333,14.1306299 189.551893,14.1077927 189.486115,14.0849555 C187.169935,13.5250496 186.001398,12.4690245 186.001398,10.8759308 C186.001398,9.86715524 186.420833,9.05840228 187.236487,8.43077218 C188.053689,7.80156711 189.133232,7.4881458 190.456542,7.4881458 Z M174.134864,7.48822455 C175.325844,7.48822455 176.295497,7.89220729 177.046147,8.69938527 C177.773581,9.53018796 178.148905,10.584638 178.148905,11.8635229 L178.148905,18.7981661 L175.282507,18.7981661 L175.282507,12.2903429 C175.282507,10.7862356 174.355416,9.82155953 173.010438,9.82155953 C171.620575,9.82155953 170.7167,10.8311226 170.7167,12.2903429 L170.7167,18.7981661 L167.827859,18.7981661 L167.827859,7.71187191 L170.7167,7.71187191 L170.7167,9.37268982 C171.489018,8.11585465 172.613444,7.48822455 174.134864,7.48822455 Z M147.955376,7.48838205 C150.16012,7.48838205 151.638203,9.08147576 151.638203,11.4817474 L151.638203,18.7983236 L148.749363,18.7983236 L148.749363,11.9085674 C148.749363,10.628895 147.999487,9.82171703 146.83095,9.82171703 C145.662412,9.82171703 144.912537,10.628895 144.912537,11.9085674 L144.912537,18.7983236 L142.023696,18.7983236 L142.023696,11.9085674 C142.023696,10.628895 141.295489,9.82171703 140.126952,9.82171703 C138.958414,9.82171703 138.186096,10.628895 138.186096,11.9085674 L138.186096,18.7983236 L135.319698,18.7983236 L135.319698,7.71202941 L138.186096,7.71202941 L138.186096,9.484671 C138.826083,8.16089912 139.884732,7.48838205 141.384483,7.48838205 C142.883461,7.48838205 144.029556,8.2727228 144.559654,9.6201194 C145.177199,8.29556003 146.389846,7.48838205 147.955376,7.48838205 Z M112.734971,3.22474985 L112.734971,9.43962653 C113.506515,8.13869188 114.630942,7.48822455 116.130693,7.48822455 C117.344115,7.48822455 118.314542,7.89220729 119.063644,8.69938527 C119.81352,9.53018796 120.188845,10.584638 120.188845,11.8635229 L120.188845,18.7981661 L117.300004,18.7981661 L117.300004,12.2903429 C117.300004,10.8311226 116.396129,9.82155953 115.050377,9.82155953 C113.661288,9.82155953 112.734971,10.7862356 112.734971,12.2903429 L112.734971,18.7981661 L109.867799,18.7981661 L109.867799,3.22474985 L112.734971,3.22474985 Z M48.353433,3.2248286 L48.353433,18.7974574 L45.4862608,18.7974574 L45.4862608,3.2248286 L48.353433,3.2248286 Z M25.6356783,7.4887758 C27.8404215,7.4887758 29.3185049,9.0818695 29.3185049,11.4821412 L29.3185049,18.7979299 L26.4296645,18.7979299 L26.4296645,11.9089612 C26.4296645,10.6292887 25.6797886,9.82211077 24.5112515,9.82211077 C23.3427144,9.82211077 22.5928386,10.6292887 22.5928386,11.9089612 L22.5928386,18.7979299 L19.7039981,18.7979299 L19.7039981,11.9089612 C19.7039981,10.6292887 18.9757905,9.82211077 17.8072534,9.82211077 C16.6387163,9.82211077 15.8663984,10.6292887 15.8663984,11.9089612 L15.8663984,18.7979299 L13,18.7979299 L13,7.71242316 L15.8663984,7.71242316 L15.8663984,9.48506475 C16.5063853,8.16129286 17.5650335,7.4887758 19.0647851,7.4887758 C20.5637628,7.4887758 21.7098579,8.27311654 22.2399558,9.62051315 C22.8575006,8.29595377 24.0701481,7.4887758 25.6356783,7.4887758 Z M183.57471,7.71155692 L183.57471,18.7978511 L180.685869,18.7978511 L180.685869,7.71155692 L183.57471,7.71155692 Z M100.953159,3 C101.284373,3 101.592372,3.02204974 101.878702,3.08977394 L101.878702,5.62549403 C101.549809,5.51367035 101.239489,5.46878338 100.997269,5.46878338 C100.269061,5.46878338 99.7629532,5.91765308 99.7629532,6.61300738 L99.7629532,7.71234441 L101.878702,7.71234441 L101.878702,10.1362408 L99.7629532,10.1362408 L99.7629532,18.7978511 L96.8733388,18.7978511 L96.8733388,10.1362408 L93.433506,10.1362408 L93.433506,18.7978511 L90.5663338,18.7978511 L90.5663338,10.1362408 L89.0449139,10.1362408 L89.0449139,7.71234441 L90.5663338,7.71234441 L90.5663338,6.61300738 C90.5663338,5.55855732 90.9416586,4.70491739 91.7132027,4.00956309 C92.4855206,3.33704602 93.4559481,3 94.6469274,3 C94.9998101,3 95.3078086,3.02204974 95.5508024,3.08977394 L95.5508024,5.62549403 C95.2195879,5.51367035 94.9108155,5.46878338 94.6685956,5.46878338 C93.963604,5.46878338 93.433506,5.91765308 93.433506,6.61300738 L93.433506,7.71234441 L96.8733388,7.71234441 L96.8733388,6.61300738 C96.8733388,5.55855732 97.2486637,4.70491739 98.0202077,4.00956309 C98.7925256,3.33704602 99.7629532,3 100.953159,3 Z M67.5189897,3.22522234 L67.5189897,12.5373 L71.5763673,7.71234441 L74.9728636,7.71234441 L70.385388,12.9861697 L74.9728636,18.7978511 L71.5763673,18.7978511 L67.5189897,13.4799264 L67.5189897,18.7978511 L64.6518175,18.7978511 L64.6518175,3.22522234 L67.5189897,3.22522234 Z M236.545692,7.32870757 C238.200217,7.32870757 239.546743,7.86813871 240.627834,8.92337626 C241.709698,10.0006636 242.239022,11.3708974 242.239022,13.010453 C242.239022,14.6492212 241.709698,16.0202425 240.627834,17.0975298 C239.546743,18.1763921 238.200217,18.7142483 236.545692,18.7142483 C234.88962,18.7142483 233.543868,18.1763921 232.462003,17.0975298 C231.380913,16.0202425 230.829147,14.6492212 230.829147,13.010453 C230.829147,11.3708974 231.358471,10.0006636 232.440335,8.92337626 C233.521426,7.86813871 234.88962,7.32870757 236.545692,7.32870757 Z M224.38718,7.32933756 C225.667154,7.32933756 226.704133,7.73253281 227.498893,8.56333551 C228.293654,9.39571319 228.690647,10.5171 228.690647,11.8881213 L228.690647,18.5132806 L227.012906,18.5132806 L227.012906,12.0905064 C227.012906,10.0233433 225.777042,8.69878391 223.901192,8.69878391 C221.982005,8.69878391 220.745368,10.0233433 220.745368,12.0905064 L220.745368,18.5132806 L219.045959,18.5132806 L219.045959,7.50809795 L220.745368,7.50809795 L220.745368,9.4626499 C221.473576,8.04831658 222.687771,7.32933756 224.38718,7.32933756 Z M211.941872,7.32933756 C213.221846,7.32933756 214.258826,7.73253281 215.053586,8.56333551 C215.848346,9.39571319 216.246113,10.5171 216.246113,11.8881213 L216.246113,18.5132806 L214.568372,18.5132806 L214.568372,12.0905064 C214.568372,10.0233433 213.332509,8.69878391 211.456659,8.69878391 C209.536698,8.69878391 208.300061,10.0233433 208.300061,12.0905064 L208.300061,18.5132806 L206.601426,18.5132806 L206.601426,7.50809795 L208.300061,7.50809795 L208.300061,9.4626499 C209.028268,8.04831658 210.242463,7.32933756 211.941872,7.32933756 Z M203.732396,7.50786171 L203.732396,18.5130444 L202.055429,18.5130444 L202.055429,7.50786171 L203.732396,7.50786171 Z M245.038636,7.50825545 L248.636337,16.8061583 L252.211596,7.50825545 L254,7.50825545 L249.629207,18.5134381 L247.621025,18.5134381 L243.251006,7.50825545 L245.038636,7.50825545 Z M236.545692,8.83360232 C235.375608,8.83360232 234.426848,9.21553531 233.676199,10.0006636 C232.925549,10.7873668 232.550224,11.7977174 232.550224,13.010453 C232.550224,14.246026 232.925549,15.2343268 233.676199,16.0202425 C234.426848,16.8061583 235.375608,17.210141 236.545692,17.210141 C237.692561,17.210141 238.642095,16.8061583 239.39197,16.0202425 C240.141846,15.2343268 240.517171,14.246026 240.517171,13.010453 C240.517171,11.7977174 240.141846,10.7873668 239.39197,10.0006636 C238.642095,9.21553531 237.692561,8.83360232 236.545692,8.83360232 Z M81.9202425,10.0240234 C81.0612516,10.0240234 80.3771544,10.3161824 79.8253882,10.9217628 C79.2743958,11.5273432 79.0089599,12.3124714 79.0089599,13.2550978 C79.0089599,15.1183008 80.2223812,16.4641224 81.9202425,16.4641224 C83.6181037,16.4641224 84.8539671,15.1183008 84.8539671,13.2550978 C84.8539671,12.3124714 84.5885312,11.5273432 84.0375389,10.9217628 C83.4857727,10.3161824 82.7800072,10.0240234 81.9202425,10.0240234 Z M56.2485652,10.0241809 C54.5507039,10.0241809 53.3156143,11.3700025 53.3156143,13.2552553 C53.3156143,14.1758319 53.6027185,14.9381229 54.1537108,15.5437033 C54.7054771,16.1508586 55.3888004,16.4642799 56.2485652,16.4642799 C57.1083299,16.4642799 57.7924271,16.1508586 58.3434195,15.5437033 C58.8951857,14.9381229 59.1598477,14.1758319 59.1598477,13.2552553 C59.1598477,11.3700025 57.9464264,10.0241809 56.2485652,10.0241809 Z M37.0836276,10.0241809 C35.3857664,10.0241809 34.1499029,11.3700025 34.1499029,13.2552553 C34.1499029,14.1758319 34.4370071,14.9381229 34.9887733,15.5437033 C35.5397656,16.1508586 36.2238629,16.4642799 37.0836276,16.4642799 C37.9433923,16.4642799 38.6267157,16.1508586 39.1784819,15.5437033 C39.7294743,14.9381229 39.9949102,14.1758319 39.9949102,13.2552553 C39.9949102,11.3700025 38.7814888,10.0241809 37.0836276,10.0241809 Z M159.402552,10.0237871 C157.704691,10.0237871 156.469601,11.3696088 156.469601,13.2548615 C156.469601,14.1754382 156.756705,14.9385167 157.307698,15.5433095 C157.859464,16.1504649 158.542787,16.4638862 159.402552,16.4638862 C160.262317,16.4638862 160.946414,16.1504649 161.497406,15.5433095 C162.049172,14.9385167 162.313834,14.1754382 162.313834,13.2548615 C162.313834,11.3696088 161.100413,10.0237871 159.402552,10.0237871 Z M182.119068,3 C182.626724,3 183.067828,3.15671065 183.399042,3.44808221 C184.456917,4.41354582 183.707041,6.38778503 182.119068,6.25391161 C181.082862,6.25391161 180.377097,5.55855732 180.377097,4.63798068 C180.377097,3.67330456 181.082862,3 182.119068,3 Z M202.8943,3.51055886 C203.53506,3.51055886 204.020274,3.96021606 204.020274,4.58784615 C204.174273,6.02580419 201.614326,6.02580419 201.747431,4.58784615 C201.747431,3.96021606 202.210202,3.51055886 202.8943,3.51055886 Z" id="path-1"></path>
    </defs>
    <g id="🧬-Logos/Product-MH/MH-Innov-1ligne" stroke="none" stroke-width="1" fill="none" fill-rule="evenodd">
        <path d="M9.35706577,0 C9.35706577,0 4.82465476,3.97921963 4.82465476,12 C4.82465476,20.1156184 9.35706577,24 9.35706577,24 C9.35706577,24 0,21.843263 0,12 C0,2.47706422 9.35706577,0 9.35706577,0 Z M256.642934,1.77635684e-15 C256.642934,1.77635684e-15 266,2.15673704 266,12 C266,21.5229358 256.642934,24 256.642934,24 C256.642934,24 261.175345,20.0207804 261.175345,12 C261.175345,3.88438156 256.642934,1.77635684e-15 256.642934,1.77635684e-15 Z" id="Logo-MH-Innov-corail" fill="#FF4B33"></path>
        <mask id="mask-2" fill="white">
            <use xlink:href="#path-1"></use>
        </mask>
        <use id="Logo-MH-Innov-bleu-dark" fill="#1A283E" xlink:href="#path-1"></use>
    </g>
</svg>