<?xml version="1.0" encoding="UTF-8"?>
<svg width="128px" height="56px" viewBox="0 0 128 56" version="1.1" xmlns="http://www.w3.org/2000/svg" xmlns:xlink="http://www.w3.org/1999/xlink">
    <!-- Generator: Sketch 55.2 (78181) - https://sketchapp.com -->
    <title>🧬 Logos/Product MH/MH Innov@3x</title>
    <desc>Created with Sketch.</desc>
    <defs>
        <path d="M116.237265,34.0270778 C116.237265,34.0270778 121.580684,29.3604111 121.580684,19.9547444 C121.580684,10.4363 116.237265,5.88163333 116.237265,5.88163333 C116.237265,5.88163333 127.266987,8.41096667 127.266987,19.9547444 C127.266987,31.1220778 116.237265,34.0270778 116.237265,34.0270778 Z M11.0281697,5.88163333 C11.0281697,5.88163333 5.68630303,10.5459667 5.68630303,19.9547444 C5.68630303,29.4724111 11.0281697,34.0270778 11.0281697,34.0270778 C11.0281697,34.0270778 4.54747351e-13,31.4954111 4.54747351e-13,19.9547444 C4.54747351e-13,8.78663333 11.0281697,5.88163333 11.0281697,5.88163333 Z" id="path-1"></path>
        <path d="M36.51072,8.37752222 L36.51072,15.6030778 L33.614817,15.6030778 L33.614817,8.79907778 C33.614817,7.53518889 32.8631079,6.73796667 31.6917139,6.73796667 C30.52032,6.73796667 29.7686109,7.53518889 29.7686109,8.79907778 L29.7686109,15.6030778 L26.8727079,15.6030778 L26.8727079,8.79907778 C26.8727079,7.53518889 26.14272,6.73796667 24.9713261,6.73796667 C23.7999321,6.73796667 23.0257261,7.53518889 23.0257261,8.79907778 L23.0257261,15.6030778 L20.15232,15.6030778 L20.15232,4.6543 L23.0257261,4.6543 L23.0257261,6.40507778 C23.6672776,5.09763333 24.7285139,4.43341111 26.2319321,4.43341111 C27.7345745,4.43341111 28.8834715,5.20807778 29.4148655,6.53885556 C30.03392,5.23063333 31.2495321,4.43341111 32.8188897,4.43341111 C35.029023,4.43341111 36.51072,6.00685556 36.51072,8.37752222 Z M44.2948267,13.2982111 C45.1566933,13.2982111 45.8416873,12.9886556 46.3948024,12.3889889 C46.9471418,11.7908778 47.2132267,11.0379889 47.2132267,10.1287667 C47.2132267,8.26676667 45.9968388,6.93754444 44.2948267,6.93754444 C42.5928145,6.93754444 41.3539297,8.26676667 41.3539297,10.1287667 C41.3539297,11.0379889 41.6417358,11.7908778 42.1948509,12.3889889 C42.7471903,12.9886556 43.43296,13.2982111 44.2948267,13.2982111 Z M47.2132267,4.65398889 L50.1083539,4.65398889 L50.1083539,15.6027667 L47.2132267,15.6027667 L47.2132267,13.8302111 C46.2621479,15.1368778 44.9798206,15.8026556 43.3662448,15.8026556 C41.9295418,15.8026556 40.7356509,15.2706556 39.8070691,14.2058778 C38.8567661,13.1434333 38.392863,11.7908778 38.392863,10.1287667 C38.392863,8.46665556 38.8567661,7.1141 39.8070691,6.02832222 C40.7356509,4.9651 41.9295418,4.4331 43.3662448,4.4331 C44.9798206,4.4331 46.2621479,5.09732222 47.2132267,6.40554444 L47.2132267,4.65398889 Z M52.7180024,15.6026111 L52.7180024,0.222055556 L55.5921842,0.222055556 L55.5921842,15.6026111 L52.7180024,15.6026111 Z M63.5066182,13.2982111 C64.3684848,13.2982111 65.0542545,12.9886556 65.6065939,12.3889889 C66.1597091,11.7908778 66.4250182,11.0379889 66.4250182,10.1287667 C66.4250182,8.26676667 65.2086303,6.93754444 63.5066182,6.93754444 C61.8046061,6.93754444 60.566497,8.26676667 60.566497,10.1287667 C60.566497,11.0379889 60.854303,11.7908778 61.4066424,12.3889889 C61.9597576,12.9886556 62.6447515,13.2982111 63.5066182,13.2982111 Z M66.4250182,4.65398889 L69.3201455,4.65398889 L69.3201455,15.6027667 L66.4250182,15.6027667 L66.4250182,13.8302111 C65.4747152,15.1368778 64.1916121,15.8026556 62.5780364,15.8026556 C61.1413333,15.8026556 59.9474424,15.2706556 59.0188606,14.2058778 C58.0685576,13.1434333 57.6046545,11.7908778 57.6046545,10.1287667 C57.6046545,8.46665556 58.0685576,7.1141 59.0188606,6.02832222 C59.9474424,4.9651 61.1413333,4.4331 62.5780364,4.4331 C64.1916121,4.4331 65.4747152,5.09732222 66.4250182,6.40554444 L66.4250182,4.65398889 Z M82.2766933,4.65422222 L77.6780024,9.863 L82.2766933,15.603 L78.8718933,15.603 L74.8045964,10.3506667 L74.8045964,15.603 L71.9304145,15.603 L71.9304145,0.222444444 L74.8045964,0.222444444 L74.8045964,9.41966667 L78.8718933,4.65422222 L82.2766933,4.65422222 Z M89.241057,6.93738889 C88.3799661,6.93738889 87.6941964,7.22594444 87.1410812,7.82405556 C86.5887418,8.42216667 86.322657,9.19761111 86.322657,10.1286111 C86.322657,11.9688333 87.5390448,13.2980556 89.241057,13.2980556 C90.9430691,13.2980556 92.1819539,11.9688333 92.1819539,10.1286111 C92.1819539,9.19761111 91.9158691,8.42216667 91.3635297,7.82405556 C90.8104145,7.22594444 90.1029236,6.93738889 89.241057,6.93738889 Z M89.2635539,4.43294444 C90.9663418,4.43294444 92.3805479,4.96494444 93.4860024,6.02816667 C94.5906812,7.11394444 95.1430206,8.4665 95.1430206,10.1286111 C95.1430206,11.7907222 94.5906812,13.1432778 93.4860024,14.2065 C92.3805479,15.2705 90.9663418,15.8025 89.2635539,15.8025 C87.5615418,15.8025 86.14656,15.2705 85.0411055,14.2065 C83.9139297,13.1432778 83.3615903,11.7907222 83.3615903,10.1286111 C83.3615903,8.4665 83.9139297,7.11394444 85.0411055,6.02816667 C86.14656,4.96494444 87.5615418,4.43294444 89.2635539,4.43294444 Z M107.127389,3.56844444 L107.127389,4.65422222 L109.24831,4.65422222 L109.24831,7.04822222 L107.127389,7.04822222 L107.127389,15.603 L104.23071,15.603 L104.23071,7.04822222 L102.904941,7.04822222 L100.782468,7.04822222 L100.782468,15.603 L97.9082861,15.603 L97.9082861,7.04822222 L96.3831467,7.04822222 L96.3831467,4.65422222 L97.9082861,4.65422222 L97.9082861,3.56844444 C97.9082861,2.527 98.2845285,1.68388889 99.0579588,0.997111111 C99.8321648,0.332888889 100.804965,0 101.998856,0 C102.352601,0 102.661353,0.0217777778 102.904941,0.0886666667 L102.904941,2.59311111 C102.572916,2.48266667 102.263389,2.43833333 102.020577,2.43833333 C101.313862,2.43833333 100.782468,2.88166667 100.782468,3.56844444 L100.782468,4.65422222 L102.904941,4.65422222 L104.23071,4.65422222 L104.23071,3.56844444 C104.23071,2.527 104.606953,1.68388889 105.380383,0.997111111 C106.154589,0.332888889 107.127389,0 108.320504,0 C108.652528,0 108.96128,0.0217777778 109.24831,0.0886666667 L109.24831,2.59311111 C108.918613,2.48266667 108.607535,2.43833333 108.364722,2.43833333 C107.634735,2.43833333 107.127389,2.88166667 107.127389,3.56844444 Z M30.8850036,25.4628111 C31.6367127,26.2833667 32.0129552,27.3248111 32.0129552,28.5879222 L32.0129552,35.4370333 L29.1170521,35.4370333 L29.1170521,29.0094778 C29.1170521,27.5682556 28.2109673,26.5711444 26.8619248,26.5711444 C25.46944,26.5711444 24.5408582,27.5239222 24.5408582,29.0094778 L24.5408582,35.4370333 L21.6666764,35.4370333 L21.6666764,20.0557 L24.5408582,20.0557 L24.5408582,26.1939222 C25.3142885,24.9090333 26.4414642,24.2665889 27.9448824,24.2665889 C29.1612703,24.2665889 30.1340703,24.6655889 30.8850036,25.4628111 Z M44.6804558,24.4875556 L44.6804558,30.8933333 C44.6804558,32.2902222 44.2165527,33.4413333 43.2654739,34.307 C42.3151709,35.1928889 41.0778376,35.6354444 39.5519224,35.6354444 C38.026783,35.6354444 36.7894497,35.1928889 35.8383709,34.307 C34.8655709,33.4413333 34.3791709,32.2902222 34.3791709,30.8933333 L34.3791709,24.4875556 L37.2533527,24.4875556 L37.2533527,30.8933333 C37.2533527,32.3112222 38.1819345,33.2655556 39.5302012,33.2655556 C40.8784679,33.2655556 41.8062739,32.3112222 41.8062739,30.8933333 L41.8062739,24.4875556 L44.6804558,24.4875556 Z M63.5392,28.2108556 L63.5392,35.4371889 L60.643297,35.4371889 L60.643297,28.6324111 C60.643297,27.3685222 59.8915879,26.5713 58.7201939,26.5713 C57.5488,26.5713 56.7970909,27.3685222 56.7970909,28.6324111 L56.7970909,35.4371889 L53.9011879,35.4371889 L53.9011879,28.6324111 C53.9011879,27.3685222 53.1712,26.5713 51.9998061,26.5713 C50.8284121,26.5713 50.0542061,27.3685222 50.0542061,28.6324111 L50.0542061,35.4371889 L47.1808,35.4371889 L47.1808,24.4876333 L50.0542061,24.4876333 L50.0542061,26.2384111 C50.6957576,24.9309667 51.7569939,24.2667444 53.2604121,24.2667444 C54.7630545,24.2667444 55.9119515,25.0414111 56.4433455,26.3721889 C57.0624,25.0639667 58.2780121,24.2667444 59.8473697,24.2667444 C62.057503,24.2667444 63.5392,25.8401889 63.5392,28.2108556 Z M71.3225309,33.1315444 C72.1843976,33.1315444 72.8701673,32.8219889 73.4225067,32.2223222 C73.9756218,31.6249889 74.2409309,30.8713222 74.2409309,29.9621 C74.2409309,28.1001 73.024543,26.7708778 71.3225309,26.7708778 C69.6205188,26.7708778 68.3824097,28.1001 68.3824097,29.9621 C68.3824097,30.8713222 68.6702158,31.6249889 69.2225552,32.2223222 C69.7756703,32.8219889 70.4606642,33.1315444 71.3225309,33.1315444 Z M74.2409309,24.4873222 L77.1360582,24.4873222 L77.1360582,35.4368778 L74.2409309,35.4368778 L74.2409309,33.6643222 C73.2906279,34.9702111 72.0075248,35.6359889 70.3939491,35.6359889 C68.9572461,35.6359889 67.7633552,35.1039889 66.8347733,34.0399889 C65.8844703,32.9767667 65.4205673,31.6249889 65.4205673,29.9621 C65.4205673,28.2999889 65.8844703,26.9474333 66.8347733,25.8616556 C67.7633552,24.7984333 68.9572461,24.2664333 70.3939491,24.2664333 C72.0075248,24.2664333 73.2906279,24.9306556 74.2409309,26.2388778 L74.2409309,24.4873222 Z M89.0092606,25.4628111 C89.7384727,26.2833667 90.1147152,27.3248111 90.1147152,28.5879222 L90.1147152,35.4370333 L87.2413091,35.4370333 L87.2413091,29.0094778 C87.2413091,27.5239222 86.3119515,26.5711444 84.9636848,26.5711444 C83.5704242,26.5711444 82.6643394,27.5682556 82.6643394,29.0094778 L82.6643394,35.4370333 L79.7684364,35.4370333 L79.7684364,24.4874778 L82.6643394,24.4874778 L82.6643394,26.1278111 C83.4385455,24.8864778 84.5657212,24.2665889 86.0908606,24.2665889 C87.2847515,24.2665889 88.2567758,24.6655889 89.0092606,25.4628111 Z M92.6578812,35.4367222 L92.6578812,24.4871667 L95.5537842,24.4871667 L95.5537842,35.4367222 L92.6578812,35.4367222 Z M94.0945842,23.0475 C93.0558448,23.0475 92.3483539,22.3607222 92.3483539,21.4515 C92.3483539,20.4987222 93.0558448,19.8337222 94.0945842,19.8337222 C94.6034812,19.8337222 95.045663,19.9885 95.3776873,20.2762778 C96.4381479,21.2298333 95.6864388,23.1797222 94.0945842,23.0475 Z M102.452441,24.2665111 C103.778211,24.2665111 104.861168,24.5978444 105.70209,25.2418444 C106.541459,25.8842889 106.961144,26.7266222 106.961144,27.7462889 L104.33055,27.7462889 C104.264611,26.8814 103.535399,26.2832889 102.473387,26.2832889 C101.500587,26.2832889 100.816368,26.7709556 100.816368,27.4795111 C100.816368,28.2782889 101.612296,28.5878444 103.446187,28.9650667 C104.441484,29.1416222 105.525217,29.4970667 106.409581,30.1838444 C106.916926,30.6271778 107.293168,31.3590667 107.293168,32.2224 C107.293168,33.2202889 106.850987,34.0400667 105.98912,34.6832889 C105.104756,35.3257333 103.977581,35.6360667 102.585096,35.6360667 C101.17089,35.6360667 100.020441,35.3031778 99.1135806,34.6389556 C98.20672,33.9739556 97.7653139,33.1316222 97.7653139,32.0901778 L100.551059,32.0901778 C100.616999,32.9768444 101.413702,33.5749556 102.562599,33.5749556 C103.623835,33.5749556 104.375544,33.0429556 104.375544,32.3110667 C104.375544,31.5138444 103.579617,31.2260667 101.811665,30.8480667 C101.65729,30.8270667 101.545581,30.8045111 101.479641,30.7819556 C99.1577988,30.2289556 97.9864048,29.1859556 97.9864048,27.6125111 C97.9864048,26.6161778 98.4068655,25.8174 99.2245139,25.1975111 C100.043714,24.5760667 101.125896,24.2665111 102.452441,24.2665111 Z M38.8334933,55.2700556 L38.8334933,44.4006111 L40.51456,44.4006111 L40.51456,55.2700556 L38.8334933,55.2700556 Z M38.5247418,41.5166111 C38.5247418,40.8967222 38.9886448,40.4526111 39.6744145,40.4526111 C40.3167418,40.4526111 40.8031418,40.8967222 40.8031418,41.5166111 C40.9575176,42.9368333 38.3913115,42.9368333 38.5247418,41.5166111 Z M51.8634279,45.4430667 C52.6601309,46.2651778 53.0588703,47.3727333 53.0588703,48.7268444 L53.0588703,55.2702889 L51.3770279,55.2702889 L51.3770279,48.9267333 C51.3770279,46.8850667 50.138143,45.5768444 48.2577067,45.5768444 C46.3330521,45.5768444 45.0933915,46.8850667 45.0933915,48.9267333 L45.0933915,55.2702889 L43.3906036,55.2702889 L43.3906036,44.4008444 L45.0933915,44.4008444 L45.0933915,46.3312889 C45.8233794,44.9344 47.040543,44.2242889 48.7441067,44.2242889 C50.0272097,44.2242889 51.0667248,44.6225111 51.8634279,45.4430667 Z M64.3391612,45.4430667 C65.1358642,46.2651778 65.5338279,47.3727333 65.5338279,48.7268444 L65.5338279,55.2702889 L63.8519855,55.2702889 L63.8519855,48.9267333 C63.8519855,46.8850667 62.6131006,45.5768444 60.7326642,45.5768444 C58.8087855,45.5768444 57.5691248,46.8850667 57.5691248,48.9267333 L57.5691248,55.2702889 L55.8655612,55.2702889 L55.8655612,44.4008444 L57.5691248,44.4008444 L57.5691248,46.3312889 C58.2991127,44.9344 59.5162764,44.2242889 61.21984,44.2242889 C62.502943,44.2242889 63.5424582,44.6225111 64.3391612,45.4430667 Z M70.5315685,46.8626667 C69.7790836,47.6396667 69.4028412,48.6375556 69.4028412,49.8353333 C69.4028412,51.0556667 69.7790836,52.0317778 70.5315685,52.808 C71.2840533,53.5842222 72.2351321,53.9832222 73.4080776,53.9832222 C74.5577503,53.9832222 75.5096048,53.5842222 76.2613139,52.808 C77.013023,52.0317778 77.3892655,51.0556667 77.3892655,49.8353333 C77.3892655,48.6375556 77.013023,47.6396667 76.2613139,46.8626667 C75.5096048,46.0872222 74.5577503,45.71 73.4080776,45.71 C72.2351321,45.71 71.2840533,46.0872222 70.5315685,46.8626667 Z M77.5001988,45.7986667 C78.5847079,46.8626667 79.1153261,48.216 79.1153261,49.8353333 C79.1153261,51.4538889 78.5847079,52.808 77.5001988,53.872 C76.4164655,54.9375556 75.0666473,55.4687778 73.4080776,55.4687778 C71.7479564,55.4687778 70.3989139,54.9375556 69.3144048,53.872 C68.2306715,52.808 67.6775564,51.4538889 67.6775564,49.8353333 C67.6775564,48.216 68.2081745,46.8626667 69.2926836,45.7986667 C70.376417,44.7564444 71.7479564,44.2236667 73.4080776,44.2236667 C75.0666473,44.2236667 76.4164655,44.7564444 77.5001988,45.7986667 Z M89.1122812,44.401 L90.905057,44.401 L86.5235782,55.2704444 L84.5104873,55.2704444 L80.1297842,44.401 L81.9217842,44.401 L85.5282812,53.5842222 L89.1122812,44.401 Z" id="path-3"></path>
    </defs>
    <g id="🧬-Logos/Product-MH/MH-Innov" stroke="none" stroke-width="1" fill="none" fill-rule="evenodd">
        <mask id="mask-2" fill="white">
            <use xlink:href="#path-1"></use>
        </mask>
        <use id="Mask" fill="#FF4B33" xlink:href="#path-1"></use>
        <mask id="mask-4" fill="white">
            <use xlink:href="#path-3"></use>
        </mask>
        <use id="Mask" fill="#1A283E" xlink:href="#path-3"></use>
    </g>
</svg>