<?xml version="1.0" encoding="UTF-8"?>
<svg width="171px" height="56px" viewBox="0 0 171 56" version="1.1" xmlns="http://www.w3.org/2000/svg" xmlns:xlink="http://www.w3.org/1999/xlink">
    <!-- Generator: Sketch 61 (89581) - https://sketch.com -->
    <title>🧬 Logos/Product MH/SolutionsPME</title>
    <desc>Created with Sketch.</desc>
    <defs>
        <path d="M53.4736408,9.1534838 C53.4736408,10.8158689 54.5791528,12.0178528 56.1267237,12.0178528 C57.6944656,12.0178528 58.7999776,10.8158689 58.7999776,9.1534838 C58.7999776,7.47099701 57.6944656,6.26925532 56.1267237,6.26925532 C54.5791528,6.26925532 53.4736408,7.47099701 53.4736408,9.1534838 M52.0044933,48.2669061 C53.1085472,48.2669061 54.0310628,48.779378 54.6361903,49.608633 L54.6361903,48.4177898 L56.6175575,48.4177898 L56.6175575,55.8638898 L54.6361903,55.8638898 L54.6361903,54.6582731 C54.0310628,55.5020595 53.1085472,56 52.0044933,56 C50.0381936,56 48.6011981,54.3865371 48.6011981,52.1409609 C48.6011981,49.8951426 50.0381936,48.2669061 52.0044933,48.2669061 Z M100.103719,48.4181047 L100.103719,52.7738733 C100.103719,53.738512 100.723914,54.3866097 101.661254,54.3866097 C102.598837,54.3866097 103.219275,53.738512 103.219275,52.7738733 L103.219275,48.4181047 L105.185331,48.4181047 L105.185331,52.7738733 C105.185331,54.6733615 103.748579,55.9995883 101.676564,55.9995883 C99.5894818,55.9995883 98.1374189,54.6733615 98.1374189,52.7738733 L98.1374189,48.4181047 L100.103719,48.4181047 Z M70.2608975,48.2669061 C72.5900307,48.2669061 74.2839016,49.8951426 74.2839016,52.1409609 C74.2839016,54.3865371 72.5900307,56 70.2608975,56 C67.9164538,56 66.222583,54.3865371 66.222583,52.1409609 C66.222583,49.8951426 67.9164538,48.2669061 70.2608975,48.2669061 Z M144.708466,48.2672452 C146.522877,48.2672452 147.793645,49.2468995 147.793645,50.6336736 L145.994059,50.6336736 C145.948127,50.0453966 145.449444,49.6390035 144.723048,49.6390035 C144.057894,49.6390035 143.588859,49.9708024 143.588859,50.4525163 C143.588859,51.0407933 144.33008,51.236482 145.388688,51.4624443 C146.478161,51.6886488 148.020871,52.1413 148.020871,53.6782312 C148.020871,55.0497473 146.689834,55.9996125 144.799357,55.9996125 C142.863192,55.9996125 141.501534,55.0047002 141.501534,53.5876525 L143.407321,53.5876525 C143.453009,54.1909452 143.997624,54.5975805 144.783561,54.5975805 C145.5102,54.5975805 146.024436,54.2359924 146.024436,53.7385362 C146.024436,53.0906807 145.116502,52.9395548 144.042583,52.6985768 C142.938286,52.4428252 141.652937,51.9146111 141.652937,50.5430949 C141.652937,49.2018524 142.893327,48.2672452 144.708466,48.2672452 Z M38.86059,48.2669061 C39.9646439,48.2669061 40.8874025,48.779378 41.492287,49.608633 L41.492287,48.4177898 L43.4736541,48.4177898 L43.4736541,55.8638898 L41.492287,55.8638898 L41.492287,54.6582731 C40.8874025,55.5020595 39.9646439,56 38.86059,56 C36.8942903,56 35.4575378,54.3865371 35.4575378,52.1409609 C35.4575378,49.8951426 36.8942903,48.2669061 38.86059,48.2669061 Z M122.776533,48.2669061 C123.88083,48.2669061 124.803345,48.779378 125.408473,49.608633 L125.408473,48.4177898 L127.389354,48.4177898 L127.389354,55.8638898 L125.408473,55.8638898 L125.408473,54.6582731 C124.803345,55.5020595 123.88083,56 122.776533,56 C120.810476,56 119.37348,54.3865371 119.37348,52.1409609 C119.37348,49.8951426 120.810476,48.2669061 122.776533,48.2669061 Z M31.6454778,48.2669061 C33.1580534,48.2669061 34.1712167,49.3523971 34.1712167,50.9501177 L34.1712167,55.8638898 L32.1900925,55.8638898 L32.1900925,51.2368695 C32.1900925,50.377583 31.6906801,49.8350797 30.8741225,49.8350797 C30.0726324,49.8350797 29.5581525,50.377583 29.5581525,51.2368695 L29.5581525,55.8638898 L27.5770284,55.8638898 L27.5770284,51.2368695 C27.5770284,50.377583 27.077859,49.8350797 26.2761258,49.8350797 C25.4593253,49.8350797 24.9450884,50.377583 24.9450884,51.2368695 L24.9450884,55.8638898 L22.9790317,55.8638898 L22.9790317,48.4177898 L24.9450884,48.4177898 L24.9450884,49.608633 C25.3536102,48.7648466 26.1249655,48.2669061 27.1383717,48.2669061 C28.1668454,48.2669061 28.9532681,48.8096516 29.3163446,49.6992117 C29.7246234,48.8249095 30.5715588,48.2669061 31.6454778,48.2669061 Z M139.989274,48.4176929 L139.989274,55.8637929 L138.007907,55.8637929 L138.007907,48.4176929 L139.989274,48.4176929 Z M47.2249341,45.4031668 L47.2249341,55.8637929 L45.2586344,55.8637929 L45.2586344,45.4031668 L47.2249341,45.4031668 Z M60.3689103,45.4035059 L60.3689103,51.6585205 L63.1517676,48.4177898 L65.4811439,48.4177898 L62.3349671,51.9600457 L65.4811439,55.8638898 L63.1517676,55.8638898 L60.3689103,52.2916024 L60.3689103,55.8638898 L58.4026106,55.8638898 L58.4026106,45.4035059 L60.3689103,45.4035059 Z M133.515601,48.2668092 C135.149202,48.2668092 136.268324,49.4731525 136.268324,51.2062568 L136.268324,55.8637929 L134.301538,55.8637929 L134.301538,51.4930085 C134.301538,50.497854 133.681586,49.8347406 132.744246,49.8347406 C131.80642,49.8347406 131.170914,50.497854 131.170914,51.4930085 L131.170914,55.8637929 L129.18979,55.8637929 L129.18979,48.4176929 L131.170914,48.4176929 L131.170914,49.5334575 C131.655259,48.7494918 132.502195,48.2668092 133.515601,48.2668092 Z M115.561177,48.2669061 C117.07351,48.2669061 118.087159,49.3523971 118.087159,50.9501177 L118.087159,55.8638898 L116.105792,55.8638898 L116.105792,51.2368695 C116.105792,50.377583 115.606866,49.8350797 114.789822,49.8350797 C113.988575,49.8350797 113.474338,50.377583 113.474338,51.2368695 L113.474338,55.8638898 L111.492485,55.8638898 L111.492485,51.2368695 C111.492485,50.377583 110.993802,49.8350797 110.192068,49.8350797 C109.374782,49.8350797 108.860788,50.377583 108.860788,51.2368695 L108.860788,55.8638898 L106.894731,55.8638898 L106.894731,48.4177898 L108.860788,48.4177898 L108.860788,49.608633 C109.26931,48.7648466 110.040665,48.2669061 111.054071,48.2669061 C112.082545,48.2669061 112.868968,48.8096516 113.231801,49.6992117 C113.640323,48.8249095 114.487258,48.2669061 115.561177,48.2669061 Z M91.4063843,45.4031668 L91.4063843,49.5782625 C91.8907293,48.7645076 92.7070439,48.2668092 93.7357606,48.2668092 C95.3841861,48.2668092 96.5183748,49.4731525 96.5183748,51.2062568 L96.5183748,55.8637929 L94.5374937,55.8637929 L94.5374937,51.4930085 C94.5374937,50.497854 93.9170558,49.8347406 92.9945402,49.8347406 C92.0418897,49.8347406 91.4063843,50.497854 91.4063843,51.4930085 L91.4063843,55.8637929 L89.4405706,55.8637929 L89.4405706,45.4031668 L91.4063843,45.4031668 Z M83.2988184,45.2524042 C83.4803567,45.2524042 83.7221647,45.2674199 83.9338378,45.3129514 L83.9338378,47.0165086 C83.7377181,46.9562036 83.4954241,46.9106721 83.3289533,46.9106721 C82.8297839,46.9106721 82.4820179,47.2121973 82.4820179,47.6793799 L82.4820179,48.4180562 L83.9338378,48.4180562 L83.9338378,50.0458083 L82.4820179,50.0458083 L82.4820179,55.863914 L80.5006507,55.863914 L80.5006507,50.0458083 L78.1411396,50.0458083 L78.1411396,55.863914 L76.1748399,55.863914 L76.1748399,50.0458083 L75.1312988,50.0458083 L75.1312988,48.4180562 L76.1748399,48.4180562 L76.1748399,47.6793799 C76.1748399,46.2623322 77.3396495,45.2524042 78.9730076,45.2524042 C79.1545459,45.2524042 79.3965968,45.2674199 79.5929595,45.3129514 L79.5929595,47.0165086 C79.3965968,46.9562036 79.1696133,46.9106721 78.9883181,46.9106721 C78.5042161,46.9106721 78.1411396,47.2121973 78.1411396,47.6793799 L78.1411396,48.4180562 L80.5006507,48.4180562 L80.5006507,47.6793799 C80.5006507,46.2623322 81.6652173,45.2524042 83.2988184,45.2524042 Z M52.6397557,49.9704633 C51.4751891,49.9704633 50.6282536,50.874797 50.6282536,52.1409609 C50.6282536,53.3918669 51.4751891,54.2962006 52.6397557,54.2962006 C53.8043223,54.2962006 54.6361903,53.3918669 54.6361903,52.1409609 C54.6361903,50.874797 53.8043223,49.9704633 52.6397557,49.9704633 Z M39.4958524,49.9704633 C38.3312858,49.9704633 37.4843503,50.874797 37.4843503,52.1409609 C37.4843503,53.3918669 38.3312858,54.2962006 39.4958524,54.2962006 C40.660419,54.2962006 41.492287,53.3918669 41.492287,52.1409609 C41.492287,50.874797 40.660419,49.9704633 39.4958524,49.9704633 Z M70.2458301,49.9704633 C69.0810204,49.9704633 68.2493955,50.874797 68.2493955,52.1409609 C68.2493955,53.3918669 69.0810204,54.2962006 70.2458301,54.2962006 C71.4254641,54.2962006 72.2573321,53.3918669 72.2573321,52.1409609 C72.2573321,50.874797 71.4254641,49.9704633 70.2458301,49.9704633 Z M123.412038,49.9704633 C122.246985,49.9704633 121.400293,50.874797 121.400293,52.1409609 C121.400293,53.3918669 122.246985,54.2962006 123.412038,54.2962006 C124.576362,54.2962006 125.408473,53.3918669 125.408473,52.1409609 C125.408473,50.874797 124.576362,49.9704633 123.412038,49.9704633 Z M18.6138268,5.65901177 C18.6138268,5.65901177 10.0820155,13.0673303 10.0820155,27.9999758 C10.0820155,43.1096614 18.6138268,50.341182 18.6138268,50.341182 C18.6138268,50.341182 1,46.3256888 1,27.9999758 C1,10.2710164 18.6138268,5.65901177 18.6138268,5.65901177 Z M152.386173,5.65893911 C152.386173,5.65893911 170,9.67443228 170,27.9999031 C170,45.7286203 152.386173,50.3408671 152.386173,50.3408671 C152.386173,50.3408671 160.917741,42.9323065 160.917741,27.9999031 C160.917741,12.8902175 152.386173,5.65893911 152.386173,5.65893911 Z M138.990935,45.2525253 C139.701535,45.2525253 140.20119,45.7046921 140.20119,46.3530319 C140.20119,46.9858717 139.701535,47.4380385 138.990935,47.4380385 C138.294917,47.4380385 137.796234,46.9858717 137.796234,46.3530319 C137.796234,45.7046921 138.294917,45.2525253 138.990935,45.2525253 Z M30.0793155,24.349752 C32.6920567,24.349752 34.5813181,26.5134683 34.5813181,29.4974786 C34.5813181,32.4819734 32.6920567,34.6251036 30.0793155,34.6251036 C28.6121852,34.6251036 27.3659628,33.9639277 26.5620425,32.8428349 L26.5620425,38.4509628 L23.9493014,38.4509628 L23.9493014,24.5500423 L26.5620425,24.5500423 L26.5620425,26.132505 C27.3659628,25.0312718 28.6121852,24.349752 30.0793155,24.349752 Z M41.2539056,24.349752 C44.3490476,24.349752 46.6001704,26.5134683 46.6001704,29.4974786 C46.6001704,32.4819734 44.3490476,34.6251036 41.2539056,34.6251036 C38.1385928,34.6251036 35.88747,32.4819734 35.88747,29.4974786 C35.88747,26.5134683 38.1385928,24.349752 41.2539056,24.349752 Z M50.9410243,24.5504298 L50.9410243,30.3387463 C50.9410243,31.6206525 51.7651156,32.4823609 53.0110949,32.4823609 C54.2573173,32.4823609 55.0814086,31.6206525 55.0814086,30.3387463 L55.0814086,24.5504298 L57.6941497,24.5504298 L57.6941497,30.3387463 C57.6941497,32.8625975 55.7847174,34.6250067 53.0312659,34.6250067 C50.2576434,34.6250067 48.3280402,32.8625975 48.3280402,30.3387463 L48.3280402,24.5504298 L50.9410243,24.5504298 Z M83.1181794,24.3497762 C86.2133213,24.3497762 88.4442732,26.5134925 88.4644441,29.5176045 C88.4644441,29.7779577 88.4442732,30.0581703 88.3837605,30.2989062 L80.3644849,30.2989062 C80.6862474,31.6006719 81.7713455,32.5018571 83.1383503,32.5018571 C84.303889,32.5018571 85.2886185,31.8213061 85.6507229,30.9196365 L88.2833919,30.9196365 C87.7205505,33.0831106 85.5700393,34.62537 83.1181794,34.62537 C80.0028665,34.62537 77.7517437,32.4819976 77.7517437,29.4975029 C77.7517437,26.5134925 80.0028665,24.3497762 83.1181794,24.3497762 Z M94.1719384,24.3501153 C96.5839425,24.3501153 98.2722238,25.6521232 98.2722238,27.4944547 L95.8801476,27.4944547 C95.8198779,26.7133953 95.1569109,26.1725873 94.1921093,26.1725873 C93.3075053,26.1725873 92.6846371,26.6131291 92.6846371,27.2544455 C92.6846371,28.0352627 93.6696097,28.2961002 95.0764703,28.5964146 C96.5236727,28.8967289 98.5733294,29.4975997 98.5733294,31.5404637 C98.5733294,33.3631779 96.8048505,34.6249825 94.2924778,34.6249825 C91.7198355,34.6249825 89.9112577,33.3031151 89.9112577,31.420338 L92.4435582,31.420338 C92.503828,32.2219835 93.2270647,32.7623071 94.27255,32.7623071 C95.2373516,32.7623071 95.9202464,32.2820464 95.9202464,31.6206283 C95.9202464,30.7591621 94.7143659,30.559114 93.2873344,30.238698 C91.8204471,29.8984225 90.1119948,29.1970432 90.1119948,27.374329 C90.1119948,25.5920604 91.7601773,24.3501153 94.1719384,24.3501153 Z M66.1755094,24.2296263 L66.1755094,26.8336421 C64.0048272,26.8336421 62.5777957,27.9155003 62.5777957,29.6776672 L62.5777957,34.4451572 L59.9650546,34.4451572 L59.9650546,24.5500423 L62.5777957,24.5500423 L62.5777957,26.7534776 C63.2611766,25.1714992 64.5273269,24.2296263 66.1755094,24.2296263 Z M147.050504,20.5442609 L147.050504,22.9879476 L140.0563,22.9879476 L140.0563,26.252655 L146.508077,26.252655 L146.508077,28.6161772 L140.0563,28.6161772 L140.0563,31.981393 L147.050504,31.981393 L147.050504,34.4451814 L137.26275,34.4451814 L137.26275,20.5442609 L147.050504,20.5442609 Z M123.133339,20.544164 L126.811493,30.7793122 L130.489891,20.544164 L134.529663,20.544164 L134.529663,34.4448423 L131.73587,34.4448423 L131.73587,23.9893022 L127.997446,34.4448423 L125.60537,34.4448423 L121.887117,23.9893022 L121.887117,34.4448423 L119.093566,34.4448423 L119.093566,20.544164 L123.133339,20.544164 Z M112.541883,20.544164 C115.355847,20.544164 117.325306,22.4266989 117.325306,25.1711844 C117.325306,27.8950837 115.355847,29.7979625 112.541883,29.7979625 L109.265689,29.7979625 L109.265689,34.4448423 L106.472138,34.4448423 L106.472138,20.544164 L112.541883,20.544164 Z M75.9230436,20.544164 L75.9230436,34.4448423 L73.3103025,34.4448423 L73.3103025,20.544164 L75.9230436,20.544164 Z M41.2337347,26.6134923 C39.6861637,26.6134923 38.5806517,27.815234 38.5806517,29.4974786 C38.5806517,31.1598638 39.6861637,32.3618476 41.2337347,32.3618476 C42.8014766,32.3618476 43.9069886,31.1598638 43.9069886,29.4974786 C43.9069886,27.815234 42.8014766,26.6134923 41.2337347,26.6134923 Z M29.2552243,26.6134923 C27.6874824,26.6134923 26.5620425,27.815234 26.5620425,29.4974786 C26.5620425,31.1598638 27.6874824,32.3618476 29.2552243,32.3618476 C30.7828674,32.3618476 31.9083072,31.1598638 31.9083072,29.4974786 C31.9083072,27.815234 30.7828674,26.6134923 29.2552243,26.6134923 Z M83.1383503,26.4732892 C81.892128,26.4732892 80.8872275,27.2141452 80.4650964,28.3158629 L85.9119727,28.3158629 C85.5097695,27.2342469 84.4244284,26.4732892 83.1383503,26.4732892 Z M112.240048,22.9878508 L109.265689,22.9878508 L109.265689,27.4346825 L112.240048,27.4346825 C113.586639,27.4346825 114.471243,26.5131535 114.471243,25.2111455 C114.471243,23.8892781 113.586639,22.9878508 112.240048,22.9878508 Z M70.8181251,4.20619277 L70.8181251,9.99475142 C70.8181251,11.2766577 71.6422164,12.1381238 72.8881957,12.1381238 C74.1344181,12.1381238 74.9585093,11.2766577 74.9585093,9.99475142 L74.9585093,4.20619277 L77.5712505,4.20619277 L77.5712505,9.99475142 C77.5712505,12.5186027 75.6618181,14.2810119 72.9083666,14.2810119 C70.1347442,14.2810119 68.205141,12.5186027 68.205141,9.99475142 L68.205141,4.20619277 L70.8181251,4.20619277 Z M56.1468947,4.00575718 C59.2420366,4.00575718 61.4931594,6.16923127 61.4931594,9.1534838 C61.4931594,12.1379785 59.2420366,14.2811087 56.1468947,14.2811087 C53.0315818,14.2811087 50.780459,12.1379785 50.780459,9.1534838 C50.780459,6.16923127 53.0315818,4.00575718 56.1468947,4.00575718 Z M97.1266616,4.00575718 C100.221318,4.00575718 102.472683,6.16923127 102.472683,9.1534838 C102.472683,12.1379785 100.221318,14.2811087 97.1266616,14.2811087 C94.0113487,14.2811087 91.760226,12.1379785 91.760226,9.1534838 C91.760226,6.16923127 94.0113487,4.00575718 97.1266616,4.00575718 Z M44.9520607,4.00587827 C47.3638218,4.00587827 49.0521031,5.30788619 49.0521031,7.1504599 L46.66027,7.1504599 C46.6000003,6.36940046 45.9367903,5.82859248 44.9719886,5.82859248 C44.0876277,5.82859248 43.4647595,6.26913423 43.4647595,6.91020844 C43.4647595,7.69126788 44.449489,7.95186321 45.8563496,8.25217754 C47.3035521,8.55273405 49.3536948,9.1536049 49.3536948,11.1964689 C49.3536948,13.0191831 47.5849728,14.2809876 45.0726002,14.2809876 C42.4999579,14.2809876 40.6911371,12.9591202 40.6911371,11.0763432 L43.2234376,11.0763432 C43.2837073,11.8777465 44.00743,12.4183123 45.0524293,12.4183123 C46.0172309,12.4183123 46.7006118,11.9378093 46.7006118,11.2766334 C46.7006118,10.4151673 45.4947313,10.2151192 44.0676998,9.89470315 C42.6005694,9.55418546 40.8921172,8.85304838 40.8921172,7.03033417 C40.8921172,5.24782333 42.5400567,4.00587827 44.9520607,4.00587827 Z M119.897754,4.00587827 C122.309758,4.00587827 123.99804,5.30788619 123.99804,7.1504599 L121.605963,7.1504599 C121.545694,6.36940046 120.882727,5.82859248 119.917925,5.82859248 C119.033321,5.82859248 118.410453,6.26913423 118.410453,6.91020844 C118.410453,7.69126788 119.395425,7.95186321 120.802286,8.25217754 C122.249489,8.55273405 124.299145,9.1536049 124.299145,11.1964689 C124.299145,13.0191831 122.530666,14.2809876 120.018294,14.2809876 C117.445651,14.2809876 115.637074,12.9591202 115.637074,11.0763432 L118.169374,11.0763432 C118.229644,11.8777465 118.95288,12.4183123 119.998366,12.4183123 C120.963167,12.4183123 121.646062,11.9378093 121.646062,11.2766334 C121.646062,10.4151673 120.440182,10.2151192 119.01315,9.89470315 C117.546263,9.55418546 115.837811,8.85304838 115.837811,7.03033417 C115.837811,5.24782333 117.485993,4.00587827 119.897754,4.00587827 Z M110.069463,4.0057814 C112.240389,4.0057814 113.72769,5.60834583 113.72769,7.91180516 L113.72769,14.1009444 L111.114949,14.1009444 L111.114949,8.29228403 C111.114949,6.97017443 110.290371,6.08909094 109.044392,6.08909094 C107.798656,6.08909094 106.954393,6.97017443 106.954393,8.29228403 L106.954393,14.1009444 L104.321481,14.1009444 L104.321481,4.20607168 L106.954393,4.20607168 L106.954393,5.68826819 C107.59719,4.64685561 108.722872,4.0057814 110.069463,4.0057814 Z M65.934552,0.200290281 L65.934552,14.1009686 L63.3218109,14.1009686 L63.3218109,0.200290281 L65.934552,0.200290281 Z M83.5203826,1.62235127 L83.5203826,4.20602324 L85.7309205,4.20602324 L85.7309205,6.36949734 L83.5203826,6.36949734 L83.5203826,14.1008959 L80.8874705,14.1008959 L80.8874705,6.36949734 L79.0380649,6.36949734 L79.0380649,4.20602324 L80.8874705,4.20602324 L80.8874705,1.62235127 L83.5203826,1.62235127 Z M89.9114522,4.20633809 L89.9114522,14.1009686 L87.2785401,14.1009686 L87.2785401,4.20633809 L89.9114522,4.20633809 Z M97.1064907,6.26925532 C95.5589197,6.26925532 94.4534077,7.47099701 94.4534077,9.1534838 C94.4534077,10.8158689 95.5589197,12.0178528 97.1064907,12.0178528 C98.6739896,12.0178528 99.7795016,10.8158689 99.7795016,9.1534838 C99.7795016,7.47099701 98.6739896,6.26925532 97.1064907,6.26925532 Z M88.5850322,0 C89.5296629,0 90.1928729,0.600870842 90.1928729,1.46209483 C90.1928729,2.30345932 89.5296629,2.90433017 88.5850322,2.90433017 C87.6600863,2.90433017 86.9973624,2.30345932 86.9973624,1.46209483 C86.9973624,0.600870842 87.6600863,0 88.5850322,0 Z" id="path-1"></path>
    </defs>
    <g id="🧬-Logos/Product-MH/SolutionsPME" stroke="none" stroke-width="1" fill="none" fill-rule="evenodd">
        <mask id="mask-2" fill="white">
            <use xlink:href="#path-1"></use>
        </mask>
        <use id="PME" fill="#FF4B33" xlink:href="#path-1"></use>
        <g id="🎨Couleurs/Primaires/Corail-MH-brand" mask="url(#mask-2)" fill="#FF4B33">
            <rect id="bgcolor" x="0" y="0" width="171" height="56"></rect>
        </g>
    </g>
</svg>