<?xml version="1.0" encoding="UTF-8"?>
<svg width="294px" height="56px" viewBox="0 0 294 56" version="1.1" xmlns="http://www.w3.org/2000/svg" xmlns:xlink="http://www.w3.org/1999/xlink">
    <!-- Generator: Sketch 55.2 (78181) - https://sketchapp.com -->
    <title>🧬 Logos/MH/Baseline right@3x</title>
    <desc>Created with Sketch.</desc>
    <defs>
        <path d="M95.8064568,7.59751564 C97.4438911,7.59751564 98.763735,8.14165278 99.7686878,9.23038014 C100.773191,10.3191075 101.275217,11.732233 101.275217,13.4697567 L101.275217,24.2238277 L96.9850496,24.2238277 L96.9850496,14.0963526 C96.9850496,13.1725428 96.7277385,12.430414 96.2144659,11.8695133 C95.701643,11.3086125 95.0088824,11.0286152 94.1348344,11.0286152 C93.2841783,11.0286152 92.5954663,11.3086125 92.0713974,11.8695133 C91.5473284,12.430414 91.2859688,13.1725428 91.2859688,14.0963526 L91.2859688,24.2238277 L86.9944516,24.2238277 L86.9944516,14.0963526 C86.9944516,13.1725428 86.73849,12.430414 86.2252173,11.8695133 C85.7123945,11.3086125 85.0304302,11.0286152 84.1779747,11.0286152 C83.3043766,11.0286152 82.6062178,11.3086125 82.0821489,11.8695133 C81.5580799,12.430414 81.2953707,13.1725428 81.2953707,14.0963526 L81.2953707,24.2238277 L77.0380417,24.2238277 L77.0380417,7.92780371 L81.2953707,7.92780371 L81.2953707,10.5334096 C81.7326196,9.61005286 82.3651011,8.89012453 83.1955142,8.37271851 C84.0259273,7.85621864 84.9746494,7.59751564 86.0457294,7.59751564 C87.1375021,7.59751564 88.0970206,7.87796601 88.9274337,8.43886674 C89.7578467,8.99976748 90.3687357,9.76409668 90.7618998,10.7314013 C91.1991487,9.78629711 91.8644689,9.02740475 92.7605592,8.45563034 C93.6544004,7.88385592 94.6701494,7.59751564 95.8064568,7.59751564 Z M113.295469,20.7929547 C113.75431,20.7929547 114.228896,20.7163858 114.720127,20.562342 C115.211807,20.4082982 115.686393,20.1228641 116.145234,19.7046804 C116.604076,19.2869498 116.964851,18.7536863 117.226211,18.1044369 C117.48892,17.4556406 117.619375,16.7796601 117.619375,16.0755892 C117.619375,14.7562492 117.220813,13.6344477 116.423238,12.7110909 C115.627013,11.786828 114.584274,11.3256026 113.295469,11.3256026 C112.007564,11.3256026 110.959876,11.786828 110.151055,12.7110909 C109.344034,13.6344477 108.939624,14.7562492 108.939624,16.0755892 C108.939624,17.3949292 109.344034,18.5117469 110.151055,19.42423 C110.959876,20.3367131 112.007564,20.7929547 113.295469,20.7929547 Z M117.619375,7.92757718 L121.909543,7.92757718 L121.909543,24.2240543 L117.619375,24.2240543 L117.619375,21.5849211 C116.964851,22.508731 116.139836,23.2286593 115.14613,23.7456123 C114.152423,24.2621121 113.077744,24.5208151 111.920294,24.5208151 C110.892849,24.5208151 109.922534,24.3114968 109.004851,23.8937662 C108.087618,23.4764887 107.296792,22.8879506 106.630122,22.1290583 C105.964352,21.3701659 105.451529,20.4685565 105.090754,19.42423 C104.731328,18.3799035 104.550491,17.2630858 104.550491,16.0755892 C104.550491,14.8880925 104.758319,13.7060328 105.173525,12.5294098 C105.587382,11.3532399 106.205019,10.3741555 107.023286,9.59306273 C107.842453,8.81287608 108.671517,8.28504946 109.512726,8.01003593 C110.352586,7.73547547 111.155558,7.5972891 111.920294,7.5972891 C113.077744,7.5972891 114.152423,7.86142895 115.14613,8.38925557 C116.139836,8.91708219 116.964851,9.63202675 117.619375,10.5336362 L117.619375,7.92757718 Z M126.266692,24.2242355 L126.266692,1.32969908 L130.524021,1.32969908 L130.524021,24.2242355 L126.266692,24.2242355 Z M142.74009,20.7929547 C143.198932,20.7929547 143.673968,20.7163858 144.165198,20.562342 C144.656878,20.4082982 145.131464,20.1228641 145.590305,19.7046804 C146.048697,19.2869498 146.409472,18.7536863 146.670832,18.1044369 C146.933541,17.4556406 147.064446,16.7796601 147.064446,16.0755892 C147.064446,14.7562492 146.665884,13.6344477 145.86786,12.7110909 C145.072085,11.786828 144.028895,11.3256026 142.74009,11.3256026 C141.452635,11.3256026 140.404497,11.786828 139.596127,12.7110909 C138.789105,13.6344477 138.384245,14.7562492 138.384245,16.0755892 C138.384245,17.3949292 138.789105,18.5117469 139.596127,19.42423 C140.404497,20.3367131 141.452635,20.7929547 142.74009,20.7929547 Z M147.064446,7.92757718 L151.354614,7.92757718 L151.354614,24.2240543 L147.064446,24.2240543 L147.064446,21.5849211 C146.409472,22.508731 145.584907,23.2286593 144.591201,23.7456123 C143.597494,24.2621121 142.522365,24.5208151 141.365365,24.5208151 C140.33792,24.5208151 139.367606,24.3114968 138.449923,23.8937662 C137.53269,23.4764887 136.741863,22.8879506 136.075193,22.1290583 C135.408973,21.3701659 134.896151,20.4685565 134.535375,19.42423 C134.175949,18.3799035 133.995112,17.2630858 133.995112,16.0755892 C133.995112,14.8880925 134.20294,13.7060328 134.618147,12.5294098 C135.032004,11.3532399 135.65009,10.3741555 136.468357,9.59306273 C137.287524,8.81287608 138.116588,8.28504946 138.957797,8.01003593 C139.797657,7.73547547 140.600629,7.5972891 141.365365,7.5972891 C142.522365,7.5972891 143.597494,7.86142895 144.591201,8.38925557 C145.584907,8.91708219 146.409472,9.63202675 147.064446,10.5336362 L147.064446,7.92757718 Z M171.039002,7.92757718 L164.226556,15.680059 L171.039002,24.2240543 L165.996245,24.2240543 L159.969227,16.4054242 L159.969227,24.2240543 L155.711898,24.2240543 L155.711898,1.32951786 L159.969227,1.32951786 L159.969227,15.0199359 L165.996245,7.92757718 L171.039002,7.92757718 Z M180.964148,11.3253761 C179.675343,11.3253761 178.632604,11.7870545 177.836379,12.7108644 C177.038804,13.6346742 176.640242,14.7564757 176.640242,16.0758157 C176.640242,16.7798866 176.772046,17.4558671 177.033406,18.1046635 C177.296115,18.7534598 177.655541,19.2871763 178.113933,19.7044538 C178.573224,20.1226375 179.04781,20.4085247 179.53904,20.5621155 C180.030721,20.7161593 180.505307,20.7927281 180.964148,20.7927281 C181.575487,20.7927281 182.213816,20.6504641 182.880936,20.3641239 C183.546256,20.0786897 184.119358,19.5395363 184.599792,18.7480229 C185.080226,17.9560565 185.319993,17.0648677 185.319993,16.0758157 C185.319993,14.6903275 184.911534,13.5522155 184.091917,12.6610267 C183.27275,11.7702909 182.230011,11.3253761 180.964148,11.3253761 Z M180.996987,7.59751564 C182.547601,7.59751564 183.988903,7.93867739 185.319993,8.62009477 C186.652433,9.30241828 187.716765,10.2973601 188.514339,11.6058265 C189.310564,12.9142928 189.709126,14.4044403 189.709126,16.0758157 C189.709126,17.2633124 189.490052,18.379677 189.054603,19.4240035 C188.617804,20.468783 188.010963,21.3703925 187.236331,22.1292848 C186.460799,22.8881772 185.533669,23.4762621 184.452693,23.8939927 C183.372166,24.3117233 182.219214,24.5205886 180.996987,24.5205886 C179.773409,24.5205886 178.621807,24.3117233 177.541281,23.8939927 C176.460304,23.4762621 175.526427,22.8881772 174.741448,22.1292848 C173.95467,21.3703925 173.343781,20.468783 172.906532,19.4240035 C172.469733,18.379677 172.252008,17.2633124 172.252008,16.0758157 C172.252008,14.8883191 172.496724,13.7062593 172.988404,12.5291833 C173.479184,11.3530134 174.211531,10.3743821 175.183645,9.59328926 C176.15441,8.81310262 177.13687,8.28527599 178.130577,8.00980939 C179.123834,7.73524894 180.079304,7.59751564 180.996987,7.59751564 Z M209.689153,4.62863813 C209.143491,4.62863813 208.701294,4.78268195 208.362111,5.0907696 C208.023378,5.39885724 207.854237,5.80571415 207.854237,6.31088727 L207.854237,7.92744126 L211,7.92744126 L211,11.4903842 L207.854237,11.4903842 L207.854237,24.2239183 L203.564069,24.2239183 L203.564069,11.4903842 L201.598698,11.4903842 L198.454285,11.4903842 L198.454285,24.2239183 L194.197406,24.2239183 L194.197406,11.4903842 L191.936037,11.4903842 L191.936037,7.92744126 L194.197406,7.92744126 L194.197406,6.31088727 C194.197406,4.77180827 194.76466,3.50185289 195.900067,2.50056805 C197.035025,1.50018935 198.487573,1 200.256362,1 C200.780431,1 201.227127,1.0439478 201.598698,1.13184339 L201.598698,4.85970386 C201.096222,4.70611311 200.659873,4.62863813 200.289201,4.62863813 C199.765132,4.62863813 199.326983,4.78268195 198.978354,5.0907696 C198.628825,5.39885724 198.454285,5.80571415 198.454285,6.31088727 L198.454285,7.92744126 L201.598698,7.92744126 L203.564069,7.92744126 L203.564069,6.31088727 C203.564069,4.77180827 204.131773,3.50185289 205.266731,2.50056805 C206.402139,1.50018935 207.854237,1 209.623476,1 C210.126402,1 210.584793,1.0439478 211,1.13184339 L211,4.85970386 C210.496174,4.70611311 210.060725,4.62863813 209.689153,4.62863813 Z M86.3399277,37.0767005 C88.1096162,37.0767005 89.554517,37.6761122 90.6800281,38.8744825 C91.8046395,40.0733059 92.3664954,41.6182748 92.3664954,43.5093892 L92.3664954,53.7030126 L88.0763278,53.7030126 L88.0763278,44.1364382 C88.0763278,43.6303589 87.9719638,43.0921117 87.7650353,42.5198842 C87.5567573,41.9481098 87.1806872,41.4701209 86.6350258,41.0850113 C86.0893643,40.7003548 85.4550834,40.5078001 84.7353321,40.5078001 C83.9917391,40.5078001 83.3372152,40.7003548 82.7695114,41.0850113 C82.2022574,41.4701209 81.8140415,41.9481098 81.607113,42.5198842 C81.3992848,43.0921117 81.2953707,43.6303589 81.2953707,44.1364382 L81.2953707,53.7030126 L77.0380417,53.7030126 L77.0380417,30.8089292 L81.2953707,30.8089292 L81.2953707,39.9464463 C81.8194396,39.0452899 82.5247959,38.3416721 83.4078408,37.8355928 C84.2926851,37.3299667 85.2697475,37.0767005 86.3399277,37.0767005 Z M112.018405,37.406762 L112.018405,46.9402623 C112.018405,49.007621 111.30945,50.7011969 109.889741,52.0205369 C108.470031,53.3398769 106.647711,54 104.419181,54 C103.327858,54 102.306711,53.8291926 101.357089,53.4884839 C100.407017,53.1477752 99.58875,52.6589126 98.9000379,52.0205369 C98.2131253,51.3830673 97.6832084,50.6300649 97.3120866,49.7606234 C96.9400651,48.8925412 96.7547292,47.9519677 96.7547292,46.9402623 L96.7547292,37.406762 L101.013858,37.406762 L101.013858,46.9402623 C101.013858,47.4245942 101.115972,47.9465309 101.32425,48.5074316 C101.531179,49.0683324 101.908149,49.5359007 102.45381,49.9096835 C102.999921,50.2834663 103.644998,50.4701311 104.386792,50.4701311 C104.867226,50.4701311 105.369703,50.3604882 105.893771,50.1398431 C106.41784,49.9210102 106.859588,49.525027 107.220813,48.9527995 C107.580239,48.3810251 107.761076,47.7104814 107.761076,46.9402623 L107.761076,37.406762 L112.018405,37.406762 Z M135.470512,37.0767005 C137.107946,37.0767005 138.42824,37.6208376 139.432743,38.709565 C140.437246,39.7982924 140.939272,41.2114179 140.939272,42.9489416 L140.939272,53.7030126 L136.649105,53.7030126 L136.649105,43.5755375 C136.649105,42.6517276 136.392244,41.9095988 135.878521,41.3486981 C135.365698,40.7877974 134.672938,40.5078001 133.79889,40.5078001 C132.948683,40.5078001 132.259522,40.7877974 131.735453,41.3486981 C131.211384,41.9095988 130.950024,42.6517276 130.950024,43.5755375 L130.950024,53.7030126 L126.658507,53.7030126 L126.658507,43.5755375 C126.658507,42.6517276 126.402995,41.9095988 125.889722,41.3486981 C125.3769,40.7877974 124.694485,40.5078001 123.84248,40.5078001 C122.968882,40.5078001 122.270273,40.7877974 121.746204,41.3486981 C121.222135,41.9095988 120.959426,42.6517276 120.959426,43.5755375 L120.959426,53.7030126 L116.702097,53.7030126 L116.702097,37.4069886 L120.959426,37.4069886 L120.959426,40.0125945 C121.396675,39.0892377 122.029606,38.3693094 122.860019,37.8519034 C123.690432,37.3354035 124.638705,37.0767005 125.710234,37.0767005 C126.801557,37.0767005 127.761076,37.3571509 128.591489,37.9180516 C129.421902,38.4789523 130.032791,39.2432815 130.425955,40.2105861 C130.863204,39.265482 131.528524,38.5065896 132.424614,37.9348152 C133.318456,37.3630408 134.334205,37.0767005 135.470512,37.0767005 Z M153.452014,50.2721395 C153.910856,50.2721395 154.385891,50.1955707 154.877122,50.0415269 C155.368802,49.887483 155.843388,49.6020489 156.30088,49.1838652 C156.759721,48.7661346 157.120047,48.2328712 157.382756,47.5836218 C157.644116,46.9348254 157.77502,46.2588449 157.77502,45.554774 C157.77502,44.235434 157.376458,43.1136325 156.579783,42.1902757 C155.782659,41.2664659 154.739469,40.8047875 153.452014,40.8047875 C152.163209,40.8047875 151.115072,41.2664659 150.30805,42.1902757 C149.49968,43.1136325 149.09482,44.235434 149.09482,45.554774 C149.09482,46.8741141 149.49968,47.9909318 150.30805,48.9034149 C151.115072,49.815898 152.163209,50.2721395 153.452014,50.2721395 Z M157.77502,37.406762 L162.066538,37.406762 L162.066538,53.7032391 L157.77502,53.7032391 L157.77502,51.064106 C157.120047,51.9879159 156.295482,52.7078442 155.303124,53.2247971 C154.308068,53.741297 153.23294,54 152.07594,54 C151.049844,54 150.07773,53.7906816 149.161846,53.372951 C148.244613,52.9556735 147.452437,52.3671355 146.787117,51.6082431 C146.119548,50.8493508 145.608074,49.9477414 145.247299,48.9034149 C144.886524,47.8590884 144.707036,46.7422707 144.707036,45.554774 C144.707036,44.3672774 144.913964,43.1852176 145.328721,42.0085947 C145.743927,40.8324248 146.360664,39.8533404 147.180281,39.0722476 C147.998099,38.2920609 148.828512,37.7642343 149.668371,37.4892208 C150.509581,37.2146603 151.311204,37.076474 152.07594,37.076474 C153.23294,37.076474 154.308068,37.3406138 155.303124,37.8684404 C156.295482,38.396267 157.120047,39.1112116 157.77502,40.012821 L157.77502,37.406762 Z M176.31325,37.0767005 C176.946181,37.0767005 177.606553,37.1813597 178.294815,37.3897719 C178.982628,37.5995433 179.653796,37.9950735 180.309669,38.5777216 C180.964193,39.1608228 181.455873,39.8975147 181.78381,40.7877974 C182.110397,41.6789862 182.27504,42.5860324 182.27504,43.5093892 L182.27504,53.7030126 L178.015912,53.7030126 L178.015912,44.1364382 C178.015912,43.6303589 177.912897,43.0921117 177.705969,42.5198842 C177.497691,41.9481098 177.120721,41.4701209 176.57461,41.0850113 C176.028948,40.7003548 175.385221,40.5078001 174.643427,40.5078001 C173.900284,40.5078001 173.250708,40.7003548 172.69425,41.0850113 C172.137793,41.4701209 171.754975,41.9481098 171.548046,42.5198842 C171.339768,43.0921117 171.236304,43.6303589 171.236304,44.1364382 L171.236304,53.7030126 L166.946137,53.7030126 L166.946137,37.4069886 L171.236304,37.4069886 L171.236304,39.847677 C171.760373,38.9900154 172.469778,38.3140348 173.364969,37.8192823 C174.261059,37.3240767 175.24352,37.0767005 176.31325,37.0767005 Z M187.024049,53.7032391 L187.024049,37.406762 L191.314217,37.406762 L191.314217,53.7032391 L187.024049,53.7032391 Z M191.772608,32.8869351 C191.772608,33.5692586 191.527893,34.1355962 191.036213,34.5864009 C190.545432,35.0372056 189.917449,35.2623814 189.152714,35.2623814 C188.41092,35.2623814 187.794183,35.0372056 187.302953,34.5864009 C186.811723,34.1355962 186.565208,33.5692586 186.565208,32.8869351 C186.565208,32.1837703 186.811723,31.606106 187.302953,31.1553013 C187.794183,30.7049497 188.41092,30.4788677 189.152714,30.4788677 C189.917449,30.4788677 190.545432,30.7049497 191.036213,31.1553013 C191.527893,31.606106 191.772608,32.1837703 191.772608,32.8869351 Z M202.516246,37.0767005 C203.214405,37.0767005 203.945403,37.1596123 204.710138,37.3240767 C205.475324,37.4889942 206.189677,37.7807714 206.855447,38.198502 C207.522117,38.6162326 208.079024,39.1662596 208.52662,39.847677 C208.973315,40.5295474 209.198238,41.3323876 209.198238,42.2561974 L205.299435,42.2561974 C205.25625,41.6182748 204.977346,41.0963381 204.465423,40.6890281 C203.9517,40.2821712 203.312471,40.0787427 202.548635,40.0787427 C201.828884,40.0787427 201.237788,40.2436602 200.779396,40.5734952 C200.321905,40.9037833 200.092034,41.3323876 200.092034,41.8602142 C200.092034,42.3005983 200.325953,42.6906916 200.79694,43.0314003 C201.265229,43.3725621 202.329561,43.7191607 203.989937,44.07029 C206.107805,44.5106741 207.587344,45.1427068 208.427654,45.9672943 C209.268863,46.7918818 209.689018,47.7764031 209.689018,48.9199519 C209.689018,49.8433087 209.426309,50.6737861 208.90224,51.4104781 C208.378171,52.147623 207.593192,52.7628922 206.545054,53.2576447 C205.496916,53.7523972 204.218908,53.9997735 202.712379,53.9997735 C200.615653,53.9997735 198.902645,53.505021 197.569755,52.5155159 C196.237316,51.5260109 195.571546,50.2614924 195.571546,48.7215072 L199.69842,48.7215072 C199.720462,49.0300479 199.830674,49.359883 200.026806,49.7114653 C200.222489,50.0635008 200.561222,50.3548248 201.042106,50.5854375 C201.52254,50.8165032 202.068201,50.9320361 202.67954,50.9320361 C203.444276,50.9320361 204.082605,50.750355 204.595878,50.3874459 C205.10915,50.0245367 205.365112,49.5796219 205.365112,49.0517953 C205.365112,48.8755511 205.326875,48.7002129 205.250402,48.5239687 C205.174378,48.3481775 205.038075,48.1773701 204.841043,48.0124526 C204.644911,47.8475351 204.41639,47.7102549 204.153681,47.6001588 C203.892321,47.4900628 203.624213,47.3971834 203.351608,47.3197085 C203.078102,47.2426866 202.821241,47.1769914 202.581474,47.1217168 C202.340357,47.0673484 202.052007,47.0012002 201.713274,46.9237252 C201.374091,46.8467033 201.161764,46.7977718 201.074944,46.7755713 C197.624187,45.9618575 195.899932,44.3892513 195.899932,42.0582058 C195.899932,40.584822 196.516219,39.3859986 197.750593,38.4626418 C198.983617,37.538832 200.572468,37.0767005 202.516246,37.0767005 Z M30.1994155,19.9514223 C42.4423853,20.1929087 53.8720361,16.198643 63.32462,7.68817496 C59.495543,24.6656163 44.7123009,33.2091585 30.7329311,32.9332388 C17.417082,32.6704582 4.94514135,23.8201876 -1.42108547e-14,8.59340894 C8.65905811,16.1447277 19.005933,19.7303242 30.1994155,19.9514223 Z M30.1994155,40.2375891 C42.4423853,40.4790754 53.8720361,36.4848098 63.32462,27.9738886 C59.495543,44.9517831 44.7123009,53.4953253 30.7329311,53.2194056 C17.417082,52.956625 4.94514135,44.1063544 0,28.8795757 C8.65905811,36.4308944 19.005933,40.0164909 30.1994155,40.2375891 Z M272.249847,48.5530353 L268.580116,48.5530353 L268.580116,50.2719597 L271.964872,50.2719597 L271.964872,51.5162286 L268.580116,51.5162286 L268.580116,53.2882454 L272.249847,53.2882454 L272.249847,54.5846992 L267.114855,54.5846992 L267.114855,47.2665647 L272.249847,47.2665647 L272.249847,48.5530353 Z M226.991358,7.09142689 C227.37798,7.09142689 227.738282,7.1476958 228.072719,7.26023361 C228.406249,7.37186387 228.6944,7.53431765 228.936719,7.74487227 C229.179039,7.95542689 229.369173,8.21090588 229.506669,8.50949412 C229.643257,8.80808235 229.715408,9.13026723 229.723123,9.47423361 L228.299156,9.47423361 C228.29235,9.30542689 228.246518,9.12618319 228.161661,8.93650252 C228.077711,8.74636807 227.926602,8.59072101 227.708787,8.46683866 C227.490518,8.34431765 227.237761,8.28260336 226.949156,8.28260336 C226.689139,8.28260336 226.457257,8.33161176 226.253509,8.43053613 C226.049308,8.52900672 225.908635,8.65379664 225.831492,8.80490588 C225.753896,8.95556134 225.715778,9.09804874 225.715778,9.23191429 C225.715778,9.46425042 225.811526,9.65756134 226.005291,9.81184706 C226.199055,9.96658655 226.608366,10.1081664 227.234131,10.2393092 C227.859896,10.3690908 228.307778,10.4834437 228.578686,10.5814605 C228.849139,10.6794773 229.082837,10.8033597 229.279324,10.9508387 C229.476719,11.0983176 229.63282,11.2902672 229.748988,11.5253261 C229.865156,11.7608387 229.922787,12.0403681 229.922787,12.3634605 C229.922787,12.6166706 229.874232,12.8730571 229.775308,13.1330739 C229.676837,13.3935445 229.510299,13.6322336 229.274787,13.8509563 C229.039274,14.0683176 228.726165,14.2493765 228.336366,14.393679 C227.945661,14.5370739 227.483711,14.6092252 226.949156,14.6092252 C226.632871,14.6092252 226.307509,14.5706538 225.97398,14.4939647 C225.639997,14.4163681 225.31282,14.2684353 224.993812,14.0506202 C224.672988,13.832805 224.432484,13.5532756 224.270938,13.2120319 C224.109392,12.8716958 224.024988,12.5218303 224.017728,12.1633429 L225.483896,12.1633429 C225.483896,12.3321496 225.531089,12.5168387 225.625929,12.7165025 C225.720316,12.9170739 225.889576,13.0845193 226.131442,13.2179311 C226.375123,13.3517966 226.671442,13.4180487 227.022669,13.4180487 C227.430618,13.4180487 227.766417,13.3245697 228.030064,13.1385193 C228.293711,12.9529227 228.425308,12.7119647 228.425308,12.4165529 C228.425308,12.1914773 228.327291,11.9995277 228.13035,11.8416118 C227.932955,11.683242 227.520467,11.5393933 226.891072,11.4096118 C226.262585,11.2793765 225.811526,11.1632084 225.541526,11.0615613 C225.271072,10.9594605 225.041005,10.8383008 224.850871,10.6976286 C224.66119,10.5569563 224.508266,10.3718134 224.392097,10.1444689 C224.276383,9.91576303 224.218753,9.64304034 224.218753,9.32675462 C224.218753,8.99640168 224.286366,8.69009916 224.423862,8.4092084 C224.561358,8.12786387 224.7524,7.8914437 224.99835,7.69767899 C225.244753,7.50391429 225.540165,7.35507395 225.884131,7.24934286 C226.228551,7.14406555 226.597929,7.09142689 226.991358,7.09142689 Z M232.664534,11.9416252 L235.005593,11.9416252 L233.835291,8.60996134 L232.664534,11.9416252 Z M235.901812,14.5145664 L235.427156,13.1545832 L232.242518,13.1545832 L231.757879,14.5145664 L230.186434,14.5145664 L232.949509,7.19643193 L234.720618,7.19643193 L237.48324,14.5145664 L235.901812,14.5145664 Z M242.956163,7.19643193 L244.421877,7.19643193 L244.421877,14.5145664 L242.55502,14.5145664 L239.729776,9.16902017 L239.729776,14.5145664 L238.263608,14.5145664 L238.263608,7.19643193 L240.129558,7.19643193 L242.956163,12.5428857 L242.956163,7.19643193 Z M251.022719,7.19643193 L251.022719,8.48290252 L248.882232,8.48290252 L248.882232,14.5145664 L247.416518,14.5145664 L247.416518,8.48290252 L245.27603,8.48290252 L245.27603,7.19643193 L251.022719,7.19643193 Z M256.410921,5.07686387 L254.87124,6.68007395 L253.816652,6.68007395 L255.02961,5.07686387 L256.410921,5.07686387 Z M257.012635,8.4829479 L253.34245,8.4829479 L253.34245,10.2018723 L256.727661,10.2018723 L256.727661,11.4456874 L253.34245,11.4456874 L253.34245,13.2177042 L257.012635,13.2177042 L257.012635,14.5146118 L251.876736,14.5146118 L251.876736,7.19647731 L257.012635,7.19647731 L257.012635,8.4829479 Z M227.423857,24.1804303 C227.58495,24.1804303 227.759202,24.1436739 227.945252,24.0701613 C228.132664,23.996195 228.286496,23.8627832 228.409924,23.6690185 C228.532445,23.4761613 228.59416,23.2565311 228.59416,23.0101277 C228.59416,22.6661613 228.487521,22.3848168 228.272882,22.1665479 C228.05779,21.9487328 227.775084,21.8398252 227.423857,21.8398252 L225.863756,21.8398252 L225.863756,24.1804303 L227.423857,24.1804303 Z M227.581773,20.5533546 C227.75058,20.5533546 227.943891,20.573321 228.161706,20.6114387 C228.379975,20.6500101 228.59779,20.7221613 228.816059,20.8274387 C229.033874,20.932716 229.238983,21.080195 229.432748,21.2703294 C229.626513,21.4600101 229.783975,21.7064134 229.90695,22.0086319 C230.029924,22.3103966 230.091639,22.6380269 230.091639,22.9897076 C230.091639,23.2497244 230.051252,23.5179092 229.970025,23.7960773 C229.89016,24.0737916 229.734513,24.3478756 229.506714,24.6187832 C229.278008,24.889237 228.989857,25.0911697 228.641807,25.2250353 C228.293756,25.3589008 227.940714,25.4251529 227.581773,25.4251529 L225.863756,25.4251529 L225.863756,27.8714891 L224.397588,27.8714891 L224.397588,20.5533546 L227.581773,20.5533546 Z M234.278,24.0226958 C234.432739,24.0226958 234.597916,23.989116 234.773529,23.9224101 C234.949143,23.856158 235.094807,23.7322756 235.210975,23.5530319 C235.327143,23.3737882 235.385227,23.1650487 235.385227,22.9259059 C235.385227,22.6028134 235.283126,22.3409815 235.079378,22.1404101 C234.875176,21.9398387 234.608353,21.8395529 234.278,21.8395529 L232.485563,21.8395529 L232.485563,24.0226958 L234.278,24.0226958 Z M236.84005,26.2897882 C236.868185,27.1333681 236.917647,27.6606622 236.987983,27.8712168 L235.459193,27.8712168 C235.410185,27.6325277 235.377966,27.1683092 235.364353,26.4799227 C235.357092,26.2975025 235.323513,26.1050992 235.264067,25.9049815 C235.204168,25.7048639 235.093445,25.5378723 234.931445,25.4040067 C234.770353,25.2710487 234.580218,25.2038891 234.362403,25.2038891 L232.485563,25.2038891 L232.485563,27.8712168 L231.019849,27.8712168 L231.019849,20.5530824 L234.435916,20.5530824 C234.801664,20.5530824 235.135647,20.6025445 235.438319,20.7010151 C235.740538,20.7994857 235.998286,20.940158 236.213378,21.1225782 C236.427109,21.3054521 236.590924,21.5287126 236.703462,21.7923597 C236.815546,22.0560067 236.872269,22.3464269 236.872269,22.6622588 C236.872269,23.0978891 236.764269,23.4813345 236.550538,23.8121412 C236.335899,24.1424941 236.039126,24.3848134 235.659311,24.5390992 C236.010538,24.6588975 236.290521,24.8662756 236.497445,25.1616874 C236.704824,25.4566454 236.81963,25.8328303 236.84005,26.2897882 Z M242.618913,18.4337412 L241.079232,20.0369513 L240.024644,20.0369513 L241.237148,18.4337412 L242.618913,18.4337412 Z M243.219719,21.8398252 L239.550442,21.8398252 L239.550442,23.5587496 L242.934745,23.5587496 L242.934745,24.8025647 L239.550442,24.8025647 L239.550442,26.5741277 L243.219719,26.5741277 L243.219719,27.8714891 L238.084728,27.8714891 L238.084728,20.5533546 L243.219719,20.5533546 L243.219719,21.8398252 Z M249.377761,20.5533092 L250.906551,20.5533092 L248.207459,27.8714437 L246.498971,27.8714437 L243.788988,20.5533092 L245.318686,20.5533092 L247.353442,26.4052756 L249.377761,20.5533092 Z M254.861711,21.7976689 C254.706518,21.7976689 254.529543,21.8171815 254.328971,21.8552992 C254.1284,21.8947782 253.927829,21.9664756 253.727711,22.0717529 C253.527139,22.177484 253.335644,22.324963 253.15277,22.5146437 C252.97035,22.7047782 252.820602,22.9470975 252.704434,23.2425092 C252.588719,23.5374672 252.530635,23.8537529 252.530635,24.1913664 C252.530635,24.4441227 252.569207,24.7100387 252.646803,24.9872992 C252.723946,25.2654672 252.867795,25.5390975 253.079257,25.810005 C253.290266,26.0809126 253.557089,26.2851143 253.880635,26.4212487 C254.204182,26.5587445 254.530904,26.6277193 254.861711,26.6277193 C255.192064,26.6277193 255.500635,26.5678202 255.78924,26.4480218 C256.077845,26.3286773 256.326971,26.1576017 256.53798,25.9366101 C256.748988,25.7151647 256.91235,25.4551479 257.028064,25.1561059 C257.144232,24.8575176 257.201862,24.5353328 257.201862,24.1913664 C257.201862,23.8537529 257.144232,23.5374672 257.028064,23.2425092 C256.91235,22.9470975 256.748988,22.6925261 256.53798,22.4778874 C256.326971,22.2632487 256.077845,22.0962571 255.78924,21.9773664 C255.500635,21.8575681 255.192064,21.7976689 254.861711,21.7976689 Z M254.861711,20.4481227 C255.402618,20.4481227 255.908585,20.5411479 256.37961,20.7276521 C256.850635,20.9137025 257.258131,21.1759882 257.603005,21.5126941 C257.947425,21.8507613 258.214703,22.2509966 258.404383,22.7147613 C258.594518,23.1789798 258.689358,23.674963 258.689358,24.2018034 C258.689358,24.7290975 258.594518,25.2268958 258.404383,25.693837 C258.214703,26.1616857 257.947425,26.5641899 257.603005,26.9013496 C257.258131,27.238963 256.850635,27.5003412 256.37961,27.6868454 C255.908585,27.8733496 255.402618,27.9663748 254.861711,27.9663748 C254.32035,27.9663748 253.813929,27.8733496 253.342904,27.6868454 C252.871879,27.5003412 252.464383,27.238963 252.119963,26.9013496 C251.775089,26.5641899 251.507812,26.1616857 251.318585,25.693837 C251.12845,25.2268958 251.03361,24.7290975 251.03361,24.2018034 C251.03361,23.674963 251.12845,23.1789798 251.318585,22.7147613 C251.507812,22.2509966 251.775089,21.8507613 252.119963,21.5126941 C252.464383,21.1759882 252.871879,20.9137025 253.342904,20.7276521 C253.813929,20.5411479 254.32035,20.4481227 254.861711,20.4481227 Z M265.596049,20.5533092 L262.790771,24.8978134 L262.790771,27.8714437 L261.325057,27.8714437 L261.325057,24.9400151 L258.488469,20.5533092 L260.144318,20.5533092 L262.042486,23.6748723 L263.929763,20.5533092 L265.596049,20.5533092 Z M267.146166,25.2980487 L269.487225,25.2980487 L268.316469,21.9663849 L267.146166,25.2980487 Z M270.38299,27.8714437 L269.908788,26.5114605 L266.723696,26.5114605 L266.239057,27.8714437 L264.667612,27.8714437 L267.431141,20.5533092 L269.20225,20.5533092 L271.964872,27.8714437 L270.38299,27.8714437 Z M277.437795,20.5533092 L278.903055,20.5533092 L278.903055,27.8714437 L277.036652,27.8714437 L274.211408,22.5254437 L274.211408,27.8714437 L272.74524,27.8714437 L272.74524,20.5533092 L274.61119,20.5533092 L277.437795,25.899763 L277.437795,20.5533092 Z M287.5814,24.8664571 C287.518324,25.3161546 287.379921,25.7327261 287.164829,26.1161714 C286.950644,26.499163 286.676106,26.8277008 286.342576,27.1017849 C286.008593,27.3754151 285.625602,27.5886924 285.193148,27.7393479 C284.760694,27.8904571 284.301921,27.9662387 283.817282,27.9662387 C283.275921,27.9662387 282.769501,27.8732134 282.298476,27.6867092 C281.827904,27.5006588 281.419955,27.2392807 281.075534,26.9012134 C280.730661,26.5640538 280.463383,26.1620034 280.274156,25.6937008 C280.084476,25.2267597 279.989635,24.7289613 279.989635,24.2016672 C279.989635,23.6748269 280.084476,23.1788437 280.274156,22.715079 C280.463383,22.2508605 280.730661,21.8506252 281.075534,21.512558 C281.419955,21.1758521 281.827904,20.9135664 282.298476,20.727516 C282.769501,20.5414655 283.275921,20.4484403 283.817282,20.4484403 C284.301921,20.4484403 284.760694,20.5214992 285.193148,20.6689782 C285.625602,20.8164571 286.008593,21.0283731 286.342576,21.3024571 C286.676106,21.5760874 286.948375,21.905079 287.159837,22.2876168 C287.370845,22.6710622 287.511518,23.0876336 287.5814,23.5373311 L286.073938,23.5373311 C285.996341,23.2210454 285.8534,22.9242723 285.646022,22.6461042 C285.438644,22.3688437 285.170913,22.1582891 284.839652,22.0139866 C284.509299,21.869684 284.168509,21.7975328 283.817282,21.7975328 C283.570879,21.7975328 283.316308,21.8361042 283.052661,21.9137008 C282.78856,21.9912975 282.526728,22.1387765 282.267165,22.3565916 C282.007148,22.5739529 281.811114,22.8503059 281.681787,23.1847429 C281.552005,23.5178185 281.486661,23.8540706 281.486661,24.191684 C281.486661,24.4439866 281.524778,24.7099025 281.602829,24.9876168 C281.679518,25.2653311 281.82382,25.5389613 282.034829,25.8098689 C282.245837,26.0812303 282.513114,26.2849782 282.836207,26.4215664 C283.159753,26.5590622 283.486476,26.6275832 283.817282,26.6275832 C284.379518,26.6275832 284.866425,26.4642218 285.277551,26.1374992 C285.688677,25.8098689 285.953686,25.3864908 286.073938,24.8664571 L287.5814,24.8664571 Z M293.812909,21.8397345 L290.143632,21.8397345 L290.143632,23.5586588 L293.528842,23.5586588 L293.528842,24.8024739 L290.143632,24.8024739 L290.143632,26.5744908 L293.812909,26.5744908 L293.812909,27.8713983 L288.677918,27.8713983 L288.677918,20.5532639 L293.812909,20.5532639 L293.812909,21.8397345 Z M227.656057,37.3795731 C227.810343,37.3795731 227.975519,37.3459933 228.151587,37.2792874 C228.3272,37.2125815 228.472864,37.0891529 228.589032,36.9099092 C228.7052,36.7306655 228.76283,36.5219261 228.76283,36.2823294 C228.76283,35.9596908 228.661183,35.697405 228.456982,35.4972874 C228.25278,35.296716 227.98641,35.1964303 227.656057,35.1964303 L225.86362,35.1964303 L225.86362,37.3795731 L227.656057,37.3795731 Z M230.218108,39.6462118 C230.246242,40.4897916 230.29525,41.0175395 230.365587,41.2280941 L228.836797,41.2280941 C228.787788,40.989405 228.75557,40.5251866 228.741956,39.8363462 C228.73515,39.6539261 228.70157,39.4619765 228.641671,39.2618588 C228.581771,39.0612874 228.471503,38.8947496 228.309049,38.760884 C228.147956,38.6274723 227.957822,38.5607664 227.740461,38.5607664 L225.86362,38.5607664 L225.86362,41.2280941 L224.397452,41.2280941 L224.397452,33.9099597 L227.813973,33.9099597 C228.179721,33.9099597 228.51325,33.9594218 228.816376,34.0574387 C229.118141,34.156363 229.376343,34.2970353 229.591435,34.4794555 C229.805166,34.6623294 229.968982,34.8855899 230.081519,35.149237 C230.19315,35.412884 230.250326,35.7033042 230.250326,36.0186824 C230.250326,36.4547664 230.142326,36.8382118 229.928141,37.1685647 C229.713956,37.4989176 229.416729,37.741237 229.037368,37.8959765 C229.388595,38.0157748 229.668124,38.2231529 229.875503,38.5185647 C230.082881,38.8135227 230.197687,39.1897076 230.218108,39.6462118 Z M236.597867,35.1966118 L232.928136,35.1966118 L232.928136,36.9155361 L236.312892,36.9155361 L236.312892,38.1593513 L232.928136,38.1593513 L232.928136,39.9313681 L236.597867,39.9313681 L236.597867,41.2282756 L231.462876,41.2282756 L231.462876,33.9096874 L236.597867,33.9096874 L236.597867,35.1966118 Z M242.956163,33.9097328 L242.956163,35.1966571 L240.815676,35.1966571 L240.815676,41.228321 L239.349961,41.228321 L239.349961,35.1966571 L237.209474,35.1966571 L237.209474,33.9097328 L242.956163,33.9097328 Z M247.068558,37.3795731 C247.223751,37.3795731 247.388474,37.3459933 247.564087,37.2792874 C247.739701,37.2125815 247.886272,37.0891529 248.00244,36.9099092 C248.118155,36.7306655 248.175331,36.5219261 248.175331,36.2823294 C248.175331,35.9596908 248.074138,35.697405 247.87039,35.4972874 C247.666188,35.296716 247.399365,35.1964303 247.068558,35.1964303 L245.276121,35.1964303 L245.276121,37.3795731 L247.068558,37.3795731 Z M249.631062,39.6462118 C249.659197,40.4897916 249.708659,41.0175395 249.778995,41.2280941 L248.250205,41.2280941 C248.200289,40.989405 248.168978,40.5251866 248.155365,39.8363462 C248.14765,39.6539261 248.114978,39.4619765 248.055079,39.2618588 C247.99518,39.0612874 247.884003,38.8947496 247.722457,38.760884 C247.560457,38.6274723 247.37123,38.5607664 247.152961,38.5607664 L245.276121,38.5607664 L245.276121,41.2280941 L243.809953,41.2280941 L243.809953,33.9099597 L247.227382,33.9099597 C247.592222,33.9099597 247.926659,33.9594218 248.228877,34.0574387 C248.530642,34.156363 248.789297,34.2970353 249.003936,34.4794555 C249.217667,34.6623294 249.381482,34.8855899 249.49402,35.149237 C249.606558,35.412884 249.662827,35.7033042 249.662827,36.0186824 C249.662827,36.4547664 249.555281,36.8382118 249.34155,37.1685647 C249.126457,37.4989176 248.830138,37.741237 248.450323,37.8959765 C248.80155,38.0157748 249.081533,38.2231529 249.288911,38.5185647 C249.496289,38.8135227 249.610188,39.1897076 249.631062,39.6462118 Z M252.710242,38.6549261 L255.051301,38.6549261 L253.880545,35.3232622 L252.710242,38.6549261 Z M255.947973,41.228321 L255.473318,39.8683378 L252.288679,39.8683378 L251.803133,41.228321 L250.232595,41.228321 L252.995217,33.9097328 L254.76678,33.9097328 L257.529402,41.228321 L255.947973,41.228321 Z M258.309815,41.2281849 L258.309815,33.9095966 L259.775076,33.9095966 L259.775076,41.2281849 L258.309815,41.2281849 Z M266.365753,33.9097328 L266.365753,35.1966571 L264.224812,35.1966571 L264.224812,41.228321 L262.759551,41.228321 L262.759551,35.1966571 L260.61861,35.1966571 L260.61861,33.9097328 L266.365753,33.9097328 Z M272.355351,35.1966118 L268.685166,35.1966118 L268.685166,36.9155361 L272.070376,36.9155361 L272.070376,38.1593513 L268.685166,38.1593513 L268.685166,39.9313681 L272.355351,39.9313681 L272.355351,41.2282756 L267.219906,41.2282756 L267.219906,33.9096874 L272.355351,33.9096874 L272.355351,35.1966118 Z M228.931909,45.1474504 L227.392229,46.7502067 L226.33764,46.7502067 L227.550145,45.1474504 L228.931909,45.1474504 Z M229.532716,48.5530807 L225.863439,48.5530807 L225.863439,50.272005 L229.247741,50.272005 L229.247741,51.5162739 L225.863439,51.5162739 L225.863439,53.287837 L229.532716,53.287837 L229.532716,54.5847445 L224.397724,54.5847445 L224.397724,47.2666101 L229.532716,47.2666101 L229.532716,48.5530807 Z M233.750661,50.8941849 C233.911753,50.8941849 234.086459,50.8569748 234.272509,50.783916 C234.459467,50.7094958 234.613299,50.5765378 234.736728,50.3827731 C234.859249,50.189916 234.921417,49.9702857 234.921417,49.7238824 C234.921417,49.379916 234.814324,49.0981176 234.599686,48.8803025 C234.385047,48.6624874 234.101887,48.5531261 233.750661,48.5531261 L232.19056,48.5531261 L232.19056,50.8941849 L233.750661,50.8941849 Z M233.908576,47.2666555 C234.077837,47.2666555 234.270694,47.2866218 234.488963,47.3251933 C234.706778,47.3637647 234.924593,47.4354622 235.142862,47.5411933 C235.360677,47.6464706 235.565787,47.7939496 235.759551,47.984084 C235.953316,48.1737647 236.110778,48.4201681 236.234207,48.7219328 C236.356728,49.0241513 236.418442,49.3517815 236.418442,49.7030084 C236.418442,49.9630252 236.378055,50.2316639 236.296829,50.5098319 C236.216963,50.7870924 236.06177,51.0616303 235.833518,51.332084 C235.604812,51.6029916 235.316661,51.8044706 234.96861,51.9383361 C234.62056,52.0722017 234.267971,52.1389076 233.908576,52.1389076 L232.19056,52.1389076 L232.19056,54.5847899 L230.724392,54.5847899 L230.724392,47.2666555 L233.908576,47.2666555 Z M238.495899,52.0118034 L240.836958,52.0118034 L239.666202,48.6801395 L238.495899,52.0118034 Z M241.732723,54.5847445 L241.258521,53.2252151 L238.073429,53.2252151 L237.589244,54.5847445 L236.017798,54.5847445 L238.780874,47.2666101 L240.551983,47.2666101 L243.314605,54.5847445 L241.732723,54.5847445 Z M247.353487,50.736405 C247.507773,50.736405 247.67295,50.7028252 247.849017,50.6361193 C248.02463,50.5694134 248.170294,50.4455311 248.286462,50.2667412 C248.40263,50.0874975 248.460261,49.878758 248.460261,49.6391613 C248.460261,49.3165227 248.358613,49.054237 248.154412,48.8541193 C247.95021,48.6535479 247.68384,48.5528084 247.353487,48.5528084 L245.56105,48.5528084 L245.56105,50.736405 L247.353487,50.736405 Z M249.915538,53.0030437 C249.943672,53.8466235 249.992681,54.3743714 250.063017,54.5844723 L248.534227,54.5844723 C248.485218,54.3457832 248.453,53.8820185 248.439387,53.1931782 C248.43258,53.010758 248.399,52.8183546 248.339101,52.6186908 C248.279202,52.4181193 248.168933,52.2515815 248.006479,52.117716 C247.845387,51.9843042 247.655252,51.9171445 247.437891,51.9171445 L245.56105,51.9171445 L245.56105,54.5844723 L244.094882,54.5844723 L244.094882,47.2667916 L247.511403,47.2667916 C247.877151,47.2667916 248.210681,47.3162538 248.513807,47.4142706 C248.815571,47.5127412 249.073773,47.6538672 249.288866,47.8362874 C249.502597,48.0191613 249.666412,48.2424218 249.77895,48.5056151 C249.89058,48.7692622 249.947756,49.0601361 249.947756,49.3755143 C249.947756,49.8115983 249.839756,50.1945899 249.625571,50.5253966 C249.411387,50.8557496 249.11416,51.0980689 248.734798,51.2528084 C249.086025,51.3726067 249.365555,51.5799849 249.572933,51.8753966 C249.780311,52.1703546 249.895118,52.5465395 249.915538,53.0030437 Z M258.425484,50.5356975 L258.435921,50.9155126 C258.435921,51.4496134 258.342896,51.9487731 258.156845,52.4129916 C257.970341,52.8767563 257.708509,53.2778992 257.370896,53.614605 C257.03419,53.9526723 256.629417,54.2140504 256.158392,54.4005546 C255.68782,54.5870588 255.180946,54.6796303 254.640039,54.6796303 C254.098224,54.6796303 253.592711,54.5870588 253.121686,54.4005546 C252.650207,54.2140504 252.242711,53.9526723 251.897837,53.614605 C251.553871,53.2778992 251.287047,52.875395 251.096913,52.4070924 C250.907686,51.940605 250.811938,51.4428067 250.811938,50.9155126 C250.811938,50.3882185 250.907686,49.8926891 251.096913,49.4289244 C251.287047,48.9642521 251.553871,48.5640168 251.897837,48.2264034 C252.242711,47.8892437 252.650207,47.6274118 253.121686,47.4413613 C253.592711,47.2553109 254.098224,47.1613782 254.640039,47.1613782 C255.082929,47.1613782 255.511753,47.2303529 255.926509,47.3669412 C256.340812,47.5039832 256.712005,47.6977479 257.038274,47.9468739 C257.365904,48.1969076 257.639988,48.4936807 257.861887,48.8381008 C258.082879,49.1829748 258.232173,49.5555294 258.309316,49.9557647 L256.780526,49.9557647 C256.710644,49.7452101 256.590845,49.5201345 256.422039,49.2805378 C256.253232,49.0418487 256.014543,48.8403697 255.70461,48.6747395 C255.395585,48.5091092 255.044358,48.4269748 254.650476,48.4269748 C254.320123,48.4269748 254.010644,48.4886891 253.722946,48.6116639 C253.434341,48.7341849 253.184308,48.9066218 252.973753,49.1276134 C252.762745,49.3495126 252.599383,49.6131597 252.483669,49.9190084 C252.367501,50.2248571 252.308963,50.5538487 252.308963,50.9050756 C252.308963,51.2567563 252.367501,51.5866555 252.483669,51.8956807 C252.599383,52.2056134 252.762745,52.4728908 252.973753,52.6979664 C253.184308,52.923042 253.434341,53.0968403 253.722946,53.2193613 C254.010644,53.3423361 254.320123,53.4040504 254.650476,53.4040504 C255.191837,53.4040504 255.662862,53.2529412 256.064005,52.9502689 C256.46424,52.6480504 256.720627,52.2582521 256.833165,51.7795126 L254.650476,51.7795126 L254.650476,50.5356975 L258.425484,50.5356975 Z M264.214738,47.2666101 L265.679998,47.2666101 L265.679998,54.5847445 L263.813595,54.5847445 L260.988351,49.2391983 L260.988351,54.5847445 L259.522183,54.5847445 L259.522183,47.2666101 L261.388133,47.2666101 L264.214738,52.6130639 L264.214738,47.2666101 Z" id="path-1"></path>
    </defs>
    <g id="🧬-Logos/MH/Baseline-right" stroke="none" stroke-width="1" fill="none" fill-rule="evenodd">
        <mask id="mask-2" fill="white">
            <use xlink:href="#path-1"></use>
        </mask>
        <use id="Mask" fill="#FF4B33" xlink:href="#path-1"></use>
    </g>
</svg>