<?xml version="1.0" encoding="UTF-8"?>
<svg width="70px" height="56px" viewBox="0 0 70 56" version="1.1" xmlns="http://www.w3.org/2000/svg" xmlns:xlink="http://www.w3.org/1999/xlink">
    <!-- Generator: Sketch 55.2 (78181) - https://sketchapp.com -->
    <title>🧬 Logos/MH/Baseline@3x</title>
    <desc>Created with Sketch.</desc>
    <defs>
        <path d="M48.3736596,48.8243415 L44.6931595,48.8243415 L44.6931595,50.5570315 L48.0878485,50.5570315 L48.0878485,51.8112649 L44.6931595,51.8112649 L44.6931595,53.5974725 L48.3736596,53.5974725 L48.3736596,54.9043087 L43.223599,54.9043087 L43.223599,47.5275684 L48.3736596,47.5275684 L48.3736596,48.8243415 Z M2.98235656,7.03069624 C3.37011298,7.03069624 3.73147283,7.08741577 4.06689123,7.20085482 C4.40139941,7.31337904 4.69039627,7.4771338 4.9334267,7.6893746 C5.17645713,7.90161541 5.36714954,8.15914035 5.50504883,8.46011977 C5.64203789,8.76109919 5.71440089,9.08586421 5.72213781,9.43258518 L4.2939927,9.43258518 C4.287166,9.26242661 4.24119957,9.08174747 4.15609341,8.89054778 C4.07189748,8.69889068 3.92034479,8.54199715 3.70189048,8.41712271 C3.48298104,8.29362052 3.22948301,8.23141201 2.94003104,8.23141201 C2.6792512,8.23141201 2.44668837,8.28081288 2.24234256,8.38052947 C2.03754163,8.47978864 1.89645655,8.60557791 1.81908732,8.75789728 C1.74126297,8.90975923 1.70303346,9.05338771 1.70303346,9.18832529 C1.70303346,9.42252204 1.79906234,9.61738106 1.99339566,9.77290234 C2.18772898,9.92888103 2.59824105,10.0715947 3.22584211,10.2037878 C3.85344316,10.3346086 4.30263985,10.4498773 4.57434241,10.5486791 C4.84558986,10.6474808 5.07997314,10.7723553 5.27703714,10.9210153 C5.47501136,11.0696754 5.63157029,11.2631621 5.74807926,11.5001034 C5.86458823,11.737502 5.9223876,12.01927 5.9223876,12.3449499 C5.9223876,12.6001877 5.87369049,12.8586275 5.77447582,13.1207266 C5.67571627,13.3832831 5.50868974,13.6238837 5.272486,13.844358 C5.03628227,14.06346 4.72225419,14.2459688 4.33131198,14.3914269 C3.93945955,14.5359702 3.47615435,14.6086993 2.94003104,14.6086993 C2.62281716,14.6086993 2.29650102,14.569819 1.96199285,14.4925158 C1.62702956,14.4142977 1.29889297,14.2651802 0.978948416,14.0456208 C0.657183409,13.8260613 0.415973432,13.5442934 0.253953145,13.2003169 C0.0919328591,12.8572553 0.00728181062,12.5045879 0,12.1432296 L1.47047063,12.1432296 C1.47047063,12.3133882 1.5178024,12.4995563 1.61292105,12.7008191 C1.70758459,12.9029968 1.8773418,13.0717831 2.11991712,13.2062633 C2.36431289,13.3412009 2.66150178,13.4079835 3.01375937,13.4079835 C3.42290611,13.4079835 3.75968985,13.3137559 4.0241106,13.1262156 C4.28853134,12.9391326 4.42051416,12.696245 4.42051416,12.3984675 C4.42051416,12.1715894 4.32220972,11.9781026 4.1246906,11.818922 C3.92671638,11.659284 3.51301851,11.5142833 2.88177655,11.3834624 C2.25144482,11.2521842 1.79906234,11.1350858 1.52827,11.0326247 C1.25702256,10.9297062 1.02628018,10.8075763 0.835587769,10.6657775 C0.645350466,10.5239786 0.49197733,10.3373531 0.37546836,10.1081879 C0.259414503,9.87765049 0.201615132,9.60274376 0.201615132,9.28392514 C0.201615132,8.95092663 0.269426993,8.64217115 0.407326282,8.35903094 C0.54522557,8.07543331 0.736828212,7.83711982 0.983499547,7.64180339 C1.230626,7.44648696 1.52690466,7.29645466 1.87188044,7.18987685 C2.21731133,7.08375644 2.58777345,7.03069624 2.98235656,7.03069624 Z M8.67218134,11.9197364 L11.0201102,11.9197364 L9.8463733,8.56139157 L8.67218134,11.9197364 Z M11.9189586,14.5132824 L11.4429103,13.1424081 L8.2489261,13.1424081 L7.76286524,14.5132824 L6.18680835,14.5132824 L8.9579924,7.13654219 L10.7342991,7.13654219 L13.505028,14.5132824 L11.9189586,14.5132824 Z M18.9940114,7.13654219 L20.4640269,7.13654219 L20.4640269,14.5132824 L18.5916913,14.5132824 L15.7581568,9.1249275 L15.7581568,14.5132824 L14.2876861,14.5132824 L14.2876861,7.13654219 L16.1591115,7.13654219 L18.9940114,12.525812 L18.9940114,7.13654219 Z M27.0842395,7.13654219 L27.0842395,8.43331522 L24.9374707,8.43331522 L24.9374707,14.5132824 L23.4674552,14.5132824 L23.4674552,8.43331522 L21.3206864,8.43331522 L21.3206864,7.13654219 L27.0842395,7.13654219 Z M32.4882532,5 L30.9440542,6.61604906 L29.8863712,6.61604906 L31.1028887,5 L32.4882532,5 Z M33.0917333,8.43336096 L29.410778,8.43336096 L29.410778,10.166051 L32.8059222,10.166051 L32.8059222,11.419827 L29.410778,11.419827 L29.410778,13.2060346 L33.0917333,13.2060346 L33.0917333,14.5133282 L27.9407625,14.5133282 L27.9407625,7.13658794 L33.0917333,7.13658794 L33.0917333,8.43336096 Z M3.41612492,24.2565534 C3.57769009,24.2565534 3.75245355,24.2195027 3.93904994,24.1454014 C4.12701168,24.0708427 4.28129504,23.9363625 4.40508582,23.7410461 C4.52796638,23.5466445 4.58986177,23.3252554 4.58986177,23.0768787 C4.58986177,22.7301578 4.48291018,22.4465601 4.26764165,22.2265433 C4.05191801,22.0069838 3.76838251,21.8972041 3.41612492,21.8972041 L1.85144586,21.8972041 L1.85144586,24.2565534 L3.41612492,24.2565534 Z M3.5745043,20.6004311 C3.7438064,20.6004311 3.93768461,20.6205574 4.15613892,20.6589803 C4.37504836,20.6978606 4.59350267,20.7705896 4.81241211,20.87671 C5.03086642,20.9828305 5.23657758,21.1314905 5.4309109,21.3231476 C5.62524422,21.5143473 5.78316848,21.7627239 5.90650415,22.0673627 C6.02983982,22.371544 6.09173521,22.701798 6.09173521,23.056295 C6.09173521,23.3183941 6.05123014,23.5887267 5.96976488,23.8691224 C5.88966497,24.1490607 5.73356115,24.4253397 5.50509434,24.6984168 C5.27571731,24.9710364 4.98672045,25.1745864 4.63764865,25.3095239 C4.28857685,25.4444615 3.93449881,25.5112442 3.5745043,25.5112442 L1.85144586,25.5112442 L1.85144586,27.9771713 L0.380975229,27.9771713 L0.380975229,20.6004311 L3.5745043,20.6004311 Z M10.2903817,24.0975558 C10.4455753,24.0975558 10.6112365,24.063707 10.7873653,23.9964669 C10.9634941,23.9296843 11.1095854,23.8048098 11.2260944,23.6241307 C11.3426033,23.4434515 11.4008578,23.2330404 11.4008578,22.9919824 C11.4008578,22.6663026 11.2984574,22.4023738 11.0941116,22.2001961 C10.8893106,21.9980185 10.6217041,21.8969296 10.2903817,21.8969296 L8.49268471,21.8969296 L8.49268471,24.0975558 L10.2903817,24.0975558 Z M12.8599506,26.3828037 C12.8881676,27.2331392 12.937775,27.7646561 13.0083175,27.9768969 L11.4750413,27.9768969 C11.425889,27.7362963 11.393576,27.2683602 11.3799226,26.5744608 C11.3726408,26.3905798 11.3389624,26.1966356 11.2793426,25.9949154 C11.2192677,25.7931951 11.1082201,25.6248662 10.9457447,25.4899286 C10.7841795,25.3559059 10.5934871,25.2882084 10.3750328,25.2882084 L8.49268471,25.2882084 L8.49268471,27.9768969 L7.02266919,27.9768969 L7.02266919,20.6001566 L10.4487611,20.6001566 C10.8155823,20.6001566 11.1505456,20.6500149 11.4541061,20.7492741 C11.7572114,20.8485333 12.0157157,20.9903321 12.2314393,21.1742131 C12.4457976,21.3585516 12.6100935,21.5836 12.7229616,21.8493584 C12.8353745,22.1151169 12.8922637,22.4078628 12.8922637,22.726224 C12.8922637,23.1653429 12.7839467,23.551859 12.5695884,23.8853149 C12.3543199,24.2183135 12.0566759,24.4625733 11.6757462,24.6180946 C12.0280038,24.7388523 12.3088086,24.9478912 12.5163402,25.2456687 C12.7243269,25.5429888 12.8394705,25.9221863 12.8599506,26.3828037 Z M18.6557713,18.4638431 L17.1115723,20.0798922 L16.0538893,20.0798922 L17.2699517,18.4638431 L18.6557713,18.4638431 Z M19.2583411,21.8972041 L15.578296,21.8972041 L15.578296,23.6298941 L18.97253,23.6298941 L18.97253,24.8836701 L15.578296,24.8836701 L15.578296,26.6694203 L19.2583411,26.6694203 L19.2583411,27.9771713 L14.1082805,27.9771713 L14.1082805,20.6004311 L19.2583411,20.6004311 L19.2583411,21.8972041 Z M25.4344543,20.6003853 L26.9677305,20.6003853 L24.2607174,27.9771256 L22.5472164,27.9771256 L19.8292806,20.6003853 L21.363467,20.6003853 L23.4041945,26.499216 L25.4344543,20.6003853 Z M30.9344969,21.8547102 C30.7788482,21.8547102 30.601354,21.8743791 30.400194,21.912802 C30.199034,21.9525971 29.997874,22.0248688 29.7971691,22.1309892 C29.596009,22.237567 29.4039513,22.386227 29.2205407,22.5774267 C29.0375852,22.7690838 28.8873979,23.0133437 28.7708889,23.3111212 C28.654835,23.6084413 28.5965805,23.92726 28.5965805,24.2675771 C28.5965805,24.5223576 28.6352652,24.7904031 28.7130895,25.0698839 C28.7904587,25.3502797 28.9347296,25.6261012 29.1468124,25.8991783 C29.35844,26.1722554 29.6260465,26.3780924 29.9505422,26.515317 C30.2750379,26.6539139 30.6027194,26.7234411 30.9344969,26.7234411 C31.2658192,26.7234411 31.5752962,26.6630622 31.8647482,26.5423045 C32.1542001,26.4220042 32.4040573,26.2495586 32.6156849,26.0267972 C32.8273125,25.8035785 32.9911533,25.5414794 33.1072071,25.2400425 C33.2237161,24.9390631 33.2815154,24.6142981 33.2815154,24.2675771 C33.2815154,23.92726 33.2237161,23.6084413 33.1072071,23.3111212 C32.9911533,23.0133437 32.8273125,22.7567336 32.6156849,22.5403761 C32.4040573,22.3240185 32.1542001,22.1556896 31.8647482,22.0358467 C31.5752962,21.915089 31.2658192,21.8547102 30.9344969,21.8547102 Z M30.9344969,20.4943564 C31.4769918,20.4943564 31.9844429,20.5881266 32.4568504,20.7761244 C32.9292579,20.9636647 33.3379495,21.2280509 33.6838355,21.5674532 C34.0292664,21.9082278 34.297328,22.3116683 34.4875653,22.779147 C34.6782577,23.2470831 34.7733764,23.7470382 34.7733764,24.2780977 C34.7733764,24.8096145 34.6782577,25.3113993 34.4875653,25.7820799 C34.297328,26.2536753 34.0292664,26.6594029 33.6838355,26.9992626 C33.3379495,27.3395798 32.9292579,27.6030511 32.4568504,27.7910489 C31.9844429,27.9790467 31.4769918,28.0728169 30.9344969,28.0728169 C30.3915469,28.0728169 29.8836406,27.9790467 29.4112331,27.7910489 C28.9388256,27.6030511 28.530134,27.3395798 28.1847031,26.9992626 C27.8388171,26.6594029 27.5707555,26.2536753 27.3809733,25.7820799 C27.1902809,25.3113993 27.0951622,24.8096145 27.0951622,24.2780977 C27.0951622,23.7470382 27.1902809,23.2470831 27.3809733,22.779147 C27.5707555,22.3116683 27.8388171,21.9082278 28.1847031,21.5674532 C28.530134,21.2280509 28.9388256,20.9636647 29.4112331,20.7761244 C29.8836406,20.5881266 30.3915469,20.4943564 30.9344969,20.4943564 Z M41.7003353,20.6003853 L38.8868257,24.9796816 L38.8868257,27.9771256 L37.4168102,27.9771256 L37.4168102,25.0222212 L34.5718978,20.6003853 L36.2326057,20.6003853 L38.1363441,23.7469468 L40.0291598,20.6003853 L41.7003353,20.6003853 Z M43.2550019,25.3831221 L45.6029307,25.3831221 L44.4287387,22.0247773 L43.2550019,25.3831221 Z M46.5013241,27.9771256 L46.0257308,26.6062512 L42.8312915,26.6062512 L42.3452306,27.9771256 L40.7691738,27.9771256 L43.5408129,20.6003853 L45.3171196,20.6003853 L48.0878485,27.9771256 L46.5013241,27.9771256 Z M53.5768319,20.6003853 L55.0463923,20.6003853 L55.0463923,27.9771256 L53.1745118,27.9771256 L50.3409773,22.5883132 L50.3409773,27.9771256 L48.8705067,27.9771256 L48.8705067,20.6003853 L50.741932,20.6003853 L53.5768319,25.9896551 L53.5768319,20.6003853 Z M63.750204,24.9480742 C63.6869433,25.401373 63.5481337,25.8212804 63.3324101,26.2077966 C63.1175967,26.5938553 62.8422532,26.9250241 62.5077451,27.2013031 C62.1727818,27.4771246 61.7886663,27.6921099 61.3549434,27.8439719 C60.9212206,27.9962913 60.4611012,28.0726797 59.9750403,28.0726797 C59.4320903,28.0726797 58.924184,27.9789095 58.4517765,27.7909117 C57.9798242,27.6033713 57.5706774,27.3399 57.2252466,26.9991254 C56.8793606,26.6592657 56.6112989,26.2539955 56.4215167,25.7819427 C56.2312794,25.3112621 56.1361608,24.8094773 56.1361608,24.2779604 C56.1361608,23.746901 56.2312794,23.2469458 56.4215167,22.7794672 C56.6112989,22.3115311 56.8793606,21.9080906 57.2252466,21.567316 C57.5706774,21.2279137 57.9798242,20.9635275 58.4517765,20.7759871 C58.924184,20.5884468 59.4320903,20.4946766 59.9750403,20.4946766 C60.4611012,20.4946766 60.9212206,20.5683205 61.3549434,20.7169805 C61.7886663,20.8656406 62.1727818,21.0792536 62.5077451,21.3555326 C62.8422532,21.6313542 63.1153211,21.9629804 63.3274039,22.3485817 C63.5390315,22.7350979 63.6801166,23.1550053 63.750204,23.6083041 L62.2383181,23.6083041 C62.1604937,23.2894855 62.0171331,22.9903357 61.8091463,22.70994 C61.6011596,22.4304591 61.3326429,22.2182183 61.0004103,22.0727602 C60.6690879,21.927302 60.3272979,21.854573 59.9750403,21.854573 C59.7279138,21.854573 59.4725954,21.8934533 59.2081746,21.9716713 C58.9432988,22.0498894 58.6806985,22.1985494 58.4203737,22.4181089 C58.1595939,22.6372109 57.962985,22.915777 57.8332777,23.2528922 C57.7031154,23.5886352 57.6375791,23.9275801 57.6375791,24.2678973 C57.6375791,24.5222203 57.6758086,24.7902658 57.7540881,25.0702041 C57.8310022,25.3501424 57.9757282,25.625964 58.1873558,25.8990411 C58.3989834,26.1725756 58.6670451,26.3779551 58.9910856,26.5156372 C59.3155813,26.6542341 59.6432628,26.7233039 59.9750403,26.7233039 C60.5389255,26.7233039 61.0272619,26.5586343 61.4395945,26.2292951 C61.851927,25.8990411 62.1177131,25.4722724 62.2383181,24.9480742 L63.750204,24.9480742 Z M70,21.8971126 L66.319955,21.8971126 L66.319955,23.6298026 L69.7150992,23.6298026 L69.7150992,24.8835786 L66.319955,24.8835786 L66.319955,26.6697862 L70,26.6697862 L70,27.9770798 L64.8499394,27.9770798 L64.8499394,20.6003396 L70,20.6003396 L70,21.8971126 Z M3.64900633,37.5613989 C3.8037448,37.5613989 3.96940599,37.5275501 4.1459899,37.4603101 C4.32211869,37.39307 4.46821002,37.2686529 4.58471899,37.0879738 C4.70122796,36.9072947 4.75902733,36.6968835 4.75902733,36.4553681 C4.75902733,36.1301457 4.65708198,35.8657595 4.45228106,35.6640393 C4.24748014,35.4618616 3.98032871,35.3607728 3.64900633,35.3607728 L1.85130933,35.3607728 L1.85130933,37.5613989 L3.64900633,37.5613989 Z M6.21857525,39.8461895 C6.24679226,40.6965249 6.29594449,41.2284992 6.36648703,41.44074 L4.83321078,41.44074 C4.78405856,41.2001394 4.75174552,40.7322033 4.73809213,40.0378466 C4.73126543,39.8539655 4.69758706,39.6604787 4.63751212,39.4587585 C4.57743718,39.2565808 4.46684468,39.0887093 4.30391417,38.9537718 C4.142349,38.8192916 3.95165658,38.7520515 3.73365737,38.7520515 L1.85130933,38.7520515 L1.85130933,41.44074 L0.380838696,41.44074 L0.380838696,34.0639998 L3.80738571,34.0639998 C4.17420692,34.0639998 4.50871509,34.113858 4.81273069,34.2126598 C5.11538094,34.3123764 5.37434033,34.4541752 5.59006397,34.6380562 C5.80442227,34.8223947 5.96871812,35.0474431 6.08158619,35.3132016 C6.19354402,35.57896 6.25088828,35.8717059 6.25088828,36.1896097 C6.25088828,36.629186 6.14257135,37.0157022 5.92775794,37.3487007 C5.71294452,37.6816992 5.4148454,37.9259591 5.0343708,38.0819378 C5.38662839,38.2026955 5.66697809,38.4117344 5.87496481,38.7095119 C6.08295153,39.006832 6.19809516,39.3860294 6.21857525,39.8461895 Z M12.6170567,35.3609557 L8.93655657,35.3609557 L8.93655657,37.0936458 L12.3312457,37.0936458 L12.3312457,38.3474217 L8.93655657,38.3474217 L8.93655657,40.1336294 L12.6170567,40.1336294 L12.6170567,41.440923 L7.46699617,41.440923 L7.46699617,34.0637253 L12.6170567,34.0637253 L12.6170567,35.3609557 Z M18.9940114,34.063771 L18.9940114,35.3610015 L16.8472426,35.3610015 L16.8472426,41.4409687 L15.377227,41.4409687 L15.377227,35.3610015 L13.2304583,35.3610015 L13.2304583,34.063771 L18.9940114,34.063771 Z M23.1184744,37.5613989 C23.2741231,37.5613989 23.4393292,37.5275501 23.615458,37.4603101 C23.7915868,37.39307 23.9385883,37.2686529 24.0550973,37.0879738 C24.1711512,36.9072947 24.2284954,36.6968835 24.2284954,36.4553681 C24.2284954,36.1301457 24.1270052,35.8657595 23.9226594,35.6640393 C23.7178584,35.4618616 23.4502519,35.3607728 23.1184744,35.3607728 L21.3207774,35.3607728 L21.3207774,37.5613989 L23.1184744,37.5613989 Z M25.6884984,39.8461895 C25.7167155,40.6965249 25.7663228,41.2284992 25.8368653,41.44074 L24.3035891,41.44074 C24.2535266,41.2001394 24.2221238,40.7322033 24.2084704,40.0378466 C24.2007335,39.8539655 24.1679654,39.6604787 24.1078904,39.4587585 C24.0478155,39.2565808 23.9363128,39.0887093 23.7742925,38.9537718 C23.6118171,38.8192916 23.4220349,38.7520515 23.2031255,38.7520515 L21.3207774,38.7520515 L21.3207774,41.44074 L19.8503068,41.44074 L19.8503068,34.0639998 L23.277764,34.0639998 C23.643675,34.0639998 23.9790934,34.113858 24.2821988,34.2126598 C24.584849,34.3123764 24.8442635,34.4541752 25.0595321,34.6380562 C25.2738904,34.8223947 25.4381862,35.0474431 25.5510543,35.3132016 C25.6639223,35.57896 25.7203564,35.8717059 25.7203564,36.1896097 C25.7203564,36.629186 25.6124945,37.0157022 25.3981362,37.3487007 C25.1824126,37.6816992 24.8852237,37.9259591 24.504294,38.0819378 C24.8565516,38.2026955 25.1373564,38.4117344 25.3453431,38.7095119 C25.5533298,39.006832 25.6675632,39.3860294 25.6884984,39.8461895 Z M28.7767143,38.8469652 L31.1246431,38.8469652 L29.9504512,35.4886204 L28.7767143,38.8469652 Z M32.0239468,41.4409687 L31.5478984,40.0700944 L28.3539142,40.0700944 L27.8669431,41.4409687 L26.2917965,41.4409687 L29.0625254,34.063771 L30.8392872,34.063771 L33.6100161,41.4409687 L32.0239468,41.4409687 Z M34.3927197,41.4408315 L34.3927197,34.0636338 L35.8622802,34.0636338 L35.8622802,41.4408315 L34.3927197,41.4408315 Z M42.4722982,34.063771 L42.4722982,35.3610015 L40.3250743,35.3610015 L40.3250743,41.4409687 L38.8555139,41.4409687 L38.8555139,35.3610015 L36.70829,35.3610015 L36.70829,34.063771 L42.4722982,34.063771 Z M48.4794734,35.3609557 L44.7985182,35.3609557 L44.7985182,37.0936458 L48.1936624,37.0936458 L48.1936624,38.3474217 L44.7985182,38.3474217 L44.7985182,40.1336294 L48.4794734,40.1336294 L48.4794734,41.440923 L43.3289577,41.440923 L43.3289577,34.0637253 L48.4794734,34.0637253 L48.4794734,35.3609557 Z M4.9286025,45.3914837 L3.38440353,47.0070753 L2.32672054,47.0070753 L3.54278291,45.3914837 L4.9286025,45.3914837 Z M5.53117233,48.8243872 L1.85112728,48.8243872 L1.85112728,50.5570772 L5.24536126,50.5570772 L5.24536126,51.8113106 L1.85112728,51.8113106 L1.85112728,53.5970608 L5.53117233,53.5970608 L5.53117233,54.9043544 L0.381111763,54.9043544 L0.381111763,47.5276142 L5.53117233,47.5276142 L5.53117233,48.8243872 Z M9.7614947,51.1842397 C9.92305987,51.1842397 10.0982784,51.1467316 10.2848748,51.0730877 C10.4723815,50.9980715 10.6266648,50.8640488 10.7504556,50.6687324 C10.8733362,50.4743308 10.9356867,50.2529416 10.9356867,50.004565 C10.9356867,49.657844 10.82828,49.373789 10.6130114,49.1542295 C10.3977429,48.9346701 10.1137523,48.8244329 9.7614947,48.8244329 L8.19681564,48.8244329 L8.19681564,51.1842397 L9.7614947,51.1842397 Z M9.91987408,47.5276599 C10.0896313,47.5276599 10.2830544,47.5477862 10.5019638,47.5866665 C10.7204181,47.6255468 10.9388725,47.6978185 11.1577819,47.8043963 C11.3762362,47.9105167 11.5819474,48.0591768 11.7762807,48.2508339 C11.970614,48.4420336 12.1285383,48.6904102 12.252329,48.9945915 C12.3752096,49.2992303 12.437105,49.6294843 12.437105,49.9835239 C12.437105,50.245623 12.3965999,50.516413 12.3151347,50.7968087 C12.2350347,51.0762896 12.079386,51.353026 11.8504641,51.6256456 C11.6210871,51.8987227 11.3320902,52.1018152 10.9830184,52.2367528 C10.6339466,52.3716904 10.2803237,52.4389305 9.91987408,52.4389305 L8.19681564,52.4389305 L8.19681564,54.9044002 L6.72634501,54.9044002 L6.72634501,47.5276599 L9.91987408,47.5276599 Z M14.5206586,52.3108084 L16.8685874,52.3108084 L15.6943954,48.9524635 L14.5206586,52.3108084 Z M17.7669808,54.9043544 L17.2913875,53.5339375 L14.0969482,53.5339375 L13.6113425,54.9043544 L12.0352856,54.9043544 L14.8064696,47.5276142 L16.5827763,47.5276142 L19.3535052,54.9043544 L17.7669808,54.9043544 Z M23.40424,51.0251963 C23.5589784,51.0251963 23.7246396,50.9913475 23.9012235,50.9241074 C24.0773523,50.8568674 24.2234437,50.7319929 24.3399526,50.5517712 C24.4564616,50.3710921 24.514261,50.1606809 24.514261,49.9191655 C24.514261,49.5939431 24.4123156,49.3295569 24.2075147,49.1278367 C24.0027138,48.925659 23.7355623,48.8241128 23.40424,48.8241128 L21.606543,48.8241128 L21.606543,51.0251963 L23.40424,51.0251963 Z M25.9738089,53.3099868 C26.0020259,54.1603223 26.0511781,54.6922966 26.1217207,54.90408 L24.5884444,54.90408 C24.5392922,54.6634794 24.5069792,54.1960007 24.4933258,53.501644 C24.4864991,53.3177629 24.4528207,53.1238187 24.3927458,52.9225559 C24.3326708,52.7203782 24.2220783,52.5525067 24.0591478,52.4175691 C23.8975826,52.283089 23.7068902,52.2153915 23.488891,52.2153915 L21.606543,52.2153915 L21.606543,54.90408 L20.1360723,54.90408 L20.1360723,47.5277971 L23.5626193,47.5277971 C23.9294406,47.5277971 24.2639487,47.5776554 24.5679643,47.6764572 C24.8706146,47.7757164 25.129574,47.9179726 25.3452976,48.1018536 C25.5596559,48.2861921 25.7239518,48.5112405 25.8368198,48.7765415 C25.9487777,49.0423 26.0061219,49.3355033 26.0061219,49.6534071 C26.0061219,50.0929834 25.897805,50.4790421 25.6829916,50.8124981 C25.4681782,51.1454966 25.170079,51.3897565 24.7896044,51.5457351 C25.141862,51.6664928 25.4222117,51.8755317 25.6301984,52.1733093 C25.8381852,52.4706293 25.9533288,52.8498268 25.9738089,53.3099868 Z M34.5087281,50.8228814 L34.5191957,51.2057382 C34.5191957,51.7441163 34.4258975,52.2472733 34.2393011,52.7152094 C34.0522496,53.1826881 33.7896493,53.5870434 33.4510451,53.9264458 C33.1133511,54.2672203 32.7073902,54.5306917 32.2349827,54.7186894 C31.7630304,54.9066872 31.254669,55 30.7121741,55 C30.168769,55 29.6617729,54.9066872 29.1893654,54.7186894 C28.7165029,54.5306917 28.3078112,54.2672203 27.9619252,53.9264458 C27.6169495,53.5870434 27.3493429,53.1813159 27.1586505,52.709263 C26.9688683,52.2390399 26.8728394,51.737255 26.8728394,51.2057382 C26.8728394,50.6742213 26.9688683,50.1747236 27.1586505,49.7072449 C27.3493429,49.2388514 27.6169495,48.8354109 27.9619252,48.4950938 C28.3078112,48.155234 28.7165029,47.8913053 29.1893654,47.7037649 C29.6617729,47.5162245 30.168769,47.4215395 30.7121741,47.4215395 C31.1563645,47.4215395 31.5864465,47.4910667 32.0024199,47.6287487 C32.4179382,47.7668882 32.7902208,47.9622047 33.1174472,48.2133258 C33.4460389,48.4653618 33.7209272,48.7645115 33.9434775,49.1116899 C34.1651177,49.4593257 34.3148499,49.8348638 34.3922191,50.2383043 L32.8589429,50.2383043 C32.7888554,50.0260635 32.6687056,49.7991854 32.4994035,49.55767 C32.3301014,49.3170695 32.0907119,49.113977 31.7798696,48.9470203 C31.4699375,48.7800636 31.1176799,48.6972714 30.7226417,48.6972714 C30.3913193,48.6972714 30.0809321,48.7594799 29.7923904,48.8834395 C29.5029384,49.0069417 29.2521711,49.1807596 29.0409985,49.403521 C28.8293709,49.6271972 28.6655302,49.8929556 28.5494763,50.2012537 C28.4329674,50.5095518 28.3742578,50.841178 28.3742578,51.1952176 C28.3742578,51.5497147 28.4329674,51.8822558 28.5494763,52.1937557 C28.6655302,52.5061705 28.8293709,52.7755883 29.0409985,53.0024664 C29.2521711,53.2293445 29.5029384,53.4045346 29.7923904,53.5280368 C30.0809321,53.6519964 30.3913193,53.7142049 30.7226417,53.7142049 C31.2655917,53.7142049 31.7379992,53.5618856 32.1403192,53.2567894 C32.541729,52.9521507 32.7988679,52.5592307 32.911736,52.0766574 L30.7226417,52.0766574 L30.7226417,50.8228814 L34.5087281,50.8228814 Z M40.3149708,47.5276142 L41.7845312,47.5276142 L41.7845312,54.9043544 L39.9126508,54.9043544 L37.0791162,49.5159995 L37.0791162,54.9043544 L35.6086456,54.9043544 L35.6086456,47.5276142 L37.4800709,47.5276142 L40.3149708,52.9168839 L40.3149708,47.5276142 Z" id="path-1"></path>
    </defs>
    <g id="🧬-Logos/MH/Baseline" stroke="none" stroke-width="1" fill="none" fill-rule="evenodd">
        <mask id="mask-2" fill="white">
            <use xlink:href="#path-1"></use>
        </mask>
        <use id="Mask" fill="#FF4B33" xlink:href="#path-1"></use>
    </g>
</svg>